<svg width="24" height="24" viewBox="0 0 24 24" fill="none" xmlns="http://www.w3.org/2000/svg">
<g filter="url(#filter0_ii_954_10068)">
<path fill-rule="evenodd" clip-rule="evenodd" d="M12 21.5C9.55 20.99 2 16.995 2 9.8125C2 8.6975 2.36687 7.61076 3.04865 6.70623C3.73043 5.80169 4.69256 5.12521 5.79874 4.77262C6.90491 4.42003 8.09907 4.40919 9.21204 4.74165C10.325 5.0741 11.3004 5.733 12 6.625C12.6996 5.733 13.675 5.0741 14.788 4.74165C15.9009 4.40919 17.0951 4.42003 18.2013 4.77262C19.3074 5.12521 20.2696 5.80169 20.9513 6.70623C21.6331 7.61076 22 8.6975 22 9.8125C22 16.995 14.45 20.99 12 21.5Z" fill="#F7F7F7"/>
</g>
<defs>
<filter id="filter0_ii_954_10068" x="2" y="0.5" width="20" height="25" filterUnits="userSpaceOnUse" color-interpolation-filters="sRGB">
<feFlood flood-opacity="0" result="BackgroundImageFix"/>
<feBlend mode="normal" in="SourceGraphic" in2="BackgroundImageFix" result="shape"/>
<feColorMatrix in="SourceAlpha" type="matrix" values="0 0 0 0 0 0 0 0 0 0 0 0 0 0 0 0 0 0 127 0" result="hardAlpha"/>
<feOffset dy="-5"/>
<feGaussianBlur stdDeviation="2"/>
<feComposite in2="hardAlpha" operator="arithmetic" k2="-1" k3="1"/>
<feColorMatrix type="matrix" values="0 0 0 0 0 0 0 0 0 0 0 0 0 0 0 0 0 0 0.1 0"/>
<feBlend mode="normal" in2="shape" result="effect1_innerShadow_954_10068"/>
<feColorMatrix in="SourceAlpha" type="matrix" values="0 0 0 0 0 0 0 0 0 0 0 0 0 0 0 0 0 0 127 0" result="hardAlpha"/>
<feOffset dy="4"/>
<feGaussianBlur stdDeviation="2"/>
<feComposite in2="hardAlpha" operator="arithmetic" k2="-1" k3="1"/>
<feColorMatrix type="matrix" values="0 0 0 0 1 0 0 0 0 1 0 0 0 0 1 0 0 0 1 0"/>
<feBlend mode="normal" in2="effect1_innerShadow_954_10068" result="effect2_innerShadow_954_10068"/>
</filter>
</defs>
</svg>
