<svg width="24" height="25" viewBox="0 0 24 25" fill="none" xmlns="http://www.w3.org/2000/svg">
<path fill-rule="evenodd" clip-rule="evenodd" d="M4.92893 5.42893C6.8043 3.55357 9.34784 2.5 12 2.5C14.6522 2.5 17.1957 3.55357 19.0711 5.42893C20.9464 7.3043 22 9.84784 22 12.5C22 13.8132 21.7413 15.1136 21.2388 16.3268C20.7362 17.5401 19.9997 18.6425 19.0711 19.5711C18.1425 20.4997 17.0401 21.2362 15.8268 21.7388C14.6136 22.2413 13.3132 22.5 12 22.5C10.6868 22.5 9.38642 22.2413 8.17317 21.7388C6.95991 21.2362 5.85752 20.4997 4.92893 19.5711C4.00035 18.6425 3.26375 17.5401 2.7612 16.3268C2.25866 15.1136 2 13.8132 2 12.5C2 9.84784 3.05357 7.3043 4.92893 5.42893ZM7.61612 8.11612C8.10427 7.62796 8.89573 7.62796 9.38388 8.11612L12 10.7323L14.6161 8.11618C15.1043 7.62803 15.8957 7.62803 16.3839 8.11618C16.872 8.60434 16.872 9.39579 16.3839 9.88395L13.7678 12.5L16.3838 15.1161C16.872 15.6042 16.872 16.3957 16.3838 16.8838C15.8957 17.372 15.1042 17.372 14.6161 16.8838L12 14.2678L9.38392 16.8839C8.89576 17.3721 8.1043 17.3721 7.61615 16.8839C7.12799 16.3958 7.12799 15.6043 7.61615 15.1161L10.2323 12.5L7.61612 9.88388C7.12796 9.39573 7.12796 8.60427 7.61612 8.11612Z" fill="black"/>
</svg>
