<svg width="24" height="24" viewBox="0 0 24 24" fill="none" xmlns="http://www.w3.org/2000/svg">
<g clip-path="url(#clip0_1848_4500)">
<path fill-rule="evenodd" clip-rule="evenodd" d="M4.92893 4.92893C6.8043 3.05357 9.34784 2 12 2C14.6522 2 17.1957 3.05357 19.0711 4.92893C20.9464 6.8043 22 9.34784 22 12C22 13.3132 21.7413 14.6136 21.2388 15.8268C20.7362 17.0401 19.9997 18.1425 19.0711 19.0711C18.1425 19.9997 17.0401 20.7362 15.8268 21.2388C14.6136 21.7413 13.3132 22 12 22C10.6868 22 9.38642 21.7413 8.17317 21.2388C6.95991 20.7362 5.85752 19.9997 4.92893 19.0711C4.00035 18.1425 3.26375 17.0401 2.7612 15.8268C2.25866 14.6136 2 13.3132 2 12C2 9.34784 3.05357 6.8043 4.92893 4.92893ZM16.6339 10.2761C17.122 9.75544 17.122 8.91122 16.6339 8.39052C16.1457 7.86983 15.3543 7.86983 14.8661 8.39052L10.75 12.781L9.13388 11.0572C8.64573 10.5365 7.85427 10.5365 7.36612 11.0572C6.87796 11.5779 6.87796 12.4221 7.36612 12.9428L9.86612 15.6095C10.3543 16.1302 11.1457 16.1302 11.6339 15.6095L16.6339 10.2761Z" fill="#C6DC84"/>
</g>
<defs>
<clipPath id="clip0_1848_4500">
<rect width="24" height="24" fill="white"/>
</clipPath>
</defs>
</svg>
