<svg width="24" height="24" viewBox="0 0 24 24" fill="none" xmlns="http://www.w3.org/2000/svg">
<path fill-rule="evenodd" clip-rule="evenodd" d="M17.4 19.8H6.60001V18.6H17.4V19.8Z" fill="#8B8B8B"/>
<path fill-rule="evenodd" clip-rule="evenodd" d="M9.8934 7.99796C8.9076 8.16836 8.1894 9.00356 8.0718 9.99716L7.2 17.4H16.8L15.9264 9.98696C15.81 8.99816 15.0984 8.16476 14.118 7.99316C12.648 7.73576 11.4228 7.73336 9.8934 7.99796ZM10.638 10.5888C10.6537 10.4329 10.6079 10.277 10.5103 10.1545C10.4126 10.032 10.2709 9.95251 10.1155 9.93308C9.96 9.91365 9.8031 9.95579 9.6783 10.0505C9.5535 10.1452 9.4707 10.285 9.4476 10.44L8.9046 14.7828C8.8928 14.8619 8.89694 14.9425 8.91678 15.02C8.93661 15.0975 8.97174 15.1703 9.0201 15.234C9.06846 15.2977 9.12907 15.3511 9.19836 15.391C9.26766 15.431 9.34424 15.4567 9.42361 15.4666C9.50299 15.4765 9.58354 15.4705 9.66054 15.4488C9.73754 15.4272 9.80943 15.3903 9.87198 15.3405C9.93453 15.2906 9.98649 15.2288 10.0248 15.1585C10.0631 15.0883 10.087 15.0111 10.095 14.9316L10.638 10.5888V10.5888Z" fill="#8B8B8B"/>
<path d="M5.40001 12.6C5.40001 12.8022 5.40901 13.002 5.42701 13.2H3.60001V12H5.42701C5.40901 12.198 5.40001 12.3978 5.40001 12.6ZM6.60721 8.79355C6.3758 9.12095 6.17477 9.4688 6.00661 9.83275L4.42561 8.91955L5.02561 7.88035L6.60721 8.79355ZM9.23221 6.60595C8.86681 6.77575 8.51941 6.97735 8.19421 7.20715L7.28041 5.62555L8.31961 5.02555L9.23221 6.60655V6.60595ZM12 5.99995C11.7978 5.99995 11.598 6.00895 11.4 6.02695V4.19995H12.6V6.02695C12.4005 6.00899 12.2003 5.99998 12 5.99995V5.99995ZM15.8064 7.20715C15.479 6.97577 15.1311 6.77474 14.7672 6.60655L15.6804 5.02555L16.7196 5.62555L15.8064 7.20715ZM17.994 9.83215C17.8256 9.46859 17.6244 9.12115 17.3928 8.79415L18.9744 7.88035L19.5744 8.91955L17.9934 9.83215H17.994ZM18.6 12.6C18.6 12.3978 18.591 12.198 18.573 12H20.4V13.2H18.573C18.591 13.002 18.6 12.8022 18.6 12.6Z" fill="#8B8B8B"/>
</svg>
