<svg width="40" height="40" viewBox="0 0 40 40" fill="none" xmlns="http://www.w3.org/2000/svg">
<rect width="40" height="40" rx="20" fill="white"/>
<path d="M20.75 12.125C20.75 11.8266 20.6315 11.5405 20.4205 11.3295C20.2095 11.1185 19.9234 11 19.625 11C19.3266 11 19.0405 11.1185 18.8295 11.3295C18.6185 11.5405 18.5 11.8266 18.5 12.125V18.5H12.125C11.8266 18.5 11.5405 18.6185 11.3295 18.8295C11.1185 19.0405 11 19.3266 11 19.625C11 19.9234 11.1185 20.2095 11.3295 20.4205C11.5405 20.6315 11.8266 20.75 12.125 20.75H18.5V27.125C18.5 27.4234 18.6185 27.7095 18.8295 27.9205C19.0405 28.1315 19.3266 28.25 19.625 28.25C19.9234 28.25 20.2095 28.1315 20.4205 27.9205C20.6315 27.7095 20.75 27.4234 20.75 27.125V20.75H27.125C27.4234 20.75 27.7095 20.6315 27.9205 20.4205C28.1315 20.2095 28.25 19.9234 28.25 19.625C28.25 19.3266 28.1315 19.0405 27.9205 18.8295C27.7095 18.6185 27.4234 18.5 27.125 18.5H20.75V12.125Z" fill="#C6DC84"/>
</svg>
