<svg width="361" height="298" viewBox="0 0 361 298" fill="none" xmlns="http://www.w3.org/2000/svg">
<mask id="mask0_2322_6226" style="mask-type:alpha" maskUnits="userSpaceOnUse" x="22" y="13" width="318" height="272">
<path fill-rule="evenodd" clip-rule="evenodd" d="M180.999 284.093C142.152 275.988 22.4391 212.494 22.4391 98.3399C22.4391 80.6189 28.2562 63.347 39.0665 48.9709C49.8768 34.5948 65.1321 23.8434 82.6716 18.2395C100.211 12.6356 119.146 12.4633 136.793 17.7472C154.44 23.031 169.906 33.5031 180.999 47.6799C192.092 33.5031 207.557 23.031 225.204 17.7472C242.852 12.4633 261.786 12.6356 279.326 18.2395C296.865 23.8434 312.12 34.5948 322.931 48.9709C333.741 63.347 339.558 80.6189 339.558 98.3399C339.558 212.494 219.846 275.988 180.999 284.093Z" fill="#FFA19C"/>
</mask>
<g mask="url(#mask0_2322_6226)">
<g filter="url(#filter0_i_2322_6226)">
<path fill-rule="evenodd" clip-rule="evenodd" d="M180.999 284.093C142.152 275.988 22.4391 212.494 22.4391 98.3399C22.4391 80.6189 28.2562 63.347 39.0665 48.9709C49.8768 34.5948 65.1321 23.8434 82.6716 18.2395C100.211 12.6356 119.146 12.4633 136.793 17.7472C154.44 23.031 169.906 33.5031 180.999 47.6799C192.092 33.5031 207.557 23.031 225.204 17.7472C242.852 12.4633 261.786 12.6356 279.326 18.2395C296.865 23.8434 312.12 34.5948 322.931 48.9709C333.741 63.347 339.558 80.6189 339.558 98.3399C339.558 212.494 219.846 275.988 180.999 284.093Z" fill="#3D3D3D"/>
</g>
<ellipse rx="63.245" ry="63.2763" transform="matrix(-1 0 0 1 301.872 81.8923)" fill="#7FA415"/>
<path d="M289.834 66.9387C290.281 66.9947 290.181 67.8132 290.181 68.1164C290.181 68.7667 289.988 68.9934 289.525 69.4099C288.587 70.2548 287.944 69.9792 286.968 69.5451C284.847 68.6021 287.119 65.3408 288.879 65.732C289.863 65.9509 290.289 67.5319 289.737 68.2419C289.562 68.4678 288.819 69.0938 288.541 69.0142C288.096 68.8869 288.271 68.0096 288.271 67.6723C288.271 67.4183 288.611 66.6988 288.83 67.1124C289.165 67.7443 289.338 68.5755 288.879 69.1879C288.54 69.6392 287.997 69.3239 287.74 69.0238C287.259 68.4629 287.765 67.664 287.923 67.9812" stroke="#242424" stroke-width="3" stroke-linecap="round"/>
<path d="M267.298 55.5179C267.745 55.5739 267.645 56.3924 267.645 56.6956C267.645 57.346 267.452 57.5726 266.989 57.9892C266.051 58.834 265.408 58.5584 264.432 58.1243C262.312 57.1813 264.583 53.92 266.343 54.3112C267.327 54.5302 267.753 56.1111 267.201 56.8211C267.026 57.047 266.283 57.673 266.005 57.5934C265.56 57.4661 265.735 56.5888 265.735 56.2516C265.735 55.9975 266.076 55.278 266.294 55.6917C266.629 56.3235 266.802 57.1547 266.343 57.7671C266.004 58.2184 265.461 57.9031 265.204 57.603C264.724 57.0421 265.229 56.2432 265.387 56.5605" stroke="#242424" stroke-width="3" stroke-linecap="round"/>
<path d="M283.192 56.859C280.527 56.859 278.127 56.7184 275.458 56.859C273.483 56.963 270.453 57.6258 269.566 59.6225C267.923 63.3204 268.544 67.5673 268.544 71.4507" stroke="#242424" stroke-width="3" stroke-linecap="round"/>
<path d="M262.777 87.6066C263.469 90.1491 264.368 92.3113 267.218 92.9163C269.044 93.304 271.929 92.1519 272.743 90.5123" stroke="#242424" stroke-width="3" stroke-linecap="round"/>
<ellipse rx="62.4062" ry="62.4228" transform="matrix(0.977601 0.210466 -0.210149 0.977669 138.047 251.674)" fill="#C64E47"/>
<path d="M158.256 207.571C155.656 205.062 152.154 204.17 149.11 204.814" stroke="#242424" stroke-width="3" stroke-linecap="round"/>
<path d="M140.025 218.367C139.667 218.658 139.936 219.461 140.127 219.776C140.385 220.201 140.817 220.494 141.22 220.011C141.578 219.584 142.049 219.017 141.696 218.402C141.393 217.873 141.159 217.79 140.578 217.829C139.532 217.898 139.694 219.409 140.156 219.961C140.712 220.624 141.529 220.199 141.689 219.455" stroke="#242424" stroke-width="3" stroke-linecap="round"/>
<path d="M160.229 223.094C160.396 223.429 160.067 223.696 159.716 223.864C159.585 224.004 159.413 224.138 159.305 224.258C159.234 224.337 158.846 223.949 158.78 223.858C158.779 223.856 158.777 223.854 158.776 223.852C158.55 223.501 158.69 222.577 158.899 222.239C159.157 221.823 159.375 221.687 159.837 221.934C159.985 222.014 160.148 222.283 160.19 222.444C160.235 222.62 160.155 222.946 160.229 223.094Z" fill="#F76159"/>
<path d="M160.229 223.094C160.396 223.429 160.067 223.696 159.716 223.864C159.585 224.004 159.413 224.138 159.305 224.258C159.234 224.337 158.846 223.949 158.78 223.858C158.779 223.856 158.777 223.854 158.776 223.852C158.55 223.501 158.69 222.577 158.899 222.239C159.157 221.823 159.375 221.687 159.837 221.934C159.985 222.014 160.148 222.283 160.19 222.444C160.235 222.62 160.155 222.946 160.229 223.094Z" fill="black" fill-opacity="0.2"/>
<path d="M158.87 221.868C158.746 221.857 158.592 222.347 158.541 222.454C158.423 222.702 158.485 222.932 158.442 223.179C158.389 223.483 158.872 224.111 159.205 224.041C159.568 223.966 160.486 223.609 160.229 223.094C160.155 222.946 160.235 222.62 160.19 222.444C160.148 222.283 159.985 222.014 159.837 221.934C159.375 221.687 159.157 221.823 158.899 222.239C158.69 222.577 158.55 223.501 158.776 223.852C158.825 223.927 159.232 224.339 159.305 224.258C159.466 224.078 159.77 223.868 159.869 223.653C160.034 223.294 160.141 222.666 159.856 222.372" stroke="#242424" stroke-width="3" stroke-linecap="round"/>
<ellipse rx="57.2842" ry="57.2937" transform="matrix(0.951105 0.308868 -0.308477 0.951232 52.7746 83.147)" fill="#8650CA"/>
<path d="M61.0239 51.2847C60.5015 51.1845 60.3164 52.1386 60.2062 52.4785C59.9697 53.2076 60.1043 53.5322 60.4717 54.1677C61.2167 55.4565 62.0374 55.3815 63.2899 55.2503C66.0109 54.9655 64.6494 50.4821 62.5338 50.2798C61.3499 50.1667 60.2974 51.7839 60.6583 52.7809C60.7731 53.098 61.378 54.0702 61.7192 54.0824C62.2648 54.1018 62.3874 53.0545 62.51 52.6765C62.6024 52.3917 62.4818 51.461 62.086 51.845C61.4814 52.4316 60.9852 53.3005 61.2773 54.1542C61.4927 54.7833 62.2164 54.6277 62.6138 54.3848C63.3566 53.931 63.0804 52.8514 62.7873 53.1493" stroke="#242424" stroke-width="3" stroke-linecap="round"/>
<path d="M83.9965 61.4844C83.4742 61.3842 83.2891 62.3383 83.1788 62.6782C82.9424 63.4074 83.077 63.7319 83.4443 64.3674C84.1894 65.6562 85.01 65.5812 86.2626 65.45C88.9836 65.1652 87.622 60.6818 85.5064 60.4795C84.3225 60.3664 83.2701 61.9836 83.6309 62.9806C83.7457 63.2978 84.3506 64.2699 84.6919 64.2821C85.2374 64.3015 85.3601 63.2542 85.4827 62.8762C85.575 62.5914 85.4545 61.6607 85.0587 62.0447C84.454 62.6313 83.9578 63.5002 84.25 64.3539C84.4653 64.983 85.189 64.8274 85.5865 64.5845C86.3293 64.1307 86.053 63.0511 85.7599 63.349" stroke="#242424" stroke-width="3" stroke-linecap="round"/>
<path d="M32.2403 50.4814C27.4659 48.9309 25.1474 47.4678 23.4998 52.5485C23.1426 53.6499 22.1882 55.3592 22.3363 56.5311C22.6008 58.6225 26.9199 60.1383 28.9001 60.7813" stroke="#242424" stroke-width="3" stroke-linecap="round"/>
<path d="M57.4864 68.6902C58.0314 69.6672 58.6337 70.6077 59.5542 71.3274C59.9175 71.6114 60.1207 72.0282 60.4277 72.3586C60.9615 72.9328 61.5739 73.4806 62.1834 73.9808C64.8615 76.1781 68.0565 77.8536 71.389 78.9357C73.8484 79.7343 76.5478 80.1649 79.1216 80.2007C79.6661 80.2083 80.3673 80.0129 80.8831 80.1498C81.6138 80.3437 82.2625 79.653 82.9743 79.6798C84.1474 79.724 85.5162 79.0641 86.3149 78.3005" stroke="#242424" stroke-width="3" stroke-linecap="round"/>
<g filter="url(#filter1_d_2322_6226)">
<ellipse rx="58.2551" ry="58.0704" transform="matrix(-0.993635 0.112635 0.112213 0.993686 232.197 240.654)" fill="#CC8C2B"/>
</g>
<path d="M235.592 204.279C225.971 200.829 217.096 198.883 208.816 206.613C203.509 211.566 200.731 223.316 204.124 229.554" stroke="#242424" stroke-width="3" stroke-linecap="round"/>
<path d="M218.382 233.473C216.838 232.711 217.092 230.534 218.763 230.085C219.366 229.923 220.22 230.051 220.372 230.784C220.633 232.038 220.055 233.118 218.787 233.273C218.046 233.363 216.876 233.093 217.434 232.093C217.676 231.66 218.51 230.78 218.989 230.66C219.349 230.571 219.81 231.062 219.785 231.402C219.766 231.663 219.499 231.693 219.3 231.775" stroke="#242424" stroke-width="3" stroke-linecap="round"/>
<path d="M237.271 221.97C236.678 222.126 234.694 222.003 235.404 221.057C235.874 220.43 236.852 218.895 237.82 219.328C239.161 219.927 238.558 221.869 237.493 222.386C236.636 222.802 236.486 222.995 235.977 221.957C235.756 221.505 235.53 220.476 235.775 220.28C236.349 219.82 237.886 219.224 237.823 220.592C237.784 221.444 236.848 221.385 236.216 221.291C235.406 221.171 236.143 220.39 236.385 220.077" stroke="#242424" stroke-width="3" stroke-linecap="round"/>
<path d="M254.615 178.006C253.559 179.326 252.438 180.61 251.641 182.089C251.435 182.47 251.071 182.812 250.8 183.151C250.443 183.597 250.178 184.115 249.811 184.574" stroke="#242424" stroke-width="3" stroke-linecap="round"/>
<path d="M260.052 177.576C258.772 177.721 257.48 177.795 256.21 177.939C255.863 177.978 254.889 178.175 254.834 177.696C254.726 176.74 254.119 175.885 253.943 174.952C253.902 174.732 253.726 174.296 253.613 174.105C253.485 173.887 253.465 173.614 253.333 173.412" stroke="#242424" stroke-width="3" stroke-linecap="round"/>
<g filter="url(#filter2_ii_2322_6226)">
<ellipse cx="91.4606" cy="156.222" rx="69.0215" ry="69.0557" fill="#6892FF"/>
</g>
<path d="M125.97 141.251C126.137 142.095 127.06 143.091 127.5 143.786C128.614 145.546 129.532 147.506 130.721 149.201C131.665 150.546 132.431 151.764 133.179 153.091C133.598 153.834 132.51 153.626 132.006 153.487C131.301 153.292 130.217 153.592 129.499 153.674C127.962 153.851 126.454 154.196 124.899 154.345" stroke="#242424" stroke-width="3" stroke-linecap="round"/>
<path d="M136.984 165.298C135.197 168.863 133.216 171.802 128.807 171.847C125.981 171.875 122.045 169.302 121.328 166.626" stroke="#242424" stroke-width="3" stroke-linecap="round"/>
<path d="M35.0349 102.726C36.4531 104.145 37.9447 105.512 39.0796 107.152C39.3721 107.575 39.8469 107.93 40.2112 108.295C40.6899 108.774 41.0719 109.351 41.5649 109.844" stroke="#242424" stroke-width="3" stroke-linecap="round"/>
<ellipse rx="12.6519" ry="6.48959" transform="matrix(0.918855 -0.394595 0.394265 0.918997 100.527 156.237)" fill="url(#paint0_radial_2322_6226)"/>
<ellipse rx="9.86173" ry="6.48955" transform="matrix(0.912039 -0.410104 0.409766 0.912191 144.472 133.373)" fill="url(#paint1_radial_2322_6226)"/>
<path d="M108.186 130.219C107.252 132.039 109.025 133.942 110.933 133.19C111.622 132.919 112.345 132.192 111.974 131.383C111.341 130 110.03 129.376 108.714 130.124C107.944 130.562 107.019 131.647 108.254 132.209C108.789 132.452 110.203 132.704 110.743 132.48C111.149 132.311 111.244 131.515 110.98 131.207C110.778 130.971 110.503 131.132 110.256 131.194" stroke="#242424" stroke-width="3" stroke-linecap="round"/>
<path d="M123.407 123.759C122.733 124.029 120.928 125.549 122.271 125.952C123.159 126.218 125.17 126.995 125.788 125.897C126.645 124.376 124.704 122.945 123.326 123.204C122.217 123.412 121.937 123.333 122.183 124.686C122.29 125.274 122.798 126.418 123.17 126.432C124.041 126.466 125.924 125.949 124.902 124.686C124.266 123.899 123.415 124.617 122.879 125.153C122.192 125.841 123.444 126.066 123.894 126.195" stroke="#242424" stroke-width="3" stroke-linecap="round"/>
<path d="M28.5775 102.948C30.1035 102.948 31.6351 102.862 33.149 102.862C33.5623 102.862 34.7362 102.964 34.7362 102.391C34.7362 101.248 35.3372 100.155 35.4205 99.0301C35.4402 98.7639 35.589 98.2252 35.6961 97.9841C35.8177 97.7104 35.8053 97.3852 35.9337 97.1283" stroke="#242424" stroke-width="3" stroke-linecap="round"/>
<g filter="url(#filter3_dii_2322_6226)">
<ellipse rx="61.7791" ry="61.5716" transform="matrix(0.999924 -0.0167783 0.0164377 0.9998 278.369 160.989)" fill="#FFCD4D"/>
</g>
<path d="M246.026 139.117C246.258 153.21 235.944 164.596 223.248 164.809C210.552 165.022 199.87 153.988 199.638 139.896C199.407 125.803 209.72 114.416 222.416 114.203C235.112 113.99 245.794 125.024 246.026 139.117Z" stroke="#242424" stroke-width="3"/>
<path d="M308.698 143.41C308.928 157.363 297.625 168.905 283.405 169.144C269.185 169.382 257.509 158.226 257.28 144.273C257.05 130.319 268.353 118.777 282.573 118.539C296.793 118.3 308.469 129.457 308.698 143.41Z" stroke="#242424" stroke-width="3"/>
<path d="M246.389 142.832C247.376 142.815 247.458 142.813 248.443 142.88C250.661 142.832 251.776 142.861 253.429 142.833C254.31 142.818 255.152 142.968 256.061 142.953" stroke="#242424" stroke-width="3" stroke-linecap="round"/>
<path d="M308.641 148.432C309.897 149.641 311.797 149.424 313.423 149.78C314.74 150.069 316.209 150.236 317.552 150.261C318.58 150.28 319.582 150.447 320.585 150.43C321.345 150.417 322.151 150.299 322.808 150.612" stroke="#242424" stroke-width="3" stroke-linecap="round"/>
<path d="M198.968 138.798C196.617 138.837 194.28 138.276 192.103 137.593" stroke="#242424" stroke-width="3" stroke-linecap="round"/>
<path d="M231.943 139.859C231.376 139.939 231.52 140.973 231.526 141.357C231.54 142.181 231.791 142.464 232.387 142.981C233.598 144.031 234.409 143.668 235.641 143.098C238.317 141.858 235.361 137.778 233.133 138.31C231.885 138.609 231.377 140.619 232.093 141.507C232.321 141.789 233.278 142.566 233.63 142.459C234.194 142.288 233.953 141.181 233.946 140.754C233.94 140.433 233.492 139.529 233.223 140.057C232.811 140.864 232.608 141.921 233.205 142.686C233.644 143.25 234.328 142.84 234.648 142.454C235.248 141.734 234.589 140.733 234.394 141.138" stroke="#242424" stroke-width="3" stroke-linecap="round"/>
<path d="M266.583 142.081C266.343 142.927 265.061 143.546 265.078 144.576C265.085 144.994 265.693 146.901 266 146.932C266.772 147.01 268.58 147.385 269.035 146.441C269.377 145.73 269.029 144.388 268.599 143.808C266.842 141.441 264.779 144.889 266.434 146.485C267.003 147.033 268.805 147.183 269.255 146.438C269.814 145.513 269.402 144.379 268.705 143.574C268.135 142.914 267.693 142.702 266.71 143.081C265.188 143.669 265.924 144.533 266.639 145.479C267.165 146.175 268.46 146.395 269.187 145.999C270.388 145.343 270.254 144.118 269.468 142.962C267.955 140.737 266.151 142.663 266.186 144.838C266.204 145.924 268.295 146.013 269.064 146.001C270.011 145.985 269.693 144.392 269.482 143.793" stroke="#242424" stroke-width="3" stroke-linecap="round"/>
<ellipse rx="12.0991" ry="6.18254" transform="matrix(0.999924 -0.0167767 0.0164391 0.9998 301.463 170.351)" fill="url(#paint2_radial_2322_6226)"/>
<ellipse rx="9.20259" ry="6.18693" transform="matrix(0.997973 0.0640812 -0.0648637 0.997866 222.315 169.994)" fill="url(#paint3_radial_2322_6226)"/>
<path d="M248.435 160.981C246.066 163.692 246.009 171.416 251.024 169.094C253.809 167.805 252.782 160.581 249.411 160.638" stroke="#242424" stroke-width="3" stroke-linecap="round"/>
<path d="M135.578 122.351C137.993 122.619 140.645 123.995 143.218 124.359C149.932 125.311 156.888 124.912 163.656 125.336C167.835 125.597 175.061 126.63 178.768 124.08C181.835 121.971 185.647 120.457 187.523 117.078C188.446 115.416 190.4 109.84 189.001 108.04C186.906 105.345 183.646 105.34 181.027 107.008C178.832 108.405 179.016 109.164 177.513 111.527C176.881 112.521 176.967 111.494 176.621 110.802C175.857 109.273 174.189 108.993 172.745 108.542C170.788 107.93 167.515 107.804 166.723 110.578C164.343 118.912 172.259 120.754 178.238 123.745C181.587 125.421 185.624 126.535 189.168 127.874C192.683 129.203 198.438 129.98 201.213 132.505C202.488 133.664 205.578 135.159 207.236 135.797C209.194 136.55 211.144 137.8 213.37 137.917C217.817 138.151 221.982 138.419 226.419 138.419" stroke="white" stroke-width="3" stroke-linecap="round"/>
</g>
<path d="M180.605 47.9881L180.999 48.4913L181.392 47.9881C192.42 33.8947 207.797 23.4811 225.348 18.2262C242.899 12.9712 261.73 13.1425 279.173 18.7157C296.617 24.2889 311.785 34.9802 322.531 49.2714C333.277 63.5623 339.058 80.729 339.058 98.3399C339.058 155.227 309.232 199.514 274.512 230.612C239.844 261.665 200.36 279.509 180.999 283.582C161.638 279.509 122.153 261.665 87.4848 230.612C52.7652 199.514 22.9391 155.227 22.9391 98.3399C22.9391 80.729 28.7199 63.5623 39.4661 49.2714C50.2126 34.9802 65.3805 24.2889 82.8238 18.7157C100.267 13.1425 119.099 12.9712 136.649 18.2262C154.2 23.4811 169.577 33.8947 180.605 47.9881Z" stroke="url(#paint4_linear_2322_6226)"/>
<defs>
<filter id="filter0_i_2322_6226" x="22.4391" y="13.9066" width="317.119" height="274.187" filterUnits="userSpaceOnUse" color-interpolation-filters="sRGB">
<feFlood flood-opacity="0" result="BackgroundImageFix"/>
<feBlend mode="normal" in="SourceGraphic" in2="BackgroundImageFix" result="shape"/>
<feColorMatrix in="SourceAlpha" type="matrix" values="0 0 0 0 0 0 0 0 0 0 0 0 0 0 0 0 0 0 127 0" result="hardAlpha"/>
<feOffset dy="4"/>
<feGaussianBlur stdDeviation="10"/>
<feComposite in2="hardAlpha" operator="arithmetic" k2="-1" k3="1"/>
<feColorMatrix type="matrix" values="0 0 0 0 0 0 0 0 0 0 0 0 0 0 0 0 0 0 0.3 0"/>
<feBlend mode="normal" in2="shape" result="effect1_innerShadow_2322_6226"/>
</filter>
<filter id="filter1_d_2322_6226" x="153.942" y="166.573" width="156.51" height="156.162" filterUnits="userSpaceOnUse" color-interpolation-filters="sRGB">
<feFlood flood-opacity="0" result="BackgroundImageFix"/>
<feColorMatrix in="SourceAlpha" type="matrix" values="0 0 0 0 0 0 0 0 0 0 0 0 0 0 0 0 0 0 127 0" result="hardAlpha"/>
<feOffset dy="4"/>
<feGaussianBlur stdDeviation="10"/>
<feComposite in2="hardAlpha" operator="out"/>
<feColorMatrix type="matrix" values="0 0 0 0 0 0 0 0 0 0 0 0 0 0 0 0 0 0 0.25 0"/>
<feBlend mode="normal" in2="BackgroundImageFix" result="effect1_dropShadow_2322_6226"/>
<feBlend mode="normal" in="SourceGraphic" in2="effect1_dropShadow_2322_6226" result="shape"/>
</filter>
<filter id="filter2_ii_2322_6226" x="22.4391" y="77.1664" width="138.043" height="158.111" filterUnits="userSpaceOnUse" color-interpolation-filters="sRGB">
<feFlood flood-opacity="0" result="BackgroundImageFix"/>
<feBlend mode="normal" in="SourceGraphic" in2="BackgroundImageFix" result="shape"/>
<feColorMatrix in="SourceAlpha" type="matrix" values="0 0 0 0 0 0 0 0 0 0 0 0 0 0 0 0 0 0 127 0" result="hardAlpha"/>
<feOffset dy="10"/>
<feGaussianBlur stdDeviation="5"/>
<feComposite in2="hardAlpha" operator="arithmetic" k2="-1" k3="1"/>
<feColorMatrix type="matrix" values="0 0 0 0 1 0 0 0 0 1 0 0 0 0 1 0 0 0 0.1 0"/>
<feBlend mode="normal" in2="shape" result="effect1_innerShadow_2322_6226"/>
<feColorMatrix in="SourceAlpha" type="matrix" values="0 0 0 0 0 0 0 0 0 0 0 0 0 0 0 0 0 0 127 0" result="hardAlpha"/>
<feOffset dy="-10"/>
<feGaussianBlur stdDeviation="10"/>
<feComposite in2="hardAlpha" operator="arithmetic" k2="-1" k3="1"/>
<feColorMatrix type="matrix" values="0 0 0 0 0 0 0 0 0 0.22 0 0 0 0 1 0 0 0 0.3 0"/>
<feBlend mode="normal" in2="effect1_innerShadow_2322_6226" result="effect2_innerShadow_2322_6226"/>
</filter>
<filter id="filter3_dii_2322_6226" x="196.586" y="83.4213" width="163.566" height="163.136" filterUnits="userSpaceOnUse" color-interpolation-filters="sRGB">
<feFlood flood-opacity="0" result="BackgroundImageFix"/>
<feColorMatrix in="SourceAlpha" type="matrix" values="0 0 0 0 0 0 0 0 0 0 0 0 0 0 0 0 0 0 127 0" result="hardAlpha"/>
<feOffset dy="4"/>
<feGaussianBlur stdDeviation="10"/>
<feComposite in2="hardAlpha" operator="out"/>
<feColorMatrix type="matrix" values="0 0 0 0 0 0 0 0 0 0 0 0 0 0 0 0 0 0 0.25 0"/>
<feBlend mode="normal" in2="BackgroundImageFix" result="effect1_dropShadow_2322_6226"/>
<feBlend mode="normal" in="SourceGraphic" in2="effect1_dropShadow_2322_6226" result="shape"/>
<feColorMatrix in="SourceAlpha" type="matrix" values="0 0 0 0 0 0 0 0 0 0 0 0 0 0 0 0 0 0 127 0" result="hardAlpha"/>
<feOffset dy="10"/>
<feGaussianBlur stdDeviation="5"/>
<feComposite in2="hardAlpha" operator="arithmetic" k2="-1" k3="1"/>
<feColorMatrix type="matrix" values="0 0 0 0 1 0 0 0 0 1 0 0 0 0 1 0 0 0 0.1 0"/>
<feBlend mode="normal" in2="shape" result="effect2_innerShadow_2322_6226"/>
<feColorMatrix in="SourceAlpha" type="matrix" values="0 0 0 0 0 0 0 0 0 0 0 0 0 0 0 0 0 0 127 0" result="hardAlpha"/>
<feOffset dy="-10"/>
<feGaussianBlur stdDeviation="5"/>
<feComposite in2="hardAlpha" operator="arithmetic" k2="-1" k3="1"/>
<feColorMatrix type="matrix" values="0 0 0 0 1 0 0 0 0 0.42 0 0 0 0 0 0 0 0 0.3 0"/>
<feBlend mode="normal" in2="effect2_innerShadow_2322_6226" result="effect3_innerShadow_2322_6226"/>
</filter>
<radialGradient id="paint0_radial_2322_6226" cx="0" cy="0" r="1" gradientUnits="userSpaceOnUse" gradientTransform="translate(12.6519 6.48959) rotate(90) scale(6.48959 12.6519)">
<stop stop-color="#F76159"/>
<stop offset="1" stop-color="#F76159" stop-opacity="0"/>
</radialGradient>
<radialGradient id="paint1_radial_2322_6226" cx="0" cy="0" r="1" gradientUnits="userSpaceOnUse" gradientTransform="translate(9.86173 6.48955) rotate(90) scale(6.48955 9.86173)">
<stop stop-color="#F76159"/>
<stop offset="1" stop-color="#F76159" stop-opacity="0"/>
</radialGradient>
<radialGradient id="paint2_radial_2322_6226" cx="0" cy="0" r="1" gradientUnits="userSpaceOnUse" gradientTransform="translate(12.0991 6.18254) rotate(90) scale(6.18254 12.0991)">
<stop stop-color="#F76159"/>
<stop offset="1" stop-color="#F76159" stop-opacity="0"/>
</radialGradient>
<radialGradient id="paint3_radial_2322_6226" cx="0" cy="0" r="1" gradientUnits="userSpaceOnUse" gradientTransform="translate(9.20259 6.18693) rotate(90) scale(6.18693 9.20259)">
<stop stop-color="#F76159"/>
<stop offset="1" stop-color="#F76159" stop-opacity="0"/>
</radialGradient>
<linearGradient id="paint4_linear_2322_6226" x1="180.999" y1="13.9066" x2="180.999" y2="284.093" gradientUnits="userSpaceOnUse">
<stop stop-color="white" stop-opacity="0.1"/>
<stop offset="1" stop-color="white" stop-opacity="0"/>
</linearGradient>
</defs>
</svg>
