<svg width="296" height="237" viewBox="0 0 296 237" fill="none" xmlns="http://www.w3.org/2000/svg">
<g filter="url(#filter0_ii_2609_6367)">
<circle cx="149.23" cy="87.0565" r="64.2093" fill="#DFDFDF"/>
</g>
<ellipse cx="183.793" cy="96.6147" rx="12.5764" ry="6.44869" fill="url(#paint0_radial_2609_6367)"/>
<ellipse cx="89.4084" cy="89.5777" rx="9.56815" ry="6.44869" transform="rotate(4.6482 89.4084 89.5777)" fill="url(#paint1_radial_2609_6367)"/>
<path d="M126.071 56.0484C126.071 70.7828 115.133 82.5043 101.905 82.5043C88.6758 82.5043 77.738 70.7828 77.738 56.0484C77.738 41.3139 88.6758 29.5924 101.905 29.5924C115.133 29.5924 126.071 41.3139 126.071 56.0484Z" stroke="#6F6F6F" stroke-width="3"/>
<path d="M191.137 61.6095C191.137 76.2044 179.163 88.0655 164.355 88.0655C149.548 88.0655 137.573 76.2044 137.573 61.6095C137.573 47.0146 149.548 35.1536 164.355 35.1536C179.163 35.1536 191.137 47.0146 191.137 61.6095Z" stroke="#6F6F6F" stroke-width="3"/>
<path d="M125.443 59.7054C126.47 59.7054 127.44 59.9224 128.462 60.0092C130.174 60.1546 131.926 60.0472 133.645 60.0472C134.561 60.0472 135.434 60.218 136.379 60.218" stroke="#6F6F6F" stroke-width="3" stroke-linecap="round"/>
<path d="M190.937 66.833C192.221 68.117 194.2 67.9237 195.884 68.3246C197.248 68.6494 198.771 68.8485 200.167 68.8983C201.236 68.9365 202.274 69.1278 203.316 69.1278C204.107 69.1278 204.946 69.0185 205.624 69.3573" stroke="#6F6F6F" stroke-width="3" stroke-linecap="round"/>
<path d="M77.1137 54.8997C74.6701 54.8997 72.25 54.2728 69.9999 53.5228" stroke="#6F6F6F" stroke-width="3" stroke-linecap="round"/>
<path d="M111.37 56.5732C110.779 56.6471 110.911 57.7281 110.911 58.1285C110.911 58.9874 111.167 59.2867 111.778 59.8368C113.018 60.9526 113.867 60.5886 115.156 60.0153C117.958 58.77 114.957 54.4629 112.632 54.9796C111.331 55.2687 110.768 57.3566 111.498 58.2942C111.73 58.5926 112.71 59.4193 113.078 59.3141C113.667 59.1461 113.435 57.9874 113.435 57.5421C113.435 57.2066 112.985 56.2564 112.696 56.8026C112.254 57.6371 112.026 58.7349 112.632 59.5436C113.079 60.1396 113.797 59.7233 114.136 59.3269C114.771 58.5861 114.104 57.5311 113.894 57.95" stroke="#6F6F6F" stroke-width="3" stroke-linecap="round"/>
<path d="M147.333 59.4904C147.069 60.3685 145.726 60.9919 145.726 62.0657C145.726 62.502 146.325 64.5014 146.644 64.5389C147.446 64.6332 149.318 65.0567 149.806 64.08C150.174 63.3447 149.835 61.9388 149.398 61.3262C147.613 58.8277 145.41 62.3867 147.103 64.08C147.685 64.6614 149.555 64.8492 150.035 64.08C150.632 63.1258 150.223 61.9364 149.513 61.084C148.931 60.3865 148.476 60.157 147.447 60.5358C145.856 61.122 146.606 62.0359 147.333 63.0346C147.867 63.7697 149.21 64.022 149.972 63.621C151.231 62.9581 151.113 61.6786 150.316 60.4593C148.782 58.1129 146.874 60.0901 146.874 62.3589C146.874 63.4907 149.045 63.621 149.844 63.621C150.828 63.621 150.525 61.9551 150.316 61.3262" stroke="#6F6F6F" stroke-width="3" stroke-linecap="round"/>
<path d="M123.735 84.8463C122.907 84.8463 122.235 84.1748 122.235 83.3463C122.235 82.5179 122.907 81.8463 123.735 81.8463L123.735 84.8463ZM129.62 82.2784L129.441 83.7677L129.62 82.2784ZM132.682 82.8139L132.981 81.3441L132.682 82.8139ZM141.022 85.6711C141.747 86.072 142.009 86.9847 141.608 87.7097C141.208 88.4346 140.295 88.6972 139.57 88.2962L141.022 85.6711ZM123.735 81.8463C124.32 81.8463 125.055 81.6163 126.196 81.2866C127.184 81.0013 128.511 80.6348 129.798 80.7891L129.441 83.7677C128.845 83.6963 128.085 83.8639 127.029 84.1688C126.126 84.4295 124.86 84.8463 123.735 84.8463L123.735 81.8463ZM129.798 80.7891C131.126 80.9482 131.636 81.07 132.981 81.3441L132.382 84.2837C131.012 84.0045 130.626 83.9097 129.441 83.7677L129.798 80.7891ZM132.981 81.3441C134.484 81.6501 136.132 82.5784 137.495 83.4267C139.004 84.3659 140.126 85.1754 141.022 85.6711L139.57 88.2962C138.619 87.7701 137.142 86.7408 135.909 85.9736C134.531 85.1154 133.296 84.4698 132.382 84.2837L132.981 81.3441Z" fill="#6F6F6F"/>
<path d="M82.8856 100.176C91.1285 102.328 99.0183 105.935 110.488 102.156C124.825 97.4331 126.462 114.217 121.588 117.895C116.715 121.573 110.152 126.89 89.1198 124.198L82.3538 123.128" stroke="#6F6F6F" stroke-width="3" stroke-linecap="round"/>
<path d="M177.628 105.054C169.492 107.008 150.421 109.902 139.227 105.853C125.233 100.791 123.313 117.525 128.031 121.317C132.749 125.109 139.096 130.579 159.803 128.39L176.899 126.06" stroke="#6F6F6F" stroke-width="3" stroke-linecap="round"/>
<path d="M199.969 40.8665C199.275 41.7009 199.154 44.1832 199.105 45.495C199.022 47.6839 197.598 49.3779 196.931 51.222C195.98 53.8487 193.521 63.4368 192.949 66.3005" stroke="#6F6F6F" stroke-width="3" stroke-linecap="round"/>
<path d="M210.168 42.8243C213.501 42.2107 219.187 39.1506 215.26 31.8195C212.518 26.6988 208.288 28.4372 204.965 31.4096C206.407 26.941 200.961 23.3776 198.191 22.7465C190.477 21.4982 190.858 28.6615 191.817 33.75C188.83 33.4321 187.087 33.9363 186.139 35.076L185.196 36.6072C184.287 39.4636 183.675 45.8422 188.504 48.5057C193.333 51.1692 198.069 44.6098 199.833 40.9971C199.691 43.4752 199.765 49.4638 202.647 51.862C205.051 53.8619 205.91 54.8607 212.442 51.4892C217.667 48.792 213.103 44.5888 210.168 42.8243Z" fill="#B0E519"/>
<path d="M192.696 33.9867C191.823 33.0801 191.628 30.7851 191.517 29.5719C191.41 28.4039 191.765 27.038 192.176 25.9491C193.026 23.6974 194.093 22.9782 196.48 22.3795C198.424 21.8921 200.721 23.2976 202.14 24.4786C203.705 25.7808 203.987 26.9429 204.757 28.6996" stroke="#6F6F6F" stroke-width="2.5" stroke-linecap="round"/>
<path d="M202.626 32.7988C202.341 32.495 204.087 30.4284 204.403 30.0494C205.165 29.1327 206.424 28.201 207.624 28.0194C209.676 27.7091 211.768 28.4032 213.357 29.7247C214.005 30.2643 214.711 30.7716 215.247 31.4256C215.735 32.0212 216.122 32.3244 216.408 33.2709C216.735 34.3557 216.857 35.3255 216.778 36.607C216.602 36.9025 216.606 37.6368 216.09 38.2565C215.462 39.1469 214.493 39.9984 214.158 40.2576C212.997 41.1549 211.682 41.5323 210.674 41.9744" stroke="#6F6F6F" stroke-width="2.5" stroke-linecap="round"/>
<path d="M199.469 41.8954C198.863 42.8138 199.259 45.3253 199.47 46.692C199.88 48.1592 199.809 48.6229 200.434 49.6941C200.748 50.2337 201.311 51.1838 201.8 51.5908C202.497 52.1705 203.536 52.8865 204.36 53.2713C205.21 53.6677 205.868 53.6579 206.718 53.7824C207.433 53.8871 208.405 53.7014 209.12 53.5631C210.002 53.3925 210.339 53.0759 211.545 52.5013C212.383 52.0226 212.76 52.058 214.219 50.1151C215.062 48.0381 215.183 47.9912 214.808 46.769C214.464 45.6458 213.922 45.101 212.783 44.0054C211.643 42.9098 211.121 42.7027 210.253 41.9805" stroke="#6F6F6F" stroke-width="2.5" stroke-linecap="round"/>
<path d="M199.516 41.7198C198.235 42.7836 196.591 45.3484 195.282 46.2412C194.341 46.8831 193.218 47.5826 192.131 47.9887C191.174 48.3465 189.181 48.2982 187.955 47.6637C186.773 47.0526 186.112 46.2064 185.489 45.1016C184.823 44.1197 184.55 42.9664 184.275 41.7086C184.057 40.7173 184.717 38.9173 185.194 38.0734C185.687 37.2008 186.148 36.2559 187.009 35.4679C188 34.6731 188.386 34.5228 189.378 34.2902" stroke="#6F6F6F" stroke-width="2.5" stroke-linecap="round"/>
<path d="M58.0109 195.34C56.6309 195.34 55.7109 193.88 55.7109 191.14C55.7109 188.42 56.6309 186.96 58.0109 186.96C59.3709 186.96 60.3109 188.42 60.3109 191.14C60.3109 193.88 59.3709 195.34 58.0109 195.34ZM58.0109 184.58C55.2109 184.58 53.1709 187.1 53.1709 191.14C53.1709 195.2 55.2109 197.74 58.0109 197.74C60.7909 197.74 62.8509 195.2 62.8509 191.14C62.8509 187.1 60.7909 184.58 58.0109 184.58ZM70.1709 190.24H67.4909V183.3H64.8509V201.72H67.4909V192.42H70.1709V190.24ZM82.4494 191.76C79.5294 190.8 78.1694 188.64 78.1294 186.48H81.7694V184.4H71.7494V186.48H75.4494C75.4094 188.76 74.0494 191.1 71.0494 192.06L72.3894 194.12C74.5294 193.42 76.0094 191.98 76.8294 190.18C77.6694 191.82 79.0694 193.14 81.1094 193.78L82.4494 191.76ZM73.7294 197.32H83.6094V201.74H86.2694V195.22H73.7294V197.32ZM83.6094 183.3V194.4H86.2694V183.3H83.6094ZM94.4191 189.82C97.9591 189.58 100.259 188.46 101.219 186.86C102.179 188.46 104.499 189.58 108.039 189.82L108.859 187.86C105.539 187.66 103.739 186.76 103.199 185.76H108.059V183.76H94.4191V185.76H99.2391C98.6991 186.76 96.8991 187.66 93.5991 187.86L94.4191 189.82ZM101.179 200.04C99.2591 200.04 98.2991 199.84 98.2991 199.36C98.2991 198.86 99.2591 198.66 101.179 198.66C103.119 198.66 104.099 198.86 104.099 199.36C104.099 199.84 103.119 200.04 101.179 200.04ZM101.179 196.92C97.6391 196.92 95.5791 197.78 95.5791 199.36C95.5791 200.94 97.6391 201.78 101.179 201.78C104.759 201.78 106.819 200.94 106.819 199.36C106.819 197.78 104.759 196.92 101.179 196.92ZM102.519 193.12H99.8791V194.42H94.3991V196.38H108.019V194.42H102.519V193.12ZM102.519 190.48V188.8H99.8791V190.48H92.8991V192.54H109.599V190.48H102.519ZM115.738 195.34C114.358 195.34 113.438 193.88 113.438 191.14C113.438 188.42 114.358 186.96 115.738 186.96C117.098 186.96 118.038 188.42 118.038 191.14C118.038 193.88 117.098 195.34 115.738 195.34ZM115.738 184.58C112.938 184.58 110.898 187.1 110.898 191.14C110.898 195.2 112.938 197.74 115.738 197.74C118.518 197.74 120.578 195.2 120.578 191.14C120.578 187.1 118.518 184.58 115.738 184.58ZM127.898 190.24H125.218V183.3H122.578V201.72H125.218V192.42H127.898V190.24ZM134.996 193.92C135.636 194.04 136.296 194.1 137.016 194.1C137.736 194.1 138.416 194.04 139.056 193.92V197.44H134.996V193.92ZM137.016 186.28C139.576 186.28 141.296 187.32 141.296 189.16C141.296 190.98 139.576 192.04 137.016 192.04C134.456 192.04 132.756 190.98 132.756 189.16C132.756 187.32 134.456 186.28 137.016 186.28ZM141.676 197.44V192.94C143.056 192.08 143.896 190.76 143.896 189.16C143.896 186.14 140.996 184.2 137.016 184.2C133.056 184.2 130.156 186.14 130.156 189.16C130.136 190.76 130.976 192.08 132.376 192.94V197.44H128.696V199.58H145.376V197.44H141.676ZM158.634 186.3H148.674V190.7H161.554V188.92H151.274V187.96H161.234V183.62H148.634V185.4H158.634V186.3ZM151.114 198.78H161.294V194.4H148.474V196.18H158.674V197.12H148.494V201.56H161.794V199.78H151.114V198.78ZM146.594 191.58V193.48H163.274V191.58H146.594ZM179.384 185.24H175.264V183.28H172.604V185.24H168.524V187.3H179.364L179.384 185.24ZM171.944 191.5C171.944 190.5 172.764 189.96 173.944 189.96C175.104 189.96 175.944 190.5 175.944 191.5C175.944 192.52 175.104 193.06 173.944 193.06C172.764 193.06 171.944 192.52 171.944 191.5ZM178.464 191.5C178.464 189.42 176.584 187.96 173.944 187.96C171.304 187.96 169.424 189.42 169.424 191.5C169.424 193.62 171.304 195.06 173.944 195.06C176.584 195.06 178.464 193.62 178.464 191.5ZM173.784 196.06H171.144V201.4H183.684V199.3H173.784V196.06ZM183.024 188.92V183.3H180.384V197.08H183.024V191.1H185.464V188.92H183.024ZM201.314 191.46C198.414 190.56 197.174 188.4 197.174 186.18V184.3H194.494V185.96C194.494 188.46 193.254 190.92 190.174 191.94L191.554 194.02C193.654 193.3 195.074 191.88 195.874 190.06C196.654 191.62 197.994 192.86 199.934 193.5L201.314 191.46ZM198.934 199.68C196.574 199.68 195.314 199.2 195.314 198.16C195.314 197.14 196.574 196.66 198.934 196.66C201.274 196.66 202.534 197.14 202.534 198.16C202.534 199.2 201.274 199.68 198.934 199.68ZM198.934 194.62C195.094 194.62 192.694 195.94 192.694 198.16C192.694 200.4 195.094 201.72 198.934 201.72C202.754 201.72 205.154 200.4 205.154 198.16C205.154 195.94 202.754 194.62 198.934 194.62ZM204.954 187.58V183.32H202.314V194.2H204.954V189.76H207.394V187.58H204.954ZM211.472 187.56H215.692V185.42H208.872V197.58H210.152C212.512 197.58 214.472 197.5 216.712 197.08L216.512 194.94C214.752 195.26 213.192 195.36 211.472 195.4V187.56ZM221.652 183.28V190.38H219.992V183.64H217.532V200.86H219.992V192.5H221.652V201.72H224.152V183.28H221.652ZM227.091 185.18V187.32H233.111C232.631 191.4 230.351 194.32 226.071 196.52L227.551 198.54C233.671 195.44 235.771 190.7 235.771 185.18H227.091ZM243.251 190.32H240.671V183.28H238.031V201.68H240.671V192.5H243.251V190.32ZM124.522 218.32C124.522 216.96 125.502 216.16 126.842 216.16C128.202 216.16 129.182 216.96 129.182 218.32C129.182 219.7 128.202 220.5 126.842 220.5C125.502 220.5 124.522 219.7 124.522 218.32ZM134.522 219.38V223.04H137.162V213.3H134.522V217.24H131.562C131.062 215.28 129.202 213.98 126.842 213.98C124.082 213.98 122.002 215.8 122.002 218.32C122.002 220.86 124.082 222.68 126.842 222.68C129.202 222.68 131.082 221.36 131.582 219.38H134.522ZM128.082 229.54H126.222V227.8H128.082V229.54ZM135.962 223.94H133.362V225.32C133.362 226.98 132.522 228.68 130.502 229.62V224.1H128.082V225.9H126.222V224.1H123.782V231.5H130.502V230.12L131.542 231.7C133.022 231.12 134.022 230.08 134.622 228.82C135.222 230.1 136.242 231.14 137.782 231.7L139.082 229.74C136.822 228.96 135.962 227.22 135.962 225.32V223.94ZM144.701 225.34C143.361 225.34 142.461 223.88 142.461 221.14C142.461 218.42 143.361 216.96 144.701 216.96C146.061 216.96 146.961 218.42 146.961 221.14C146.961 223.88 146.061 225.34 144.701 225.34ZM152.481 213.28V219.92H149.401C149.041 216.6 147.181 214.58 144.701 214.58C141.961 214.58 139.941 217.1 139.941 221.14C139.941 225.2 141.961 227.74 144.701 227.74C147.261 227.74 149.141 225.58 149.421 222.06H152.481V231.76H155.121V213.28H152.481ZM163.859 223.92C164.499 224.04 165.159 224.1 165.879 224.1C166.599 224.1 167.279 224.04 167.919 223.92V227.44H163.859V223.92ZM165.879 216.28C168.439 216.28 170.159 217.32 170.159 219.16C170.159 220.98 168.439 222.04 165.879 222.04C163.319 222.04 161.619 220.98 161.619 219.16C161.619 217.32 163.319 216.28 165.879 216.28ZM170.539 227.44V222.94C171.919 222.08 172.759 220.76 172.759 219.16C172.759 216.14 169.859 214.2 165.879 214.2C161.919 214.2 159.019 216.14 159.019 219.16C158.999 220.76 159.839 222.08 161.239 222.94V227.44H157.559V229.58H174.239V227.44H170.539Z" fill="#8B8B8B"/>
<defs>
<filter id="filter0_ii_2609_6367" x="85.0208" y="12.8472" width="128.419" height="142.419" filterUnits="userSpaceOnUse" color-interpolation-filters="sRGB">
<feFlood flood-opacity="0" result="BackgroundImageFix"/>
<feBlend mode="normal" in="SourceGraphic" in2="BackgroundImageFix" result="shape"/>
<feColorMatrix in="SourceAlpha" type="matrix" values="0 0 0 0 0 0 0 0 0 0 0 0 0 0 0 0 0 0 127 0" result="hardAlpha"/>
<feOffset dy="4"/>
<feGaussianBlur stdDeviation="5"/>
<feComposite in2="hardAlpha" operator="arithmetic" k2="-1" k3="1"/>
<feColorMatrix type="matrix" values="0 0 0 0 1 0 0 0 0 1 0 0 0 0 1 0 0 0 0.25 0"/>
<feBlend mode="normal" in2="shape" result="effect1_innerShadow_2609_6367"/>
<feColorMatrix in="SourceAlpha" type="matrix" values="0 0 0 0 0 0 0 0 0 0 0 0 0 0 0 0 0 0 127 0" result="hardAlpha"/>
<feOffset dy="-10"/>
<feGaussianBlur stdDeviation="10"/>
<feComposite in2="hardAlpha" operator="arithmetic" k2="-1" k3="1"/>
<feColorMatrix type="matrix" values="0 0 0 0 0.4 0 0 0 0 0.4 0 0 0 0 0.4 0 0 0 0.3 0"/>
<feBlend mode="normal" in2="effect1_innerShadow_2609_6367" result="effect2_innerShadow_2609_6367"/>
</filter>
<radialGradient id="paint0_radial_2609_6367" cx="0" cy="0" r="1" gradientUnits="userSpaceOnUse" gradientTransform="translate(183.793 96.6147) rotate(90) scale(6.44869 12.5764)">
<stop stop-color="#919191"/>
<stop offset="1" stop-color="#909090" stop-opacity="0"/>
</radialGradient>
<radialGradient id="paint1_radial_2609_6367" cx="0" cy="0" r="1" gradientUnits="userSpaceOnUse" gradientTransform="translate(89.4084 89.5777) rotate(90) scale(6.44869 9.56815)">
<stop stop-color="#919191"/>
<stop offset="1" stop-color="#909090" stop-opacity="0"/>
</radialGradient>
</defs>
</svg>
