<svg width="340" height="340" viewBox="0 0 340 340" fill="none" xmlns="http://www.w3.org/2000/svg">
<path fill-rule="evenodd" clip-rule="evenodd" d="M170 331.5C132.515 323.708 17 262.674 17 152.941C17 135.906 22.6132 119.303 33.0444 105.484C43.4757 91.6647 58.1961 81.3297 75.1206 75.9428C92.0452 70.5559 110.316 70.3904 127.344 75.4696C144.373 80.5488 159.296 90.6153 170 104.243C180.704 90.6153 195.627 80.5488 212.656 75.4696C229.684 70.3904 247.955 70.5559 264.879 75.9428C281.804 81.3297 296.524 91.6647 306.956 105.484C317.387 119.303 323 135.906 323 152.941C323 262.674 207.485 323.708 170 331.5Z" fill="#E3E3E3"/>
<g filter="url(#filter0_ii_2323_6124)">
<circle r="70.2824" transform="matrix(-0.993657 -0.112454 -0.112454 0.993657 160.799 164.398)" fill="#6892FF"/>
</g>
<path d="M199.626 143.065C197.805 159.157 208.302 173.333 222.779 174.971C237.256 176.61 250.655 165.138 252.477 149.046C254.298 132.954 243.801 118.779 229.324 117.14C214.847 115.502 201.447 126.973 199.626 143.065Z" stroke="#242424" stroke-width="3"/>
<path d="M199.998 147.134C198.881 147.007 197.799 147.124 196.677 147.092C194.797 147.04 192.904 146.707 191.035 146.496C190.039 146.383 189.069 146.461 188.041 146.345" stroke="#242424" stroke-width="3" stroke-linecap="round"/>
<path d="M127.888 146.826C126.334 148.065 124.205 147.611 122.325 147.84C120.801 148.025 119.119 148.054 117.595 147.936C116.428 147.846 115.276 147.927 114.142 147.798C113.282 147.701 112.382 147.479 111.604 147.764" stroke="#242424" stroke-width="3" stroke-linecap="round"/>
<path d="M253.156 147.856C255.814 148.157 258.523 147.773 261.063 147.235" stroke="#242424" stroke-width="3" stroke-linecap="round"/>
<path d="M215.691 145.46C216.325 145.614 216.048 146.773 215.999 147.209C215.893 148.143 215.578 148.437 214.845 148.96C213.36 150.021 212.481 149.52 211.149 148.738C208.255 147.039 212.049 142.724 214.514 143.572C215.894 144.046 216.249 146.387 215.34 147.317C215.051 147.613 213.883 148.391 213.495 148.231C212.876 147.976 213.27 146.744 213.325 146.26C213.367 145.895 213.973 144.917 214.221 145.547C214.598 146.509 214.712 147.731 213.953 148.536C213.393 149.129 212.664 148.588 212.343 148.115C211.744 147.231 212.6 146.166 212.776 146.647" stroke="#242424" stroke-width="3" stroke-linecap="round"/>
<path d="M176.218 144.205C176.397 145.192 177.78 146.035 177.648 147.203C177.595 147.678 176.697 149.779 176.346 149.78C175.462 149.784 173.374 150.014 172.963 148.892C172.654 148.047 173.195 146.56 173.746 145.947C175.995 143.449 177.953 147.592 175.903 149.225C175.199 149.786 173.142 149.76 172.714 148.864C172.182 147.753 172.773 146.509 173.651 145.67C174.369 144.983 174.893 144.789 175.965 145.328C177.623 146.161 176.695 147.063 175.782 148.059C175.11 148.793 173.619 148.902 172.839 148.372C171.551 147.496 171.837 146.119 172.854 144.891C174.812 142.528 176.644 144.913 176.364 147.381C176.225 148.612 173.847 148.487 172.978 148.388C171.908 148.267 172.442 146.492 172.748 145.834" stroke="#242424" stroke-width="3" stroke-linecap="round"/>
<ellipse rx="11.753" ry="7.05862" transform="matrix(-0.993657 -0.112454 -0.112454 0.993657 135.618 172.74)" fill="url(#paint0_radial_2323_6124)"/>
<ellipse rx="10.4731" ry="7.05862" transform="matrix(-0.999502 -0.031561 -0.031561 0.999502 223.298 180.747)" fill="url(#paint1_radial_2323_6124)"/>
<path d="M128.173 141.102C126.368 157.055 137.989 171.498 154.171 173.33C170.353 175.161 184.908 163.68 186.713 147.727C188.519 131.773 176.898 117.33 160.716 115.499C144.534 113.667 129.979 125.148 128.173 141.102Z" stroke="#242424" stroke-width="3"/>
<path d="M194.704 167.658C197.088 170.996 196.304 179.778 190.882 176.595C187.871 174.827 189.826 166.731 193.636 167.162" stroke="#242424" stroke-width="3" stroke-linecap="round"/>
<path d="M124.897 94.8302C125.452 96.3737 125.944 97.9534 126.762 99.3642C126.973 99.7279 127.071 100.203 127.214 100.6C127.401 101.121 127.695 101.604 127.888 102.141" stroke="#242424" stroke-width="3" stroke-linecap="round"/>
<path d="M127.31 90.1264C126.778 91.2559 126.182 92.3596 125.655 93.4801C125.511 93.786 125.177 94.6904 124.754 94.491C123.907 94.0928 122.89 94.1574 122.029 93.8274C121.825 93.7494 121.375 93.672 121.159 93.6674C120.914 93.6621 120.678 93.5397 120.443 93.5453" stroke="#242424" stroke-width="3" stroke-linecap="round"/>
<path d="M231.362 185.552C229.506 188.082 228.733 194.631 228.36 198.085C227.738 203.848 223.935 208.992 221.951 214.147C219.125 221.491 214.369 228.183 212.42 235.957" stroke="#242424" stroke-width="3" stroke-linecap="round"/>
<path d="M249.544 187.901C255.352 186.46 265.04 180.452 257.329 167.957C251.943 159.229 242.801 161.188 237.266 166.786C239.324 158.755 231.218 154.625 226.267 153.813C212.538 152.446 213.983 165.029 216.223 173.893C210.925 173.655 207.908 174.732 206.36 176.843L204.864 179.644C203.57 184.776 203.182 196.083 211.98 200.255C220.778 204.427 228.415 192.355 231.134 185.798C231.15 190.181 231.929 200.726 237.267 204.641C241.719 207.906 243.341 209.573 254.488 202.925C263.404 197.607 254.907 190.693 249.544 187.901Z" fill="#B0E519"/>
<path d="M217.8 174.217C216.165 172.713 215.573 168.69 215.246 166.564C214.931 164.517 215.41 162.071 216.016 160.108C217.27 156.048 219.072 154.665 223.216 153.352C226.588 152.283 230.788 154.512 233.417 156.44C236.316 158.566 236.938 160.583 238.485 163.596" stroke="#242424" stroke-width="3" stroke-linecap="round"/>
<path d="M235.17 171.048C234.636 170.543 237.49 166.713 238.005 166.011C239.25 164.313 241.368 162.535 243.463 162.085C247.045 161.317 250.808 162.314 253.749 164.471C254.95 165.352 256.249 166.169 257.265 167.264C258.19 168.261 258.904 168.753 259.509 170.391C260.203 172.267 260.523 173.963 260.523 176.23C260.244 176.77 260.33 178.063 259.488 179.211C258.479 180.848 256.862 182.453 256.299 182.946C254.351 184.653 252.075 185.46 250.346 186.348" stroke="#242424" stroke-width="3" stroke-linecap="round"/>
<path d="M230.589 187.42C229.62 189.104 230.589 193.487 231.109 195.873C231.99 198.414 231.915 199.239 233.131 201.059C233.744 201.976 234.838 203.59 235.744 204.254C237.034 205.2 238.943 206.35 240.438 206.939C241.977 207.545 243.137 207.457 244.648 207.585C245.919 207.692 247.613 207.26 248.857 206.939C250.394 206.543 250.953 205.948 253.017 204.805C254.44 203.871 255.109 203.893 257.47 200.311C258.732 196.56 258.94 196.464 258.147 194.351C257.419 192.408 256.406 191.507 254.279 189.699C252.153 187.892 251.209 187.583 249.601 186.404" stroke="#242424" stroke-width="3" stroke-linecap="round"/>
<path d="M230.655 187.106C228.512 189.119 225.893 193.816 223.682 195.531C222.092 196.764 220.189 198.118 218.318 198.951C216.669 199.685 213.152 199.816 210.922 198.83C208.775 197.881 207.518 196.461 206.301 194.581C205.021 192.923 204.415 190.92 203.793 188.733C203.303 187.009 204.272 183.766 205.021 182.227C205.795 180.636 206.506 178.921 207.937 177.44C210.922 174.086 215.367 174.603 217.09 174.086" stroke="#242424" stroke-width="3" stroke-linecap="round"/>
<defs>
<filter id="filter0_ii_2323_6124" x="90.5107" y="84.1097" width="140.578" height="160.577" filterUnits="userSpaceOnUse" color-interpolation-filters="sRGB">
<feFlood flood-opacity="0" result="BackgroundImageFix"/>
<feBlend mode="normal" in="SourceGraphic" in2="BackgroundImageFix" result="shape"/>
<feColorMatrix in="SourceAlpha" type="matrix" values="0 0 0 0 0 0 0 0 0 0 0 0 0 0 0 0 0 0 127 0" result="hardAlpha"/>
<feOffset dy="-10"/>
<feGaussianBlur stdDeviation="5"/>
<feComposite in2="hardAlpha" operator="arithmetic" k2="-1" k3="1"/>
<feColorMatrix type="matrix" values="0 0 0 0 0.252778 0 0 0 0 0.442071 0 0 0 0 0.933333 0 0 0 1 0"/>
<feBlend mode="normal" in2="shape" result="effect1_innerShadow_2323_6124"/>
<feColorMatrix in="SourceAlpha" type="matrix" values="0 0 0 0 0 0 0 0 0 0 0 0 0 0 0 0 0 0 127 0" result="hardAlpha"/>
<feOffset dy="10"/>
<feGaussianBlur stdDeviation="10"/>
<feComposite in2="hardAlpha" operator="arithmetic" k2="-1" k3="1"/>
<feColorMatrix type="matrix" values="0 0 0 0 1 0 0 0 0 1 0 0 0 0 1 0 0 0 0.1 0"/>
<feBlend mode="normal" in2="effect1_innerShadow_2323_6124" result="effect2_innerShadow_2323_6124"/>
</filter>
<radialGradient id="paint0_radial_2323_6124" cx="0" cy="0" r="1" gradientUnits="userSpaceOnUse" gradientTransform="translate(11.753 7.05862) rotate(90) scale(7.05862 11.753)">
<stop stop-color="#F76159"/>
<stop offset="1" stop-color="#F76159" stop-opacity="0"/>
</radialGradient>
<radialGradient id="paint1_radial_2323_6124" cx="0" cy="0" r="1" gradientUnits="userSpaceOnUse" gradientTransform="translate(10.4731 7.05862) rotate(90) scale(7.05862 10.4731)">
<stop stop-color="#F76159"/>
<stop offset="1" stop-color="#F76159" stop-opacity="0"/>
</radialGradient>
</defs>
</svg>
