<svg width="360" height="352" viewBox="0 0 360 352" fill="none" xmlns="http://www.w3.org/2000/svg">
<g clip-path="url(#clip0_2272_6710)">
<path d="M231.147 273.284C232.245 271.77 232.561 270.393 233.501 269.164C234.112 268.477 234.84 267.867 234.673 266.926C234.547 266.216 237.727 266.404 238.336 266.462C241.289 266.742 244.453 267.058 247.339 267.787C248.543 268.091 249.743 268.42 250.953 268.699C251.488 268.822 251.897 268.654 252.333 268.996C253.142 269.631 253.129 269.546 252.839 270.695C252.613 271.588 252.601 272.562 252.365 273.497C252.113 274.495 251.945 274.076 252.031 275.752C252.062 276.364 252.62 278.115 252.958 278.556C253.574 279.361 254.238 279.815 255.031 280.015C256.37 280.353 257.733 280.882 259.128 280.764C260.361 280.659 261.503 280.294 262.715 280.085C263.919 279.877 264.608 277.645 265.828 277.118C267.048 276.59 267.647 275.918 269.035 275.784C270.007 275.691 271.034 275.64 271.985 275.88C273.172 276.18 274.746 276.71 275.499 277.702C275.898 278.229 276.879 278.462 277.133 279.102C277.859 280.939 278.684 282.75 279.111 284.692C279.374 285.892 279.494 285.491 279.955 289.217C279.569 290.95 279.963 291.964 279.335 294.451C278.707 296.937 277.906 301.228 274.63 301.562C274.169 301.609 273.351 302.15 272.968 302.077C271.966 301.886 271.497 301.039 270.944 300.267C269.254 297.906 268.95 295.404 268.21 292.681C267.874 291.44 268.078 290.093 267.789 288.847C267.708 288.497 266.432 287.372 265.86 288.36C264.311 290.073 263.607 290.567 261.506 290.533C256.151 290.446 250.427 288.383 246.891 284.272C246.072 283.318 245.15 281.914 244.82 280.696C244.51 279.555 244.546 279.472 244 277.931C243.733 277.179 243.439 276.12 242.476 276.559C241.916 276.814 240.219 279.698 239.706 280.12C235.294 286.487 234.153 288.225 232.593 294.402C232.314 295.507 231.08 299.154 229.674 299.275C227.07 299.5 223.802 298.675 221.518 297.32C221.048 297.041 220.411 297.02 219.898 296.846C219.092 296.572 218.298 296.071 217.546 295.668C215.909 294.789 214.387 293.469 213.107 292.157C210.239 289.218 208.755 286.533 209.038 282.35C209.176 280.312 210.125 278.043 211.952 277.086C213.47 276.29 216.187 277.352 217.642 278.107C220.134 279.399 222.016 281.654 223.351 283.99C223.849 284.861 224.174 285.519 224.816 284.412C225.165 283.811 225.537 283.263 225.92 282.665C227.05 280.899 228.053 279.081 229.152 277.273C229.938 275.979 230.242 274.53 231.147 273.284Z" fill="#6892FF"/>
<path d="M234.789 269.952C235.315 269.312 235.222 268.367 234.581 267.841C233.941 267.316 232.996 267.409 232.47 268.049L234.789 269.952ZM231.147 273.284L232.361 274.165L232.361 274.165L231.147 273.284ZM229.152 277.273L230.434 278.051L230.434 278.051L229.152 277.273ZM225.92 282.665L224.656 281.856L225.92 282.665ZM224.816 284.412L226.114 285.165L226.114 285.165L224.816 284.412ZM223.351 283.99L224.654 283.246L224.654 283.246L223.351 283.99ZM217.642 278.107L218.332 276.775L217.642 278.107ZM211.952 277.086L211.255 275.757L211.255 275.757L211.952 277.086ZM209.038 282.35L210.534 282.451L209.038 282.35ZM213.107 292.157L214.181 291.11L214.181 291.11L213.107 292.157ZM217.546 295.668L216.837 296.989L217.546 295.668ZM219.898 296.846L219.416 298.266L219.416 298.266L219.898 296.846ZM221.518 297.32L220.753 298.61L220.753 298.61L221.518 297.32ZM229.674 299.275L229.803 300.77L229.803 300.77L229.674 299.275ZM239.706 280.12L238.752 278.963L238.592 279.095L238.474 279.266L239.706 280.12ZM242.476 276.559L243.098 277.924L243.098 277.924L242.476 276.559ZM244 277.931L245.414 277.43L245.414 277.43L244 277.931ZM244.82 280.696L246.268 280.304L246.268 280.304L244.82 280.696ZM246.891 284.272L245.754 285.25L246.891 284.272ZM261.506 290.533L261.53 289.033L261.506 290.533ZM265.86 288.36L266.973 289.365L267.078 289.249L267.157 289.112L265.86 288.36ZM267.789 288.847L269.25 288.508L267.789 288.847ZM268.21 292.681L269.658 292.288L269.658 292.288L268.21 292.681ZM270.944 300.267L272.164 299.394L272.164 299.394L270.944 300.267ZM272.968 302.077L272.687 303.55L272.968 302.077ZM274.63 301.562L274.479 300.069L274.479 300.069L274.63 301.562ZM279.955 289.217L281.419 289.544L281.476 289.291L281.444 289.033L279.955 289.217ZM279.111 284.692L280.576 284.37L280.576 284.37L279.111 284.692ZM277.133 279.102L275.738 279.654L275.738 279.654L277.133 279.102ZM275.499 277.702L276.694 276.796L276.694 276.796L275.499 277.702ZM269.035 275.784L269.178 277.278L269.178 277.278L269.035 275.784ZM265.828 277.118L266.424 278.494L266.424 278.494L265.828 277.118ZM262.715 280.085L262.97 281.563L262.715 280.085ZM259.128 280.764L259.255 282.258L259.128 280.764ZM252.958 278.556L254.149 277.645L254.149 277.645L252.958 278.556ZM252.031 275.752L250.533 275.828L250.533 275.828L252.031 275.752ZM252.333 268.996L253.259 267.816L253.259 267.816L252.333 268.996ZM250.953 268.699L251.29 267.238L250.953 268.699ZM238.336 266.462L238.478 264.968L238.336 266.462ZM234.673 266.926L236.15 266.664L236.15 266.664L234.673 266.926ZM231.561 269.345C231.205 270.092 231.522 270.988 232.27 271.344C233.018 271.7 233.913 271.383 234.269 270.635L231.561 269.345ZM232.47 268.049C232.415 268.117 232.361 268.185 232.309 268.253L234.692 270.075C234.724 270.033 234.756 269.993 234.789 269.952L232.47 268.049ZM232.309 268.253C231.732 269.007 231.357 269.797 231.034 270.462C230.7 271.15 230.396 271.764 229.933 272.403L232.361 274.165C232.996 273.29 233.399 272.458 233.732 271.773C234.077 271.063 234.329 270.55 234.692 270.075L232.309 268.253ZM229.933 272.403C229.371 273.177 229.013 273.99 228.723 274.676C228.416 275.402 228.192 275.964 227.869 276.494L230.434 278.051C230.897 277.288 231.218 276.478 231.486 275.845C231.771 275.171 232.018 274.638 232.361 274.165L229.933 272.403ZM227.869 276.494C226.719 278.389 225.783 280.094 224.656 281.856L227.183 283.473C228.316 281.703 229.387 279.774 230.434 278.051L227.869 276.494ZM224.656 281.856C224.302 282.41 223.889 283.021 223.519 283.659L226.114 285.165C226.441 284.601 226.772 284.115 227.183 283.473L224.656 281.856ZM223.519 283.659C223.493 283.703 223.473 283.735 223.458 283.758C223.45 283.769 223.444 283.777 223.44 283.783C223.438 283.786 223.436 283.788 223.435 283.789C223.434 283.791 223.434 283.791 223.434 283.791C223.434 283.791 223.434 283.791 223.436 283.789C223.437 283.788 223.439 283.786 223.441 283.783C223.447 283.777 223.455 283.768 223.467 283.757C223.491 283.736 223.532 283.701 223.592 283.663C223.718 283.584 223.927 283.495 224.197 283.494C224.466 283.494 224.676 283.58 224.804 283.658C224.921 283.729 224.981 283.796 224.986 283.803C224.995 283.812 224.984 283.801 224.95 283.751C224.875 283.637 224.795 283.494 224.654 283.246L222.049 284.734C222.156 284.922 222.304 285.188 222.45 285.408C222.575 285.597 222.836 285.975 223.255 286.227C223.496 286.372 223.819 286.496 224.207 286.494C224.595 286.493 224.927 286.367 225.182 286.207C225.632 285.926 225.924 285.492 226.114 285.165L223.519 283.659ZM224.654 283.246C223.237 280.768 221.173 278.249 218.332 276.775L216.951 279.438C219.095 280.55 220.795 282.54 222.049 284.734L224.654 283.246ZM218.332 276.775C217.539 276.364 216.382 275.857 215.181 275.559C214.059 275.281 212.529 275.09 211.255 275.757L212.648 278.414C212.892 278.286 213.48 278.228 214.46 278.471C215.361 278.694 216.29 279.095 216.951 279.438L218.332 276.775ZM211.255 275.757C208.775 277.056 207.697 279.95 207.541 282.249L210.534 282.451C210.654 280.674 211.474 279.029 212.648 278.414L211.255 275.757ZM207.541 282.249C207.385 284.554 207.716 286.519 208.52 288.329C209.316 290.118 210.537 291.671 212.034 293.205L214.181 291.11C212.81 289.704 211.855 288.445 211.262 287.111C210.678 285.798 210.408 284.329 210.534 282.451L207.541 282.249ZM212.034 293.205C213.363 294.568 215.008 296.008 216.837 296.989L218.255 294.346C216.809 293.57 215.411 292.371 214.181 291.11L212.034 293.205ZM216.837 296.989C217.449 297.318 218.453 297.94 219.416 298.266L220.38 295.425C219.73 295.205 219.146 294.824 218.255 294.346L216.837 296.989ZM219.416 298.266C219.62 298.336 219.817 298.383 219.977 298.419C220.058 298.437 220.138 298.453 220.208 298.468C220.281 298.483 220.342 298.496 220.403 298.509C220.524 298.535 220.608 298.557 220.671 298.578C220.733 298.598 220.754 298.611 220.753 298.61L222.283 296.03C221.827 295.759 221.347 295.644 221.045 295.578C220.662 295.494 220.531 295.477 220.38 295.425L219.416 298.266ZM220.753 298.61C223.28 300.109 226.858 301.023 229.803 300.77L229.545 297.781C227.282 297.976 224.324 297.24 222.283 296.03L220.753 298.61ZM229.803 300.77C230.761 300.687 231.437 300.051 231.83 299.586C232.262 299.075 232.62 298.449 232.904 297.865C233.477 296.69 233.888 295.401 234.047 294.769L231.139 294.035C231.019 294.507 230.673 295.595 230.208 296.55C229.973 297.031 229.742 297.409 229.538 297.65C229.295 297.938 229.29 297.803 229.545 297.781L229.803 300.77ZM234.047 294.769C234.813 291.736 235.455 289.88 236.413 288.019C237.391 286.121 238.717 284.181 240.939 280.975L238.474 279.266C236.283 282.427 234.832 284.538 233.746 286.645C232.641 288.789 231.933 290.89 231.139 294.035L234.047 294.769ZM240.661 281.278C240.851 281.121 241.013 280.927 241.118 280.798C241.239 280.647 241.368 280.473 241.494 280.297C241.744 279.95 242.038 279.518 242.306 279.131C242.586 278.728 242.843 278.364 243.058 278.091C243.166 277.953 243.244 277.863 243.294 277.813C243.38 277.724 243.302 277.831 243.098 277.924L241.854 275.194C241.51 275.351 241.256 275.604 241.141 275.723C240.988 275.881 240.837 276.062 240.699 276.237C240.423 276.589 240.119 277.02 239.84 277.423C239.55 277.842 239.288 278.226 239.058 278.546C238.945 278.704 238.853 278.827 238.782 278.915C238.693 279.026 238.69 279.014 238.752 278.963L240.661 281.278ZM243.098 277.924C243.1 277.923 242.922 277.999 242.659 277.921C242.413 277.849 242.303 277.704 242.298 277.697C242.298 277.697 242.332 277.747 242.394 277.9C242.458 278.057 242.504 278.202 242.586 278.432L245.414 277.43C245.328 277.187 245.102 276.437 244.7 275.9C244.468 275.59 244.087 275.215 243.507 275.044C242.909 274.867 242.333 274.976 241.854 275.194L243.098 277.924ZM242.586 278.432C243.107 279.902 243.047 279.889 243.372 281.089L246.268 280.304C245.974 279.22 245.985 279.042 245.414 277.43L242.586 278.432ZM243.372 281.089C243.787 282.616 244.869 284.22 245.754 285.25L248.029 283.293C247.275 282.417 246.514 281.212 246.268 280.304L243.372 281.089ZM245.754 285.25C249.637 289.764 255.813 291.941 261.481 292.033L261.53 289.033C256.488 288.951 251.218 287.002 248.029 283.293L245.754 285.25ZM261.481 292.033C262.647 292.052 263.639 291.93 264.59 291.429C265.484 290.957 266.205 290.215 266.973 289.365L264.747 287.354C263.966 288.218 263.561 288.58 263.19 288.775C262.877 288.94 262.465 289.048 261.53 289.033L261.481 292.033ZM267.157 289.112C267.136 289.149 267.079 289.231 266.965 289.311C266.849 289.392 266.719 289.439 266.597 289.456C266.383 289.486 266.281 289.415 266.335 289.442C266.372 289.461 266.43 289.502 266.476 289.548C266.497 289.569 266.495 289.571 266.479 289.547C266.47 289.535 266.449 289.504 266.425 289.457C266.403 289.414 266.359 289.32 266.327 289.185L269.25 288.508C269.175 288.185 269.017 287.942 268.934 287.823C268.83 287.675 268.711 287.539 268.592 287.421C268.357 287.188 268.046 286.945 267.683 286.762C267.336 286.587 266.802 286.399 266.185 286.484C265.483 286.582 264.914 287.001 264.562 287.607L267.157 289.112ZM266.327 289.185C266.434 289.645 266.454 290.142 266.483 290.829C266.509 291.46 266.544 292.268 266.763 293.074L269.658 292.288C269.54 291.852 269.508 291.366 269.48 290.703C269.455 290.095 269.432 289.295 269.25 288.508L266.327 289.185ZM266.763 293.074C267.435 295.552 267.827 298.49 269.724 301.14L272.164 299.394C270.681 297.322 270.464 295.256 269.658 292.288L266.763 293.074ZM269.724 301.14C269.929 301.426 270.291 301.988 270.694 302.416C271.152 302.904 271.786 303.378 272.687 303.55L273.249 300.603C273.148 300.584 273.047 300.54 272.881 300.363C272.79 300.266 272.692 300.142 272.57 299.973C272.51 299.889 272.449 299.801 272.381 299.703C272.314 299.608 272.24 299.501 272.164 299.394L269.724 301.14ZM272.687 303.55C273.154 303.64 273.569 303.526 273.754 303.471C273.981 303.403 274.202 303.31 274.357 303.244C274.542 303.166 274.652 303.116 274.764 303.074C274.887 303.027 274.872 303.045 274.782 303.054L274.479 300.069C274.158 300.102 273.868 300.205 273.696 300.27C273.512 300.34 273.307 300.431 273.182 300.484C273.027 300.55 272.943 300.582 272.894 300.597C272.873 300.603 272.89 300.596 272.934 300.591C272.974 300.585 273.09 300.573 273.249 300.603L272.687 303.55ZM274.782 303.054C277.18 302.81 278.542 301.09 279.327 299.466C280.1 297.865 280.499 295.968 280.79 294.818L277.881 294.083C277.543 295.42 277.228 296.912 276.625 298.161C276.033 299.387 275.357 299.98 274.479 300.069L274.782 303.054ZM280.79 294.818C281.139 293.436 281.204 292.446 281.235 291.606C281.265 290.77 281.263 290.245 281.419 289.544L278.491 288.891C278.261 289.923 278.263 290.771 278.237 291.497C278.211 292.218 278.16 292.979 277.881 294.083L280.79 294.818ZM281.444 289.033C281.212 287.162 281.059 286.264 280.92 285.666C280.848 285.361 280.782 285.142 280.728 284.959C280.678 284.786 280.631 284.623 280.576 284.37L277.646 285.014C277.722 285.362 277.789 285.598 277.85 285.803C277.907 286 277.949 286.139 277.998 286.349C278.1 286.782 278.237 287.547 278.467 289.402L281.444 289.033ZM280.576 284.37C280.115 282.273 279.216 280.29 278.527 278.55L275.738 279.654C276.503 281.588 277.253 283.226 277.646 285.014L280.576 284.37ZM278.527 278.55C278.196 277.711 277.449 277.265 277.165 277.087C276.952 276.954 276.855 276.899 276.744 276.822C276.645 276.753 276.656 276.745 276.694 276.796L274.304 278.609C274.542 278.923 274.825 279.141 275.03 279.284C275.223 279.419 275.462 279.561 275.576 279.632C275.728 279.727 275.794 279.776 275.825 279.804C275.85 279.826 275.787 279.777 275.738 279.654L278.527 278.55ZM276.694 276.796C276.106 276.02 275.272 275.511 274.534 275.17C273.778 274.82 272.987 274.586 272.352 274.426L271.618 277.334C272.17 277.474 272.76 277.654 273.275 277.893C273.81 278.14 274.14 278.392 274.304 278.609L276.694 276.796ZM272.352 274.426C271.131 274.117 269.88 274.196 268.892 274.291L269.178 277.278C270.134 277.186 270.937 277.162 271.618 277.334L272.352 274.426ZM268.892 274.291C267.945 274.382 267.258 274.666 266.669 274.976C266.025 275.315 265.787 275.501 265.232 275.741L266.424 278.494C267.09 278.206 267.761 277.792 268.068 277.63C268.431 277.439 268.737 277.32 269.178 277.278L268.892 274.291ZM265.232 275.741C264.636 275.999 264.191 276.424 263.876 276.778C263.561 277.132 263.271 277.541 263.055 277.836C262.811 278.169 262.642 278.387 262.49 278.534C262.34 278.681 262.336 278.628 262.46 278.607L262.97 281.563C263.696 281.438 264.23 281.028 264.585 280.682C264.94 280.336 265.245 279.923 265.476 279.607C265.736 279.252 265.922 278.991 266.117 278.772C266.208 278.669 266.281 278.6 266.339 278.553C266.366 278.53 266.388 278.516 266.402 278.506C266.417 278.497 266.424 278.494 266.424 278.494L265.232 275.741ZM262.46 278.607C261.808 278.719 261.155 278.878 260.606 278.999C260.03 279.126 259.515 279.225 259.001 279.269L259.255 282.258C259.973 282.197 260.646 282.062 261.253 281.928C261.886 281.788 262.41 281.66 262.97 281.563L262.46 278.607ZM259.001 279.269C258.528 279.309 258.013 279.243 257.4 279.1C257.095 279.028 256.784 278.943 256.447 278.847C256.12 278.755 255.758 278.651 255.399 278.561L254.664 281.469C254.973 281.547 255.284 281.637 255.633 281.735C255.971 281.83 256.339 281.933 256.717 282.021C257.469 282.197 258.333 282.337 259.255 282.258L259.001 279.269ZM255.399 278.561C254.987 278.457 254.596 278.229 254.149 277.645L251.767 279.468C252.552 280.494 253.489 281.173 254.664 281.469L255.399 278.561ZM254.149 277.645C254.188 277.695 254.15 277.654 254.055 277.431C253.976 277.244 253.888 277.007 253.805 276.753C253.723 276.5 253.651 276.248 253.6 276.035C253.574 275.928 253.555 275.839 253.543 275.77C253.53 275.695 253.528 275.667 253.529 275.675L250.533 275.828C250.56 276.353 250.767 277.111 250.953 277.683C251.056 277.998 251.173 278.32 251.295 278.605C251.4 278.854 251.559 279.197 251.767 279.468L254.149 277.645ZM253.529 275.675C253.485 274.818 253.527 274.733 253.518 274.767C253.516 274.775 253.515 274.774 253.526 274.747C253.554 274.674 253.542 274.708 253.591 274.583C253.66 274.407 253.738 274.186 253.82 273.865L250.911 273.13C250.866 273.308 250.829 273.408 250.798 273.487C250.779 273.537 250.684 273.757 250.625 273.974C250.49 274.466 250.491 275.009 250.533 275.828L253.529 275.675ZM253.82 273.865C253.963 273.296 254.035 272.731 254.094 272.272C254.157 271.781 254.206 271.406 254.293 271.062L251.385 270.328C251.246 270.877 251.177 271.436 251.118 271.889C251.056 272.374 251.004 272.763 250.911 273.13L253.82 273.865ZM254.293 271.062C254.356 270.812 254.431 270.529 254.472 270.299C254.514 270.065 254.569 269.661 254.433 269.214C254.288 268.742 253.999 268.438 253.809 268.263C253.644 268.112 253.416 267.939 253.259 267.816L251.407 270.176C251.46 270.217 251.509 270.256 251.552 270.289C251.597 270.324 251.633 270.353 251.666 270.379C251.699 270.405 251.724 270.425 251.744 270.441C251.763 270.458 251.774 270.467 251.779 270.472C251.791 270.483 251.757 270.454 251.712 270.392C251.688 270.359 251.66 270.316 251.633 270.263C251.606 270.21 251.582 270.152 251.563 270.091C251.525 269.966 251.519 269.863 251.52 269.803C251.52 269.752 251.526 269.732 251.52 269.769C251.513 269.805 251.501 269.863 251.476 269.963C251.452 270.064 251.423 270.175 251.385 270.328L254.293 271.062ZM253.259 267.816C252.715 267.388 252.168 267.296 251.787 267.269C251.703 267.263 251.623 267.26 251.565 267.258C251.501 267.256 251.46 267.254 251.418 267.252C251.342 267.248 251.309 267.242 251.29 267.238L250.616 270.161C250.865 270.218 251.083 270.238 251.248 270.247C251.327 270.252 251.404 270.254 251.454 270.256C251.512 270.258 251.546 270.26 251.574 270.262C251.626 270.265 251.605 270.268 251.556 270.252C251.496 270.234 251.443 270.204 251.407 270.176L253.259 267.816ZM251.29 267.238C250.098 266.963 248.953 266.647 247.707 266.332L246.972 269.241C248.133 269.534 249.389 269.878 250.616 270.161L251.29 267.238ZM247.707 266.332C244.692 265.571 241.415 265.247 238.478 264.968L238.194 267.955C241.163 268.237 244.214 268.545 246.972 269.241L247.707 266.332ZM238.478 264.968C238.13 264.935 237.111 264.869 236.168 264.907C235.715 264.926 235.166 264.971 234.701 265.102C234.484 265.163 234.13 265.283 233.815 265.543C233.436 265.855 233.063 266.435 233.196 267.188L236.15 266.664C236.192 266.901 236.167 267.162 236.06 267.407C235.96 267.635 235.818 267.78 235.724 267.858C235.561 267.992 235.44 268.01 235.512 267.99C235.627 267.958 235.887 267.921 236.29 267.905C237.057 267.874 237.933 267.93 238.194 267.955L238.478 264.968ZM233.196 267.188C233.198 267.198 233.197 267.199 233.197 267.193C233.198 267.187 233.199 267.183 233.199 267.183C233.198 267.185 233.187 267.223 233.131 267.308C233.072 267.396 232.985 267.504 232.85 267.653C232.784 267.728 232.714 267.802 232.633 267.889C232.556 267.973 232.468 268.068 232.381 268.166L234.621 270.161C234.82 269.938 235.312 269.445 235.626 268.973C236.003 268.408 236.321 267.631 236.15 266.664L233.196 267.188ZM232.381 268.166C232.126 268.452 231.798 268.848 231.561 269.345L234.269 270.635C234.319 270.531 234.417 270.39 234.621 270.161L232.381 268.166Z" fill="#242424"/>
<path d="M240.869 227.402C240.582 228.66 240.324 229.919 240.008 231.171L249.843 233.421C250.147 232.219 250.669 231.075 250.977 229.857C251.449 227.988 252.316 226.282 252.814 224.431C253.087 223.42 253.433 222.444 253.69 221.425C253.952 220.389 254.133 219.284 254.539 218.295C255.192 216.702 255.092 214.983 255.247 213.304C255.332 212.389 255.205 211.636 254.861 210.798C254.618 210.208 254.32 209.444 253.768 209.106C252.359 208.242 250.526 208.078 249.015 208.718C247.821 209.224 247.026 210.592 246.451 211.7C245.607 213.326 245.091 215.221 244.539 216.958C243.959 218.78 243.323 220.556 242.64 222.342C242.006 224.001 241.266 225.666 240.869 227.402Z" fill="#6892FF" stroke="#242424" stroke-width="3" stroke-linecap="round"/>
<circle cx="246.376" cy="250.009" r="25.0725" transform="rotate(14.1709 246.376 250.009)" fill="#6892FF" stroke="#242424" stroke-width="3"/>
<path d="M222.93 247.503C224.366 248.63 226.085 249.588 227.778 250.137C230.009 250.862 232.524 250.951 234.894 250.991C236.329 251.015 238.046 250.631 239.382 250.137C240.03 249.898 240.551 249.585 241.136 249.236C241.301 249.137 243.229 248.042 243.278 248.265" stroke="#242424" stroke-width="3" stroke-linecap="round"/>
<path d="M234.054 238.619C233.643 238.931 233.171 239.927 233.685 240.338C233.985 240.577 234.105 240.4 234.258 240.125C234.314 240.025 234.689 239.203 234.409 239.527" stroke="#242424" stroke-width="3" stroke-linecap="round"/>
<path d="M0 242.044C66.409 242.044 135.042 252.424 199.086 290.779C218.554 302.438 239.31 303.044 259.716 303.044C275.31 303.044 294.762 301.649 309.804 292.716C325.756 283.242 344.757 276.233 361.24 273.996C364.915 273.497 368.173 271.344 372.019 271.091C383.178 270.358 397.673 270.788 408 262.377" stroke="#242424" stroke-width="3" stroke-linecap="round"/>
<path d="M264.789 188.381C267.124 191.417 274.539 194.55 278.46 196.162C285.004 198.851 289.741 205.057 295.109 209.136C302.757 214.946 308.984 222.797 317.434 227.724" stroke="#242424" stroke-width="3" stroke-linecap="round"/>
<path d="M273.728 167.866C274.013 160.568 269.788 144.661 252.518 149.452C240.456 152.798 238.509 170.013 246.083 174.482C237.368 169.34 228.49 178.034 225.854 183.561C219.584 199.19 234.825 201.774 245.977 202.163C243.897 208.293 244.884 210.741 246.832 213.273L249.387 216.709C254.963 219.97 267.555 224.995 275.437 216.1C283.319 207.206 271.765 194.149 265.003 188.732C270.146 190.203 282.772 192.876 289.177 187.949C294.517 183.841 297.023 182.506 293.021 167.18C289.819 154.919 278.825 162.529 273.728 167.866Z" fill="#B0E519"/>
<path d="M246.892 200.424C244.573 201.83 239.656 201.156 237.052 200.817C234.546 200.49 231.842 199.097 229.747 197.718C225.414 194.868 224.406 192.285 224.275 186.982C224.169 182.665 228.21 178.499 231.363 176.073C234.841 173.398 237.417 173.354 241.475 172.565" stroke="#242424" stroke-width="3" stroke-linecap="round"/>
<path d="M249.087 178.986C248.314 179.44 244.794 174.792 244.146 173.95C242.579 171.913 241.215 168.827 241.4 166.217C241.717 161.757 244.165 157.685 247.694 154.971C249.135 153.863 250.536 152.618 252.164 151.8C253.647 151.054 254.467 150.385 256.592 150.232C259.028 150.057 261.124 150.258 263.782 151.029C264.32 151.539 265.865 151.878 266.925 153.256C268.5 154.996 269.832 157.437 270.219 158.264C271.557 161.128 271.729 164.07 272.182 166.4" stroke="#242424" stroke-width="3" stroke-linecap="round"/>
<path d="M266.717 189.921C268.362 191.63 273.83 191.985 276.803 192.187C280.082 192.017 281.023 192.386 283.57 191.579C284.854 191.172 287.117 190.439 288.204 189.603C289.752 188.412 291.749 186.565 292.947 185.014C294.182 183.415 294.473 182.025 295.136 180.298C295.694 178.844 295.763 176.712 295.81 175.144C295.868 173.208 295.362 172.35 294.723 169.543C294.112 167.556 294.365 166.78 290.969 162.795C287.001 160.039 286.96 159.763 284.213 159.974C281.688 160.167 280.287 161.048 277.445 162.926C274.603 164.804 273.921 165.806 271.992 167.289" stroke="#242424" stroke-width="3" stroke-linecap="round"/>
<path d="M266.369 189.736C268.001 192.933 272.617 197.601 273.875 200.775C274.78 203.058 275.72 205.749 276.06 208.226C276.36 210.408 275.317 214.575 273.403 216.854C271.56 219.049 269.469 220.039 266.851 220.826C264.472 221.763 261.918 221.792 259.144 221.777C256.957 221.766 253.484 219.527 251.935 218.126C250.333 216.678 248.564 215.261 247.314 213.08C246.111 210.621 245.978 209.738 245.958 207.542" stroke="#242424" stroke-width="3" stroke-linecap="round"/>
<path d="M249.877 229.674C249.59 230.933 249.332 232.192 249.016 233.444L253.933 234.569L258.851 235.694C259.154 234.492 259.677 233.347 259.985 232.129C260.457 230.26 261.323 228.554 261.822 226.703C262.094 225.693 262.441 224.717 262.698 223.697C262.959 222.662 263.141 221.556 263.547 220.567C264.2 218.974 264.099 217.256 264.255 215.577C264.34 214.661 264.213 213.908 263.868 213.07C263.626 212.48 263.327 211.717 262.776 211.379C261.367 210.515 259.534 210.35 258.023 210.99C256.829 211.496 256.033 212.864 255.458 213.973C254.615 215.599 254.099 217.493 253.546 219.23C252.967 221.052 252.331 222.829 251.648 224.615C251.014 226.274 250.273 227.938 249.877 229.674Z" fill="#6892FF"/>
<path d="M249.866 233.442C250.182 232.19 250.439 230.931 250.727 229.672C251.123 227.936 251.863 226.272 252.498 224.613C253.18 222.827 253.817 221.05 254.396 219.228C254.948 217.491 255.465 215.597 256.308 213.971C256.883 212.862 257.679 211.494 258.873 210.988C260.384 210.348 262.217 210.513 263.626 211.377C264.177 211.715 264.475 212.478 264.718 213.068C265.063 213.906 265.189 214.659 265.105 215.575C264.949 217.254 265.05 218.972 264.396 220.565C263.991 221.554 263.809 222.66 263.548 223.695C263.29 224.715 262.944 225.691 262.672 226.701C262.173 228.552 261.306 230.258 260.834 232.127C260.527 233.345 260.004 234.49 259.7 235.692" stroke="#242424" stroke-width="3" stroke-linecap="round"/>
</g>
<defs>
<clipPath id="clip0_2272_6710">
<rect width="360" height="352" fill="white"/>
</clipPath>
</defs>
</svg>
