<svg width="327" height="56" viewBox="0 0 327 56" fill="none" xmlns="http://www.w3.org/2000/svg">
<rect width="327" height="56" rx="28" fill="#FBE44D"/>
<path d="M86.4 16C94.132 16 100.4 20.8603 100.4 26.8574C100.4 32.8532 94.132 37.7135 86.4 37.7135C85.6301 37.7139 84.861 37.6651 84.0973 37.5676L78.22 41.3919C77.552 41.7434 77.316 41.7049 77.5907 40.844L78.78 35.9652C74.94 34.0285 72.4 30.6724 72.4 26.8574C72.4 20.8616 78.668 16 86.4 16ZM94.276 26.6916L96.236 24.8027C96.3491 24.6858 96.4122 24.5298 96.412 24.3676C96.4118 24.2054 96.3483 24.0496 96.2349 23.933C96.1216 23.8164 95.9671 23.7482 95.8042 23.7426C95.6412 23.7371 95.4824 23.7947 95.3613 23.9033L92.7907 26.3785V24.3331C92.7907 24.167 92.7244 24.0078 92.6063 23.8903C92.4883 23.7729 92.3282 23.707 92.1613 23.707C91.9944 23.707 91.8343 23.7729 91.7163 23.8903C91.5983 24.0078 91.532 24.167 91.532 24.3331V27.7249C91.5084 27.8217 91.5084 27.9227 91.532 28.0194V29.9282C91.532 30.0943 91.5983 30.2536 91.7163 30.371C91.8343 30.4884 91.9944 30.5544 92.1613 30.5544C92.3282 30.5544 92.4883 30.4884 92.6063 30.371C92.7244 30.2536 92.7907 30.0943 92.7907 29.9282V28.1202L93.36 27.5724L95.264 30.2692C95.3115 30.3365 95.3719 30.3938 95.4418 30.4379C95.5116 30.482 95.5894 30.512 95.6709 30.5262C95.7524 30.5404 95.8358 30.5384 95.9166 30.5205C95.9973 30.5026 96.0737 30.469 96.1413 30.4217C96.209 30.3744 96.2667 30.3143 96.311 30.2449C96.3553 30.1754 96.3855 30.0979 96.3997 30.0169C96.4139 29.9358 96.412 29.8528 96.394 29.7725C96.3759 29.6922 96.3422 29.6162 96.2947 29.5489L94.276 26.6903V26.6916ZM90.332 29.2438H88.3853V24.353C88.3779 24.1921 88.3084 24.0402 88.1913 23.929C88.0742 23.8177 87.9186 23.7557 87.7567 23.7557C87.5948 23.7557 87.4391 23.8177 87.322 23.929C87.2049 24.0402 87.1354 24.1921 87.128 24.353V29.8699C87.128 30.2148 87.408 30.496 87.756 30.496H90.332C90.4989 30.496 90.659 30.43 90.777 30.3126C90.895 30.1952 90.9613 30.0359 90.9613 29.8699C90.9613 29.7038 90.895 29.5446 90.777 29.4272C90.659 29.3097 90.4989 29.2438 90.332 29.2438ZM82.5227 27.7952L83.4507 25.5309L84.3013 27.7952L82.5227 27.7952ZM85.8867 28.4426L85.8893 28.4213C85.889 28.2636 85.8285 28.1119 85.72 27.9969L84.3253 24.2827C84.2669 24.1057 84.1555 23.9506 84.0061 23.8383C83.8567 23.7259 83.6764 23.6616 83.4893 23.6539C83.3008 23.6531 83.1166 23.7094 82.961 23.8153C82.8055 23.9212 82.6861 24.0717 82.6187 24.2469L80.404 29.6523C80.3727 29.7285 80.3569 29.81 80.3573 29.8922C80.3577 29.9744 80.3744 30.0558 80.4064 30.1316C80.4384 30.2074 80.4851 30.2762 80.5438 30.3341C80.6025 30.3919 80.6721 30.4377 80.7487 30.4688C80.8252 30.4999 80.9071 30.5157 80.9898 30.5153C81.0724 30.5149 81.1542 30.4983 81.2304 30.4664C81.3066 30.4346 81.3757 30.3881 81.4339 30.3297C81.4921 30.2713 81.5381 30.202 81.5693 30.1259L82.0093 29.0475L84.7693 29.0475L85.168 30.1087C85.1951 30.188 85.2379 30.2611 85.2939 30.3236C85.35 30.3862 85.418 30.4369 85.4941 30.4728C85.5702 30.5087 85.6528 30.5291 85.7369 30.5327C85.821 30.5363 85.905 30.523 85.9839 30.4937C86.0628 30.4644 86.135 30.4196 86.1962 30.3621C86.2574 30.3045 86.3064 30.2353 86.3402 30.1586C86.374 30.0819 86.392 29.9992 86.3931 29.9154C86.3942 29.8316 86.3784 29.7485 86.3467 29.6709L85.8867 28.4426ZM81.4573 24.3596C81.4573 24.1938 81.3912 24.0347 81.2735 23.9173C81.1557 23.8 80.996 23.7338 80.8293 23.7335H76.5027C76.3358 23.7335 76.1757 23.7995 76.0577 23.9169C75.9396 24.0343 75.8733 24.1935 75.8733 24.3596C75.8733 24.5257 75.9396 24.6849 76.0577 24.8023C76.1757 24.9197 76.3358 24.9857 76.5027 24.9857H78.0493V29.9415C78.0493 30.1076 78.1156 30.2668 78.2337 30.3842C78.3517 30.5017 78.5118 30.5676 78.6787 30.5676C78.8456 30.5676 79.0056 30.5017 79.1237 30.3842C79.2417 30.2668 79.308 30.1076 79.308 29.9415V24.9857H80.828C80.9949 24.9857 81.155 24.9197 81.273 24.8023C81.391 24.6849 81.4573 24.5257 81.4573 24.3596Z" fill="#3B1F1E"/>
<path d="M117.14 23.176V23.368C117.14 27.4 115.86 30.456 111.268 32.744L112.18 34.024C117.508 31.352 118.772 27.528 118.772 23.176H117.14ZM112.116 23.176V24.52H118.132V23.176H112.116ZM117.044 26.776L111.364 27.144L111.604 28.6L117.044 28.072V26.776ZM120.884 21.688V36.312H122.564V21.688H120.884ZM122.116 27.48V28.856H124.756V27.48H122.116ZM131.359 23.176V23.368C131.359 27.4 130.079 30.456 125.487 32.744L126.399 34.024C131.727 31.352 132.991 27.528 132.991 23.176H131.359ZM126.335 23.176V24.52H132.351V23.176H126.335ZM131.263 26.776L125.583 27.144L125.823 28.6L131.263 28.072V26.776ZM135.103 21.688V36.312H136.783V21.688H135.103ZM136.335 27.48V28.856H138.975V27.48H136.335ZM145.434 29.944V33.448H147.098V29.944H145.434ZM146.266 22.568C143.178 22.568 140.89 24.12 140.89 26.488C140.89 28.872 143.178 30.408 146.266 30.408C149.37 30.408 151.642 28.872 151.642 26.488C151.642 24.12 149.37 22.568 146.266 22.568ZM146.266 23.896C148.458 23.896 150.01 24.904 150.01 26.488C150.01 28.088 148.458 29.08 146.266 29.08C144.09 29.08 142.522 28.088 142.522 26.488C142.522 24.904 144.09 23.896 146.266 23.896ZM139.674 33.16V34.536H152.922V33.16H139.674ZM153.876 29.528V30.872H167.092V29.528H153.876ZM159.636 27.656V29.928H161.3V27.656H159.636ZM155.348 31.976V33.32H163.748V36.328H165.428V31.976H155.348ZM155.572 26.92V28.216H165.604V26.92H155.572ZM155.572 22.072V27.56H157.236V23.368H165.508V22.072H155.572ZM156.756 24.488V25.736H165.156V24.488H156.756ZM174.703 22.552C171.663 22.552 169.327 24.184 169.327 26.664C169.327 29.16 171.663 30.792 174.703 30.792C177.759 30.792 180.079 29.16 180.079 26.664C180.079 24.184 177.759 22.552 174.703 22.552ZM174.703 23.912C176.879 23.912 178.463 24.984 178.463 26.664C178.463 28.328 176.879 29.416 174.703 29.416C172.543 29.416 170.959 28.328 170.959 26.664C170.959 24.984 172.543 23.912 174.703 23.912ZM168.111 33.08V34.472H181.359V33.08H168.111ZM182.33 33.24V34.616H195.578V33.24H182.33ZM188.09 30.264V33.8H189.754V30.264H188.09ZM183.882 22.728V24.072H192.33V26.024H183.914V30.072H185.578V27.352H193.994V22.728H183.882ZM183.914 29.384V30.744H194.33V29.384H183.914ZM203.354 22.904V25.304C203.354 28.104 201.85 30.92 199.514 31.976L200.522 33.368C203.146 32.088 204.73 28.84 204.73 25.304V22.904H203.354ZM203.674 22.904V25.304C203.674 28.712 205.258 31.832 207.834 33.048L208.826 31.704C206.522 30.68 205.034 27.992 205.034 25.304V22.904H203.674ZM209.994 21.688V36.344H211.674V21.688H209.994ZM217.301 23.208V24.264C217.301 26.248 216.021 28.136 213.717 28.92L214.597 30.216C217.189 29.336 218.677 26.984 218.677 24.264V23.208H217.301ZM217.621 23.208V24.264C217.621 26.824 219.045 29.08 221.605 29.944L222.453 28.632C220.213 27.896 218.981 26.104 218.981 24.264V23.208H217.621ZM214.197 22.648V24.008H222.053V22.648H214.197ZM223.589 21.704V30.504H225.269V21.704H223.589ZM224.805 25.416V26.808H227.333V25.416H224.805ZM215.653 31.224V32.584H223.589V36.328H225.269V31.224H215.653ZM237.744 21.704V36.328H239.408V21.704H237.744ZM239.024 27.576V28.968H241.68V27.576H239.024ZM228 23.96V25.304H236.576V23.96H228ZM232.336 26.36C230.24 26.36 228.704 27.768 228.704 29.768C228.704 31.784 230.24 33.192 232.336 33.192C234.416 33.192 235.952 31.784 235.952 29.768C235.952 27.768 234.416 26.36 232.336 26.36ZM232.336 27.736C233.504 27.736 234.352 28.536 234.352 29.768C234.352 31 233.504 31.816 232.336 31.816C231.152 31.816 230.304 31 230.304 29.768C230.304 28.536 231.152 27.736 232.336 27.736ZM231.472 21.912V24.52H233.152V21.912H231.472ZM252.683 21.704V36.328H254.363V21.704H252.683ZM248.395 23.256V23.544C248.395 27.448 246.619 30.344 242.411 32.376L243.291 33.72C248.315 31.272 250.043 27.592 250.043 23.256H248.395ZM243.131 23.256V24.6H249.147V23.256H243.131Z" fill="#3B1F1E"/>
</svg>
