<svg width="332" height="56" viewBox="0 0 332 56" fill="none" xmlns="http://www.w3.org/2000/svg">
<rect width="332" height="56" rx="28" fill="#FBE44D"/>
<path d="M100.4 16C108.132 16 114.4 20.8603 114.4 26.8574C114.4 32.8532 108.132 37.7135 100.4 37.7135C99.6301 37.7139 98.861 37.6651 98.0974 37.5676L92.22 41.3919C91.552 41.7434 91.316 41.7049 91.5907 40.844L92.78 35.9652C88.94 34.0285 86.4 30.6724 86.4 26.8574C86.4 20.8616 92.668 16 100.4 16ZM108.276 26.6916L110.236 24.8027C110.349 24.6858 110.412 24.5298 110.412 24.3676C110.412 24.2054 110.348 24.0496 110.235 23.933C110.122 23.8164 109.967 23.7482 109.804 23.7426C109.641 23.7371 109.482 23.7947 109.361 23.9033L106.791 26.3785V24.3331C106.791 24.167 106.724 24.0078 106.606 23.8903C106.488 23.7729 106.328 23.707 106.161 23.707C105.994 23.707 105.834 23.7729 105.716 23.8903C105.598 24.0078 105.532 24.167 105.532 24.3331V27.7249C105.508 27.8217 105.508 27.9227 105.532 28.0194V29.9282C105.532 30.0943 105.598 30.2536 105.716 30.371C105.834 30.4884 105.994 30.5544 106.161 30.5544C106.328 30.5544 106.488 30.4884 106.606 30.371C106.724 30.2536 106.791 30.0943 106.791 29.9282V28.1202L107.36 27.5724L109.264 30.2692C109.312 30.3365 109.372 30.3938 109.442 30.4379C109.512 30.482 109.589 30.512 109.671 30.5262C109.752 30.5404 109.836 30.5384 109.917 30.5205C109.997 30.5026 110.074 30.469 110.141 30.4217C110.209 30.3744 110.267 30.3143 110.311 30.2449C110.355 30.1754 110.385 30.0979 110.4 30.0169C110.414 29.9358 110.412 29.8528 110.394 29.7725C110.376 29.6922 110.342 29.6162 110.295 29.5489L108.276 26.6903V26.6916ZM104.332 29.2438H102.385V24.353C102.378 24.1921 102.308 24.0402 102.191 23.929C102.074 23.8177 101.919 23.7557 101.757 23.7557C101.595 23.7557 101.439 23.8177 101.322 23.929C101.205 24.0402 101.135 24.1921 101.128 24.353V29.8699C101.128 30.2148 101.408 30.496 101.756 30.496H104.332C104.499 30.496 104.659 30.43 104.777 30.3126C104.895 30.1952 104.961 30.0359 104.961 29.8699C104.961 29.7038 104.895 29.5446 104.777 29.4272C104.659 29.3097 104.499 29.2438 104.332 29.2438V29.2438ZM96.5227 27.7952L97.4507 25.5309L98.3014 27.7952L96.5227 27.7952V27.7952ZM99.8867 28.4426L99.8894 28.4213C99.889 28.2636 99.8285 28.1119 99.72 27.9969L98.3254 24.2827C98.2669 24.1057 98.1555 23.9506 98.0061 23.8383C97.8568 23.7259 97.6765 23.6616 97.4894 23.6539C97.3009 23.6531 97.1166 23.7094 96.9611 23.8153C96.8055 23.9212 96.6861 24.0717 96.6187 24.2469L94.404 29.6523C94.3728 29.7285 94.3569 29.81 94.3573 29.8922C94.3577 29.9744 94.3744 30.0558 94.4064 30.1316C94.4384 30.2074 94.4851 30.2762 94.5438 30.3341C94.6026 30.3919 94.6722 30.4377 94.7487 30.4688C94.8252 30.4999 94.9071 30.5157 94.9898 30.5153C95.0724 30.5149 95.1542 30.4983 95.2304 30.4664C95.3066 30.4346 95.3758 30.3881 95.4339 30.3297C95.4921 30.2713 95.5381 30.202 95.5694 30.1259L96.0094 29.0475L98.7694 29.0475L99.168 30.1087C99.1951 30.188 99.238 30.2611 99.294 30.3236C99.35 30.3862 99.4181 30.4369 99.4942 30.4728C99.5702 30.5087 99.6528 30.5291 99.7369 30.5327C99.8211 30.5363 99.9051 30.523 99.984 30.4937C100.063 30.4644 100.135 30.4196 100.196 30.3621C100.257 30.3045 100.306 30.2353 100.34 30.1586C100.374 30.0819 100.392 29.9992 100.393 29.9154C100.394 29.8316 100.378 29.7485 100.347 29.6709L99.8867 28.4426V28.4426ZM95.4574 24.3596C95.4574 24.1938 95.3912 24.0347 95.2735 23.9173C95.1558 23.8 94.996 23.7338 94.8294 23.7335H90.5027C90.3358 23.7335 90.1757 23.7995 90.0577 23.9169C89.9397 24.0343 89.8734 24.1935 89.8734 24.3596C89.8734 24.5257 89.9397 24.6849 90.0577 24.8023C90.1757 24.9197 90.3358 24.9857 90.5027 24.9857H92.0494V29.9415C92.0494 30.1076 92.1157 30.2668 92.2337 30.3842C92.3517 30.5017 92.5118 30.5676 92.6787 30.5676C92.8456 30.5676 93.0057 30.5017 93.1237 30.3842C93.2417 30.2668 93.308 30.1076 93.308 29.9415V24.9857H94.828C94.9949 24.9857 95.155 24.9197 95.273 24.8023C95.3911 24.6849 95.4574 24.5257 95.4574 24.3596V24.3596Z" fill="#3B1F1E"/>
<path d="M121.696 23.224V24.568H126.64C126.576 25.368 126.448 26.12 126.256 26.824L120.96 27.16L121.184 28.584L125.76 28.136C124.912 29.912 123.392 31.416 120.864 32.68L121.76 33.96C127.008 31.32 128.272 27.544 128.272 23.224H121.696ZM134.192 27.48H132V21.768H130.352V36.216H132V28.856H134.192V27.48ZM135.915 23.224V24.568H140.859C140.795 25.368 140.667 26.12 140.475 26.824L135.179 27.16L135.403 28.584L139.979 28.136C139.131 29.912 137.611 31.416 135.083 32.68L135.979 33.96C141.227 31.32 142.491 27.544 142.491 23.224H135.915ZM148.411 27.48H146.219V21.768H144.571V36.216H146.219V28.856H148.411V27.48ZM152.07 26.504C152.07 24.936 153.622 23.944 155.782 23.944C157.926 23.944 159.478 24.936 159.478 26.504C159.478 28.072 157.926 29.064 155.782 29.064C153.622 29.064 152.07 28.072 152.07 26.504ZM156.598 33.112V30.36C159.238 30.12 161.094 28.648 161.094 26.504C161.094 24.152 158.838 22.632 155.782 22.632C152.71 22.632 150.47 24.152 150.47 26.504C150.47 28.648 152.31 30.104 154.95 30.344V33.112H149.254V34.456H162.342V33.112H156.598ZM164.912 33.24H173.232V36.232H174.88V31.928H164.912V33.24ZM170.816 29.528V28.2H175.072V26.936H166.768V25.768H174.624V24.536H166.768V23.416H174.976V22.152H165.12V28.2H169.152V29.528H163.44V30.856H176.528V29.528H170.816ZM184.219 22.6C181.195 22.6 178.907 24.232 178.907 26.68C178.907 29.144 181.195 30.76 184.219 30.76C187.227 30.76 189.531 29.144 189.531 26.68C189.531 24.232 187.227 22.6 184.219 22.6ZM184.219 23.96C186.347 23.96 187.931 25.016 187.931 26.68C187.931 28.344 186.347 29.4 184.219 29.4C182.075 29.4 180.507 28.344 180.507 26.68C180.507 25.016 182.075 23.96 184.219 23.96ZM177.691 33.048V34.408H190.779V33.048H177.691ZM199.254 33.176V30.712H203.766V29.384H195.11V27.368H203.446V22.792H193.462V24.12H201.814V26.056H193.494V30.712H197.606V33.176H191.91V34.536H204.998V33.176H199.254ZM216.566 33.176V30.712H221.078V29.384H212.422V27.368H220.758V22.792H210.774V24.12H219.126V26.056H210.806V30.712H214.918V33.176H209.222V34.536H222.31V33.176H216.566ZM233.185 24.776C233.185 26.648 233.185 28.776 232.625 31.624L234.289 31.8C234.833 28.744 234.833 26.712 234.833 24.776V23.224H224.833V24.552H233.185V24.776ZM223.441 32.856V34.216H236.513V32.856H223.441ZM249.564 21.784H247.916V32.28H249.564V21.784ZM239.548 26.36C239.548 25.032 240.492 24.168 241.772 24.168C243.036 24.168 243.996 25.032 243.996 26.36C243.996 27.672 243.036 28.552 241.772 28.552C240.492 28.552 239.548 27.672 239.548 26.36ZM245.596 26.36C245.596 24.248 243.948 22.744 241.772 22.744C239.596 22.744 237.932 24.248 237.932 26.36C237.932 28.456 239.596 29.976 241.772 29.976C243.948 29.976 245.596 28.456 245.596 26.36ZM241.788 34.616V31.224H240.124V35.96H249.98V34.616H241.788Z" fill="#3B1F1E"/>
</svg>
