<svg width="24" height="24" viewBox="0 0 24 24" fill="none" xmlns="http://www.w3.org/2000/svg">
<path d="M12.0011 10.0011L8.60413 6.56113C8.2173 6.16764 8.00053 5.63793 8.00053 5.08613C8.00053 4.53434 8.2173 4.00463 8.60413 3.61113C8.79403 3.41762 9.02061 3.26391 9.2706 3.15898C9.5206 3.05405 9.78901 3 10.0601 3C10.3313 3 10.5997 3.05405 10.8497 3.15898C11.0997 3.26391 11.3262 3.41762 11.5161 3.61113L12.0011 4.00113L12.4861 3.61113C12.676 3.41762 12.9026 3.26391 13.1526 3.15898C13.4026 3.05405 13.671 3 13.9421 3C14.2133 3 14.4817 3.05405 14.7317 3.15898C14.9817 3.26391 15.2082 3.41762 15.3981 3.61113C15.785 4.00463 16.0017 4.53434 16.0017 5.08613C16.0017 5.63793 15.785 6.16764 15.3981 6.56113L12.0011 10.0011ZM12.0011 14.0011L8.60413 17.4411C8.2173 17.8346 8.00053 18.3643 8.00053 18.9161C8.00053 19.4679 8.2173 19.9976 8.60413 20.3911C8.79403 20.5846 9.02061 20.7384 9.2706 20.8433C9.5206 20.9482 9.78901 21.0023 10.0601 21.0023C10.3313 21.0023 10.5997 20.9482 10.8497 20.8433C11.0997 20.7384 11.3262 20.5846 11.5161 20.3911L12.0011 20.0011L12.4861 20.3911C12.676 20.5846 12.9026 20.7384 13.1526 20.8433C13.4026 20.9482 13.671 21.0023 13.9421 21.0023C14.2133 21.0023 14.4817 20.9482 14.7317 20.8433C14.9817 20.7384 15.2082 20.5846 15.3981 20.3911C15.785 19.9976 16.0017 19.4679 16.0017 18.9161C16.0017 18.3643 15.785 17.8346 15.3981 17.4411L12.0011 14.0011ZM14.0011 12.0011L17.4411 8.60413C17.8346 8.2173 18.3643 8.00053 18.9161 8.00053C19.4679 8.00053 19.9976 8.2173 20.3911 8.60413C20.5846 8.79403 20.7384 9.02061 20.8433 9.2706C20.9482 9.5206 21.0023 9.78901 21.0023 10.0601C21.0023 10.3313 20.9482 10.5997 20.8433 10.8497C20.7384 11.0997 20.5846 11.3262 20.3911 11.5161L20.0011 12.0011L20.3911 12.4861C20.5846 12.676 20.7384 12.9026 20.8433 13.1526C20.9482 13.4026 21.0023 13.671 21.0023 13.9421C21.0023 14.2133 20.9482 14.4817 20.8433 14.7317C20.7384 14.9817 20.5846 15.2082 20.3911 15.3981C19.9976 15.785 19.4679 16.0017 18.9161 16.0017C18.3643 16.0017 17.8346 15.785 17.4411 15.3981L14.0011 12.0011ZM10.0011 12.0011L6.56113 8.60413C6.16764 8.2173 5.63793 8.00053 5.08613 8.00053C4.53434 8.00053 4.00463 8.2173 3.61113 8.60413C3.41762 8.79403 3.26391 9.02061 3.15898 9.2706C3.05405 9.5206 3 9.78901 3 10.0601C3 10.3313 3.05405 10.5997 3.15898 10.8497C3.26391 11.0997 3.41762 11.3262 3.61113 11.5161L4.00113 12.0011L3.61113 12.4861C3.41762 12.676 3.26391 12.9026 3.15898 13.1526C3.05405 13.4026 3 13.671 3 13.9421C3 14.2133 3.05405 14.4817 3.15898 14.7317C3.26391 14.9817 3.41762 15.2082 3.61113 15.3981C4.00463 15.785 4.53434 16.0017 5.08613 16.0017C5.63793 16.0017 6.16764 15.785 6.56113 15.3981L10.0011 12.0011Z" fill="#B0E519" stroke="#B0E519" stroke-width="2" stroke-linecap="round" stroke-linejoin="round"/>
<path d="M14 12L17.44 8.60299C17.8335 8.21616 18.3632 7.99939 18.915 7.99939C19.4668 7.99939 19.9965 8.21616 20.39 8.60299C20.5835 8.7929 20.7372 9.01947 20.8422 9.26946C20.9471 9.51946 21.0011 9.78787 21.0011 10.059C21.0011 10.3301 20.9471 10.5985 20.8422 10.8485C20.7372 11.0985 20.5835 11.3251 20.39 11.515L20 12L20.39 12.485C20.5835 12.6749 20.7372 12.9015 20.8422 13.1515C20.9471 13.4015 21.0011 13.6699 21.0011 13.941C21.0011 14.2121 20.9471 14.4805 20.8422 14.7305C20.7372 14.9805 20.5835 15.2071 20.39 15.397C19.9965 15.7838 19.4668 16.0006 18.915 16.0006C18.3632 16.0006 17.8335 15.7838 17.44 15.397L14 12Z" fill="#D5D5D5" stroke="#D4D4D4" stroke-width="2" stroke-linecap="round" stroke-linejoin="round"/>
</svg>
