<svg width="48" height="48" viewBox="0 0 48 48" fill="none" xmlns="http://www.w3.org/2000/svg">
<path d="M0 24C0 10.7452 10.7452 0 24 0C37.2548 0 48 10.7452 48 24C48 37.2548 37.2548 48 24 48C10.7452 48 0 37.2548 0 24Z" fill="#DFDFDF" fill-opacity="0.5"/>
<path d="M31.0042 31.9422H17.0042C16.739 31.9422 16.4846 32.0476 16.2971 32.2351C16.1096 32.4227 16.0042 32.677 16.0042 32.9422C16.0042 33.2075 16.1096 33.4618 16.2971 33.6493C16.4846 33.8369 16.739 33.9422 17.0042 33.9422H31.0042C31.2694 33.9422 31.5238 33.8369 31.7113 33.6493C31.8988 33.4618 32.0042 33.2075 32.0042 32.9422C32.0042 32.677 31.8988 32.4227 31.7113 32.2351C31.5238 32.0476 31.2694 31.9422 31.0042 31.9422ZM17.0042 29.9422H17.0942L21.2642 29.5622C21.721 29.5167 22.1482 29.3155 22.4742 28.9922L31.4742 19.9922C31.8235 19.6232 32.0123 19.1307 31.9992 18.6228C31.9861 18.1148 31.7721 17.6327 31.4042 17.2822L28.6642 14.5422C28.3066 14.2063 27.838 14.0136 27.3475 14.0007C26.8571 13.9878 26.379 14.1556 26.0042 14.4722L17.0042 23.4722C16.681 23.7982 16.4797 24.2254 16.4342 24.6822L16.0042 28.8522C15.9907 28.9987 16.0097 29.1463 16.0599 29.2846C16.11 29.4229 16.19 29.5484 16.2942 29.6522C16.3876 29.7449 16.4985 29.8182 16.6203 29.868C16.7421 29.9178 16.8726 29.943 17.0042 29.9422ZM27.2742 15.9422L30.0042 18.6722L28.0042 20.6222L25.3242 17.9422L27.2742 15.9422Z" fill="#3D3D3D"/>
</svg>
