<svg width="24" height="25" viewBox="0 0 24 25" fill="none" xmlns="http://www.w3.org/2000/svg">
<g clip-path="url(#clip0_954_10069)">
<g filter="url(#filter0_dii_954_10069)">
<path fill-rule="evenodd" clip-rule="evenodd" d="M12 22C9.55 21.49 2 17.495 2 10.3125C2 9.1975 2.36687 8.11076 3.04865 7.20623C3.73043 6.30169 4.69256 5.62521 5.79874 5.27262C6.90491 4.92003 8.09907 4.90919 9.21204 5.24165C10.325 5.5741 11.3004 6.233 12 7.125C12.6996 6.233 13.675 5.5741 14.788 5.24165C15.9009 4.90919 17.0951 4.92003 18.2013 5.27262C19.3074 5.62521 20.2696 6.30169 20.9513 7.20623C21.6331 8.11076 22 9.1975 22 10.3125C22 17.495 14.45 21.49 12 22Z" fill="#F7F7F7"/>
</g>
</g>
<defs>
<filter id="filter0_dii_954_10069" x="-2" y="1" width="28" height="29" filterUnits="userSpaceOnUse" color-interpolation-filters="sRGB">
<feFlood flood-opacity="0" result="BackgroundImageFix"/>
<feColorMatrix in="SourceAlpha" type="matrix" values="0 0 0 0 0 0 0 0 0 0 0 0 0 0 0 0 0 0 127 0" result="hardAlpha"/>
<feOffset dy="4"/>
<feGaussianBlur stdDeviation="2"/>
<feComposite in2="hardAlpha" operator="out"/>
<feColorMatrix type="matrix" values="0 0 0 0 0 0 0 0 0 0 0 0 0 0 0 0 0 0 0.05 0"/>
<feBlend mode="normal" in2="BackgroundImageFix" result="effect1_dropShadow_954_10069"/>
<feBlend mode="normal" in="SourceGraphic" in2="effect1_dropShadow_954_10069" result="shape"/>
<feColorMatrix in="SourceAlpha" type="matrix" values="0 0 0 0 0 0 0 0 0 0 0 0 0 0 0 0 0 0 127 0" result="hardAlpha"/>
<feOffset dy="-5"/>
<feGaussianBlur stdDeviation="2"/>
<feComposite in2="hardAlpha" operator="arithmetic" k2="-1" k3="1"/>
<feColorMatrix type="matrix" values="0 0 0 0 0.968627 0 0 0 0 0.380392 0 0 0 0 0.34902 0 0 0 0.1 0"/>
<feBlend mode="normal" in2="shape" result="effect2_innerShadow_954_10069"/>
<feColorMatrix in="SourceAlpha" type="matrix" values="0 0 0 0 0 0 0 0 0 0 0 0 0 0 0 0 0 0 127 0" result="hardAlpha"/>
<feOffset dy="4"/>
<feGaussianBlur stdDeviation="2"/>
<feComposite in2="hardAlpha" operator="arithmetic" k2="-1" k3="1"/>
<feColorMatrix type="matrix" values="0 0 0 0 1 0 0 0 0 1 0 0 0 0 1 0 0 0 1 0"/>
<feBlend mode="normal" in2="effect2_innerShadow_954_10069" result="effect3_innerShadow_954_10069"/>
</filter>
<clipPath id="clip0_954_10069">
<rect width="24" height="24" fill="white" transform="translate(0 0.5)"/>
</clipPath>
</defs>
</svg>
