<svg width="78" height="78" viewBox="0 0 78 78" fill="none" xmlns="http://www.w3.org/2000/svg">
<g clip-path="url(#clip0_2432_7431)">
<rect width="9.61066" height="13.5768" rx="2" transform="matrix(0.930517 0.36625 -0.366745 0.930322 70.6057 1.00745)" fill="#242424"/>
<path d="M58.6036 10.8245C61.9354 12.4402 65.4625 13.4889 68.8053 15.0617C69.8566 15.5563 70.8859 15.7934 71.9414 16.2778C72.6678 16.6112 73.3096 16.7655 74.4399 17.1104C75.2788 17.4647 76.1159 17.7643 76.8668 17.998C77.7439 18.2711 78.0751 18.3806 78.9028 18.782C79.4261 19.0357 79.881 19.1102 80.5201 19.4201C80.642 19.4792 81.0593 19.6845 82.0439 19.9243" stroke="#242424" stroke-width="3" stroke-linecap="round"/>
<g filter="url(#filter0_ii_2432_7431)">
<ellipse cx="54.5411" cy="51.0656" rx="35.8252" ry="35.8053" transform="rotate(-15 54.5411 51.0656)" fill="#FFDE88"/>
</g>
<path d="M33.1292 43.3193C35.2358 51.1809 31.0691 58.9751 24.0386 60.8589C17.0081 62.7428 9.50249 58.0761 7.39597 50.2145C5.28944 42.3528 9.45615 34.5586 16.4866 32.6748C23.5171 30.791 31.0227 35.4576 33.1292 43.3193Z" stroke="#242424" stroke-width="2"/>
<path d="M68.9973 36.9168C71.0798 44.6886 66.3927 52.7186 58.4971 54.8342C50.6015 56.9498 42.5275 52.3392 40.445 44.5674C38.3626 36.7956 43.0496 28.7656 50.9452 26.65C58.8408 24.5344 66.9149 29.145 68.9973 36.9168Z" stroke="#242424" stroke-width="2"/>
<path d="M33.4767 45.337C34.0301 45.1888 34.5841 45.1656 35.1473 45.0647C36.0911 44.8958 37.0199 44.5849 37.946 44.3368C38.4396 44.2045 38.9348 44.1705 39.444 44.034" stroke="#242424" stroke-width="2" stroke-linecap="round"/>
<path d="M69.8004 39.7184C70.6777 40.2246 71.7163 39.8347 72.6815 39.8075C73.4635 39.7855 74.3134 39.6727 75.0729 39.4979C75.6542 39.3642 76.2413 39.3173 76.8031 39.1668C77.2292 39.0526 77.6658 38.8726 78.0798 38.9572" stroke="#242424" stroke-width="2" stroke-linecap="round"/>
<path d="M6.73546 49.7278C5.4185 50.0807 4.02374 50.0925 2.70288 50.0134" stroke="#242424" stroke-width="2" stroke-linecap="round"/>
<path d="M25.4387 45.6827C25.1306 45.8079 25.3581 46.371 25.4159 46.5867C25.5398 47.0494 25.7208 47.1737 26.1296 47.3817C26.9588 47.8037 27.3637 47.485 27.9761 46.99C29.3065 45.9146 27.0674 44.028 25.8889 44.6421C25.2294 44.9857 25.2275 46.1916 25.7558 46.5913C25.9239 46.7185 26.5719 47.0222 26.755 46.9124C27.0478 46.7369 26.7559 46.1462 26.6916 45.9063C26.6432 45.7256 26.2634 45.2789 26.1864 45.6148C26.0687 46.1281 26.104 46.7524 26.5476 47.1004C26.8746 47.3569 27.2012 47.029 27.3271 46.7664C27.5624 46.2758 27.0503 45.8039 26.9978 46.0598" stroke="#242424" stroke-width="3" stroke-linecap="round"/>
<path d="M45.2419 42.0603C45.2266 42.5713 44.5929 43.101 44.7478 43.6794C44.8108 43.9144 45.4222 44.9049 45.5995 44.879C46.045 44.8141 47.115 44.7719 47.2372 44.1753C47.3292 43.7261 46.9441 43.0177 46.6199 42.7509C45.2975 41.6628 44.6236 43.898 45.7806 44.5655C46.1779 44.7948 47.2128 44.6259 47.3609 44.1421C47.5446 43.542 47.1526 42.9604 46.6468 42.6039C46.2329 42.3121 45.9541 42.2543 45.4546 42.6068C44.6817 43.1524 45.2178 43.5363 45.7534 43.9693C46.1476 44.2881 46.9075 44.2302 47.2603 43.9041C47.8434 43.3651 47.5951 42.693 46.9895 42.1514C45.824 41.1091 45.0811 42.4496 45.4085 43.6717C45.5719 44.2813 46.7609 44.0379 47.1916 43.9225C47.7217 43.7805 47.3183 42.9268 47.1146 42.6184" stroke="#242424" stroke-width="3" stroke-linecap="round"/>
<ellipse cx="68.8571" cy="53.094" rx="7.01694" ry="3.59601" transform="rotate(-15 68.8571 53.094)" fill="url(#paint0_radial_2432_7431)"/>
<ellipse rx="5.33847" ry="3.59602" transform="matrix(0.983715 -0.179736 0.179647 0.983731 24.2746 64.036)" fill="url(#paint1_radial_2432_7431)"/>
<path d="M37.5323 55.2769C36.5833 57.1392 37.643 61.5043 40.135 59.4898C41.5192 58.3709 39.9213 54.4404 38.0333 54.9463" stroke="#242424" stroke-width="2" stroke-linecap="round"/>
<path d="M17.5003 24.4577C16.9851 24.4005 13.6447 23.0496 13.2743 22.737C12.5283 22.1076 11.5074 21.2865 10.9045 20.5113C10.4261 19.8962 10.2401 19.8047 9.89492 19.1833C9.14019 17.4464 10.2331 16.2522 11.4475 15.8474C12.257 15.7058 12.9653 15.6538 13.7648 16.098C14.5644 16.5422 14.6512 16.6986 15.291 17.341C15.8717 17.924 16.0449 18.1738 16.3775 17.7346C16.6553 17.2344 17.1841 16.4986 17.5847 16.098C18.3459 15.3368 19.8489 14.39 21.2736 15.4407C22.4779 16.486 22.1945 18.0469 21.6895 19.1833C21.1533 20.3898 20.8625 20.9433 19.7042 22.4295C19.3258 22.915 18.5738 23.6368 17.8582 24.4577" stroke="#3D3D3D" stroke-width="2" stroke-linecap="round"/>
</g>
<defs>
<filter id="filter0_ii_2432_7431" x="18.7083" y="5.25" width="71.6656" height="85.6311" filterUnits="userSpaceOnUse" color-interpolation-filters="sRGB">
<feFlood flood-opacity="0" result="BackgroundImageFix"/>
<feBlend mode="normal" in="SourceGraphic" in2="BackgroundImageFix" result="shape"/>
<feColorMatrix in="SourceAlpha" type="matrix" values="0 0 0 0 0 0 0 0 0 0 0 0 0 0 0 0 0 0 127 0" result="hardAlpha"/>
<feOffset dy="4"/>
<feGaussianBlur stdDeviation="5"/>
<feComposite in2="hardAlpha" operator="arithmetic" k2="-1" k3="1"/>
<feColorMatrix type="matrix" values="0 0 0 0 1 0 0 0 0 1 0 0 0 0 1 0 0 0 0.25 0"/>
<feBlend mode="normal" in2="shape" result="effect1_innerShadow_2432_7431"/>
<feColorMatrix in="SourceAlpha" type="matrix" values="0 0 0 0 0 0 0 0 0 0 0 0 0 0 0 0 0 0 127 0" result="hardAlpha"/>
<feOffset dy="-10"/>
<feGaussianBlur stdDeviation="10"/>
<feComposite in2="hardAlpha" operator="arithmetic" k2="-1" k3="1"/>
<feColorMatrix type="matrix" values="0 0 0 0 1 0 0 0 0 0.66 0 0 0 0 0 0 0 0 0.6 0"/>
<feBlend mode="normal" in2="effect1_innerShadow_2432_7431" result="effect2_innerShadow_2432_7431"/>
</filter>
<radialGradient id="paint0_radial_2432_7431" cx="0" cy="0" r="1" gradientUnits="userSpaceOnUse" gradientTransform="translate(68.8571 53.094) rotate(90) scale(3.59601 7.01694)">
<stop stop-color="#F76159"/>
<stop offset="1" stop-color="#F76159" stop-opacity="0"/>
</radialGradient>
<radialGradient id="paint1_radial_2432_7431" cx="0" cy="0" r="1" gradientUnits="userSpaceOnUse" gradientTransform="translate(5.33847 3.59602) rotate(90) scale(3.59602 5.33847)">
<stop stop-color="#F76159"/>
<stop offset="1" stop-color="#F76159" stop-opacity="0"/>
</radialGradient>
<clipPath id="clip0_2432_7431">
<rect width="78" height="78" fill="white"/>
</clipPath>
</defs>
</svg>
