<svg width="284" height="67" viewBox="0 0 284 67" fill="none" xmlns="http://www.w3.org/2000/svg">
<path fill-rule="evenodd" clip-rule="evenodd" d="M114.966 14.9999V1L98.7705 14.9999L9.5 14.9999C7.29087 14.9999 5.5 16.7908 5.5 18.9999L5.5 57.9999C5.5 60.209 7.29086 61.9999 9.5 61.9999L272.5 61.9999C274.709 61.9999 276.5 60.2091 276.5 57.9999V18.9999C276.5 16.7908 274.709 14.9999 272.5 14.9999L114.966 14.9999Z" fill="#3D3D3D"/>
<path fill-rule="evenodd" clip-rule="evenodd" d="M119.325 19.9999V1.99951L98.2367 19.9999L14.5 19.9999C12.2909 19.9999 10.5 21.7908 10.5 23.9999L10.5 61.9999C10.5 64.209 12.2909 65.9999 14.5 65.9999L279.5 65.9999C281.709 65.9999 283.5 64.2091 283.5 61.9999V23.9999C283.5 21.7908 281.709 19.9999 279.5 19.9999L119.325 19.9999Z" fill="#F7F7F7"/>
<path d="M119.325 1.99951H119.825V0.915344L119 1.61921L119.325 1.99951ZM119.325 19.9999H118.825V20.4999H119.325V19.9999ZM98.2367 19.9999V20.4999H98.4211L98.5613 20.3802L98.2367 19.9999ZM14.5 19.9999L14.5 20.4999H14.5V19.9999ZM10.5 23.9999H11H10.5ZM10.5 61.9999H10H10.5ZM14.5 65.9999V65.4999V65.9999ZM279.5 65.9999V66.4999V65.9999ZM279.5 19.9999V20.4999V19.9999ZM118.825 1.99951V19.9999H119.825V1.99951H118.825ZM98.5613 20.3802L119.65 2.37981L119 1.61921L97.9121 19.6196L98.5613 20.3802ZM14.5 20.4999L98.2367 20.4999V19.4999L14.5 19.4999V20.4999ZM11 23.9999C11 22.0669 12.567 20.4999 14.5 20.4999L14.5 19.4999C12.0147 19.4999 10 21.5146 10 23.9999H11ZM11 61.9999L11 23.9999H10L10 61.9999H11ZM14.5 65.4999C12.567 65.4999 11 63.9329 11 61.9999H10C10 64.4852 12.0147 66.4999 14.5 66.4999V65.4999ZM279.5 65.4999L14.5 65.4999V66.4999L279.5 66.4999V65.4999ZM283 61.9999C283 63.9329 281.433 65.4999 279.5 65.4999V66.4999C281.985 66.4999 284 64.4852 284 61.9999H283ZM283 23.9999V61.9999H284V23.9999H283ZM279.5 20.4999C281.433 20.4999 283 22.0669 283 23.9999H284C284 21.5147 281.985 19.4999 279.5 19.4999V20.4999ZM119.325 20.4999L279.5 20.4999V19.4999L119.325 19.4999V20.4999Z" fill="#3D3D3D"/>
<path d="M27.716 38.696H30.596V45.128H27.716V38.696ZM25.636 46.792H32.676V37.032H25.636V46.792ZM38.868 41.192H36.724V35.656H34.612V50.376H36.724V42.936H38.868V41.192ZM46.0628 35.928C42.8148 35.928 40.7348 37.016 40.7348 38.792C40.7348 40.584 42.8148 41.656 46.0628 41.656C49.3108 41.656 51.4068 40.584 51.4068 38.792C51.4068 37.016 49.3108 35.928 46.0628 35.928ZM46.0628 37.544C48.0788 37.544 49.2308 37.96 49.2308 38.792C49.2308 39.624 48.0788 40.04 46.0628 40.04C44.0628 40.04 42.9108 39.624 42.9108 38.792C42.9108 37.96 44.0628 37.544 46.0628 37.544ZM40.9588 45.208V50.2H51.1348V45.208H40.9588ZM49.0548 46.856V48.552H43.0228V46.856H49.0548ZM39.4068 42.504V44.168H52.7188V42.504H39.4068ZM56.9375 45.4C56.1375 45.4 55.6575 44.296 55.6575 42.024C55.6575 39.768 56.1375 38.664 56.9375 38.664C57.7535 38.664 58.2175 39.768 58.2175 42.024C58.2175 44.296 57.7535 45.4 56.9375 45.4ZM61.2735 41.064H60.1055C59.8655 38.312 58.6815 36.68 56.9375 36.68C54.9855 36.68 53.7535 38.696 53.7535 42.024C53.7535 45.368 54.9855 47.384 56.9375 47.384C58.7295 47.384 59.9295 45.656 60.1215 42.776H61.2735V49.72H63.2415V35.88H61.2735V41.064ZM64.2655 35.624V50.36H66.2655V35.624H64.2655ZM82.8893 42.44H74.6333V38.568H82.7773V36.856H72.5213V44.12H82.8893V42.44ZM70.9693 46.888V48.616H84.3133V46.888H70.9693ZM97.06 39.624H88.948V36.168H86.836V41.304H97.06V39.624ZM88.82 45.672H86.692V50.072H97.14V48.376H88.82V45.672ZM85.188 42.808V44.504H98.532V42.808H85.188ZM111.22 42.168C108.9 41.448 107.908 39.72 107.908 37.944V36.44H105.764V37.768C105.764 39.768 104.772 41.736 102.308 42.552L103.412 44.216C105.092 43.64 106.228 42.504 106.868 41.048C107.492 42.296 108.564 43.288 110.116 43.8L111.22 42.168ZM109.316 48.744C107.428 48.744 106.42 48.36 106.42 47.528C106.42 46.712 107.428 46.328 109.316 46.328C111.188 46.328 112.196 46.712 112.196 47.528C112.196 48.36 111.188 48.744 109.316 48.744ZM109.316 44.696C106.244 44.696 104.324 45.752 104.324 47.528C104.324 49.32 106.244 50.376 109.316 50.376C112.372 50.376 114.292 49.32 114.292 47.528C114.292 45.752 112.372 44.696 109.316 44.696ZM114.132 39.064V35.656H112.02V44.36H114.132V40.808H116.084V39.064H114.132ZM119.247 39.048H122.623V37.336H117.167V47.064H118.191C120.079 47.064 121.647 47 123.439 46.664L123.279 44.952C121.871 45.208 120.623 45.288 119.247 45.32V39.048ZM127.391 35.624V41.304H126.062V35.912H124.095V49.688H126.062V43H127.391V50.376H129.391V35.624H127.391ZM134.281 45.4C133.481 45.4 133.001 44.296 133.001 42.024C133.001 39.768 133.481 38.664 134.281 38.664C135.097 38.664 135.561 39.768 135.561 42.024C135.561 44.296 135.097 45.4 134.281 45.4ZM138.617 41.064H137.449C137.209 38.312 136.025 36.68 134.281 36.68C132.329 36.68 131.097 38.696 131.097 42.024C131.097 45.368 132.329 47.384 134.281 47.384C136.073 47.384 137.273 45.656 137.465 42.776H138.617V49.72H140.585V35.88H138.617V41.064ZM141.609 35.624V50.36H143.609V35.624H141.609ZM152.756 41.272H151.108C151.46 40.072 151.588 38.776 151.588 37.384H145.812V39.064H149.492C149.236 41.944 147.94 44.072 144.996 45.832L146.196 47.32C148.276 46.104 149.62 44.648 150.452 42.968H152.756V49.72H154.724V35.96H152.756V41.272ZM155.86 35.624V50.36H157.86V35.624H155.86ZM200.601 38.04H192.633V41.56H202.937V40.136H194.713V39.368H202.681V35.896H192.601V37.32H200.601V38.04ZM194.585 48.024H202.729V44.52H192.473V45.944H200.633V46.696H192.489V50.248H203.129V48.824H194.585V48.024ZM190.969 42.264V43.784H204.313V42.264H190.969ZM211.817 40.504H218.121V42.568H211.817V40.504ZM216.025 46.952V44.248H220.201V36.552H218.121V38.84H211.817V36.552H209.721V44.248H213.913V46.952H208.313V48.664H221.657V46.952H216.025ZM225.22 37.272H223.108V46.792H224.132C225.604 46.792 227.3 46.712 229.22 46.36L229.044 44.584C227.636 44.84 226.372 44.936 225.22 44.968V37.272ZM233.14 35.624V41.304H231.812V35.896H229.844V49.672H231.812V43.016H233.14V50.36H235.156V35.624H233.14ZM241.455 36.92H239.423V39.4C239.423 41.912 238.639 44.552 236.479 45.864L237.743 47.448C239.071 46.648 239.935 45.24 240.447 43.608C240.911 45.096 241.695 46.344 242.943 47.112L244.095 45.48C242.095 44.152 241.455 41.704 241.455 39.32V36.92ZM244.399 40.616H242.559V42.328H244.399V49.72H246.367V35.88H244.399V40.616ZM247.391 35.64V50.376H249.391V35.64H247.391ZM256.009 44.136C256.521 44.232 257.049 44.28 257.625 44.28C258.201 44.28 258.745 44.232 259.257 44.136V46.952H256.009V44.136ZM257.625 38.024C259.673 38.024 261.049 38.856 261.049 40.328C261.049 41.784 259.673 42.632 257.625 42.632C255.577 42.632 254.217 41.784 254.217 40.328C254.217 38.856 255.577 38.024 257.625 38.024ZM261.353 46.952V43.352C262.457 42.664 263.129 41.608 263.129 40.328C263.129 37.912 260.809 36.36 257.625 36.36C254.457 36.36 252.137 37.912 252.137 40.328C252.121 41.608 252.793 42.664 253.913 43.352V46.952H250.969V48.664H264.313V46.952H261.353Z" fill="#6F6F6F"/>
<path d="M166.788 45.64C165.796 45.64 165.06 44.968 165.06 43.848C165.06 42.728 165.796 42.04 166.788 42.04C167.78 42.04 168.5 42.728 168.5 43.832C168.5 44.968 167.78 45.64 166.788 45.64ZM166.788 40.328C164.644 40.328 163.044 41.784 163.044 43.832C163.044 45.912 164.644 47.368 166.788 47.368C168.916 47.368 170.5 45.912 170.5 43.832C170.5 41.784 168.916 40.328 166.788 40.328ZM167.828 35.896H165.716V37.816H162.452V39.496H171.028V37.816H167.828V35.896ZM176.212 41.4H174.1V35.64H171.988V50.376H174.1V43.144H176.212V41.4ZM188.671 43.24H180.463V41.592H188.223V39.96H180.463V38.408H188.559V36.712H178.319V44.904H188.671V43.24ZM176.751 46.968V48.68H190.095V46.968H176.751Z" fill="#F76159"/>
</svg>
