<svg width="24" height="24" viewBox="0 0 24 24" fill="none" xmlns="http://www.w3.org/2000/svg">
<path d="M10 3C9.44772 3 9 3.44772 9 4H5C4.44772 4 4 4.44772 4 5C4 5.55228 4.44772 6 5 6V19C5 19.5304 5.21071 20.0391 5.58579 20.4142C5.96086 20.7893 6.46957 21 7 21H17C17.5304 21 18.0391 20.7893 18.4142 20.4142C18.7893 20.0391 19 19.5304 19 19V6C19.5523 6 20 5.55228 20 5C20 4.44772 19.5523 4 19 4H15C15 3.44772 14.5523 3 14 3H10ZM9 9C9 8.44772 9.44772 8 10 8C10.5523 8 11 8.44772 11 9V16C11 16.5523 10.5523 17 10 17C9.44772 17 9 16.5523 9 16V9ZM13 9C13 8.44772 13.4477 8 14 8C14.5523 8 15 8.44772 15 9V16C15 16.5523 14.5523 17 14 17C13.4477 17 13 16.5523 13 16V9Z" fill="#BABABA"/>
</svg>
