<svg width="48" height="48" viewBox="0 0 48 48" fill="none" xmlns="http://www.w3.org/2000/svg">
<rect width="48" height="48" rx="24" fill="#323232"/>
<path d="M22 15C21.4477 15 21 15.4477 21 16V16H17C16.4477 16 16 16.4477 16 17V17C16 17.5523 16.4477 18 17 18V18V31C17 31.5304 17.2107 32.0391 17.5858 32.4142C17.9609 32.7893 18.4696 33 19 33H29C29.5304 33 30.0391 32.7893 30.4142 32.4142C30.7893 32.0391 31 31.5304 31 31V18V18C31.5523 18 32 17.5523 32 17V17C32 16.4477 31.5523 16 31 16H27V16C27 15.4477 26.5523 15 26 15H22ZM21 21C21 20.4477 21.4477 20 22 20V20C22.5523 20 23 20.4477 23 21V28C23 28.5523 22.5523 29 22 29V29C21.4477 29 21 28.5523 21 28V21ZM25 21C25 20.4477 25.4477 20 26 20V20C26.5523 20 27 20.4477 27 21V28C27 28.5523 26.5523 29 26 29V29C25.4477 29 25 28.5523 25 28V21Z" fill="#E3E3E3"/>
</svg>
