<svg width="296" height="237" viewBox="0 0 296 237" fill="none" xmlns="http://www.w3.org/2000/svg">
<g filter="url(#filter0_ii_3050_6921)">
<circle cx="149.23" cy="87.2093" r="64.2093" fill="#DFDFDF"/>
</g>
<ellipse cx="188.576" cy="100.449" rx="12.5764" ry="6.44869" fill="url(#paint0_radial_3050_6921)"/>
<ellipse cx="103.319" cy="99.3053" rx="10.8325" ry="6.44869" transform="rotate(4.6482 103.319 99.3053)" fill="url(#paint1_radial_3050_6921)"/>
<path d="M139.833 69.956C139.833 84.6904 128.895 96.4119 115.666 96.4119C102.438 96.4119 91.4999 84.6904 91.4999 69.956C91.4999 55.2215 102.438 43.5 115.666 43.5C128.895 43.5 139.833 55.2215 139.833 69.956Z" stroke="#6F6F6F" stroke-width="3"/>
<path d="M204.899 69.956C204.899 84.5508 192.925 96.4119 178.117 96.4119C163.31 96.4119 151.335 84.5508 151.335 69.956C151.335 55.3611 163.31 43.5 178.117 43.5C192.925 43.5 204.899 55.3611 204.899 69.956Z" stroke="#6F6F6F" stroke-width="3"/>
<path d="M141 70C142.027 70 142.997 70.217 144.018 70.3038C145.731 70.4491 147.483 70.3417 149.201 70.3417C150.117 70.3417 150.99 70.5126 151.935 70.5126" stroke="#6F6F6F" stroke-width="3" stroke-linecap="round"/>
<path d="M92.1138 68.3769C89.6702 68.3769 87.25 67.75 85 67" stroke="#6F6F6F" stroke-width="3" stroke-linecap="round"/>
<path d="M213.114 67C210.67 67 208.25 67.6268 206 68.3768" stroke="#6F6F6F" stroke-width="3" stroke-linecap="round"/>
<path d="M125.472 67.6364C124.88 67.7103 125.013 68.7913 125.013 69.1917C125.013 70.0506 125.268 70.35 125.879 70.9001C127.119 72.0158 127.968 71.6518 129.258 71.0786C132.06 69.8332 129.059 65.5261 126.734 66.0428C125.433 66.3319 124.87 68.4198 125.599 69.3575C125.831 69.6558 126.812 70.4825 127.18 70.3774C127.768 70.2093 127.537 69.0507 127.537 68.6053C127.537 68.2698 127.087 67.3196 126.797 67.8659C126.356 68.7003 126.127 69.7981 126.734 70.6069C127.181 71.2029 127.898 70.7865 128.238 70.3901C128.873 69.6494 128.205 68.5943 127.996 69.0133" stroke="#6F6F6F" stroke-width="3" stroke-linecap="round"/>
<path d="M163.606 67.0876C163.343 67.9656 162 68.589 162 69.6628C162 70.0991 162.599 72.0986 162.918 72.1361C163.719 72.2304 165.591 72.6538 166.079 71.6771C166.447 70.9419 166.109 69.5359 165.672 68.9234C163.887 66.4249 161.683 69.9838 163.377 71.6771C163.958 72.2586 165.828 72.4464 166.309 71.6771C166.905 70.7229 166.497 69.5336 165.786 68.6812C165.205 67.9837 164.749 67.7541 163.721 68.133C162.13 68.7192 162.88 69.6331 163.606 70.6317C164.141 71.3668 165.483 71.6192 166.245 71.2182C167.505 70.5552 167.387 69.2757 166.589 68.0565C165.055 65.7101 163.147 67.6872 163.147 69.956C163.147 71.0879 165.319 71.2182 166.118 71.2182C167.101 71.2182 166.799 69.5522 166.589 68.9234" stroke="#6F6F6F" stroke-width="3" stroke-linecap="round"/>
<path d="M197.298 118.866C189.162 120.819 170.091 123.714 158.896 119.665C144.902 114.603 142.982 131.337 147.7 135.129C152.418 138.921 158.765 144.391 179.473 142.202L196.568 139.872" stroke="#6F6F6F" stroke-width="3" stroke-linecap="round"/>
<path d="M92.7974 118.866C100.934 120.819 120.004 123.714 131.199 119.665C145.193 114.603 147.113 131.337 142.395 135.129C137.677 138.921 131.33 144.391 110.623 142.202L93.5273 139.872" stroke="#6F6F6F" stroke-width="3" stroke-linecap="round"/>
<path d="M199.659 42.0651C199.503 43.1394 200.698 45.3188 201.342 46.4629C202.416 48.372 202.087 50.5606 202.482 52.4815C203.045 55.2177 205.96 64.6768 206.969 67.4174" stroke="#6F6F6F" stroke-width="3" stroke-linecap="round"/>
<path d="M209.377 38.4028C211.898 36.1372 215.145 30.5567 207.966 26.3593C202.951 23.4274 200.254 27.1206 198.975 31.3916C197.868 26.8287 191.363 26.6373 188.671 27.5475C181.443 30.5156 185.512 36.4233 188.989 40.2599C186.276 41.5503 185.054 42.8912 184.842 44.3585L184.838 46.1566C185.556 49.067 188.37 54.8243 193.879 54.5706C199.388 54.317 199.996 46.2495 199.612 42.2475C200.785 44.4346 203.98 49.5007 207.69 50.0387C210.784 50.4873 212.039 50.8895 215.845 44.601C218.889 39.5702 212.801 38.3727 209.377 38.4028Z" fill="#B0E519"/>
<path d="M189.862 40.0022C188.645 39.6853 187.278 37.8311 186.55 36.8549C185.848 35.9151 185.437 34.5648 185.218 33.4217C184.765 31.0582 185.299 29.8874 187.021 28.1288C188.423 26.6972 191.116 26.6947 192.944 26.9596C194.958 27.2517 195.806 28.0949 197.381 29.1899" stroke="#6F6F6F" stroke-width="2.5" stroke-linecap="round"/>
<path d="M197.706 33.799C197.305 33.6887 197.713 31.014 197.784 30.5261C197.955 29.3459 198.541 27.8937 199.47 27.1115C201.056 25.7745 203.203 25.2724 205.248 25.5688C206.082 25.6898 206.949 25.7533 207.749 26.0306C208.476 26.283 208.964 26.3394 209.702 26.9971C210.548 27.7509 211.159 28.5138 211.762 29.6474C211.766 29.9914 212.153 30.6154 212.038 31.4134C211.968 32.5004 211.587 33.7331 211.436 34.1293C210.916 35.501 209.993 36.5098 209.364 37.4139" stroke="#6F6F6F" stroke-width="2.5" stroke-linecap="round"/>
<path d="M199.771 43.2035C199.734 44.3033 201.385 46.2375 202.279 47.2922C203.396 48.3285 203.577 48.7611 204.67 49.3477C205.22 49.6433 206.196 50.1592 206.826 50.2505C207.723 50.3805 208.983 50.4476 209.887 50.3447C210.818 50.2387 211.375 49.886 212.164 49.548C212.828 49.2636 213.56 48.5969 214.097 48.1054C214.76 47.4987 214.882 47.0528 215.61 45.9324C216.073 45.0867 216.413 44.9196 216.641 42.5008C216.275 40.289 216.353 40.186 215.395 39.34C214.514 38.5626 213.768 38.3812 212.223 38.0429C210.679 37.7045 210.126 37.8012 209.008 37.6392" stroke="#6F6F6F" stroke-width="2.5" stroke-linecap="round"/>
<path d="M199.719 43.0293C199.183 44.6061 199.122 47.6516 198.473 49.0971C198.006 50.1365 197.415 51.3196 196.7 52.234C196.071 53.0395 194.347 54.04 192.97 54.1402C191.643 54.2367 190.637 53.861 189.529 53.2446C188.448 52.7558 187.612 51.9153 186.72 50.9872C186.016 50.2556 185.638 48.3762 185.603 47.4075C185.567 46.406 185.467 45.3593 185.788 44.2378C186.218 43.0422 186.468 42.7122 187.193 41.9953" stroke="#6F6F6F" stroke-width="2.5" stroke-linecap="round"/>
<path d="M135.237 103.992C135.513 101.928 137.725 101.013 139.346 100.295C142.001 99.1203 143.84 98.0834 146.694 98.5887C148.514 98.911 150.62 99.986 151.994 101.079C152.581 101.546 153.108 102.362 153.67 103.128C154.264 103.937 154.412 105.368 155.194 105.589" stroke="#6F6F6F" stroke-width="3" stroke-linecap="round"/>
<path d="M94.1298 193.52H90.3698V188H94.1298V193.52ZM87.7498 193.52H85.3498V195.62H99.1898V193.52H96.7498V188H99.2498V185.9H85.2498V188H87.7498V193.52ZM83.9498 198.44V200.58H100.63V198.44H83.9498ZM111.488 198.54V195.8H117.068V193.68H106.388V191.62H116.648V185.48H103.748V187.58H114.048V189.56H103.768V195.8H108.848V198.54H101.848V200.7H118.528V198.54H111.488ZM135.087 184.32H132.447V193.74H135.087V184.32ZM124.527 187.46H126.467V191.18C125.827 191.22 125.167 191.24 124.527 191.26V187.46ZM131.147 190.84C130.447 190.92 129.747 190.98 129.007 191.04V187.46H130.447V185.42H120.527V187.46H121.987V191.3L120.067 191.32L120.327 193.4C123.507 193.4 127.647 193.3 131.267 192.7L131.147 190.84ZM125.267 200.54V199.44H135.087V194.48H122.627V196.5H132.467V197.56H122.647V202.58H135.607V200.54H125.267ZM145.965 186.5C148.645 186.5 149.905 186.88 149.905 187.7C149.905 188.56 148.645 188.92 145.965 188.92C143.305 188.92 142.045 188.56 142.045 187.7C142.045 186.88 143.305 186.5 145.965 186.5ZM145.965 190.84C150.185 190.84 152.645 189.74 152.645 187.7C152.645 185.68 150.185 184.56 145.965 184.56C141.765 184.56 139.305 185.68 139.305 187.7C139.305 189.74 141.765 190.84 145.965 190.84ZM142.185 199.56H152.265V194.82H139.545V196.76H149.665V197.74H139.565V202.58H152.745V200.6H142.185V199.56ZM137.645 191.72V193.78H154.285V191.72H137.645ZM174.355 189.36H164.235V186.9H174.255V184.8H161.615V191.44H174.355V189.36ZM167.855 200.72C165.395 200.72 164.135 200.3 164.135 199.34C164.135 198.38 165.395 197.94 167.855 197.94C170.315 197.94 171.575 198.38 171.575 199.34C171.575 200.3 170.315 200.72 167.855 200.72ZM167.855 195.94C163.875 195.94 161.475 197.16 161.475 199.34C161.475 201.5 163.875 202.72 167.855 202.72C171.835 202.72 174.255 201.5 174.255 199.34C174.255 197.16 171.835 195.94 167.855 195.94ZM159.595 192.72V194.88H176.255V192.72H159.595ZM179.313 199.38H189.593V202.66H192.233V197.3H179.313V199.38ZM187.133 194.16V192.84H192.493V190.84H182.153V189.64H192.113V184.66H179.513V186.66H189.513V187.78H179.553V192.84H184.493V194.16H177.473V196.26H194.153V194.16H187.133ZM206.232 186.24H202.112V184.28H199.452V186.24H195.372V188.3H206.212L206.232 186.24ZM198.792 192.5C198.792 191.5 199.612 190.96 200.792 190.96C201.952 190.96 202.792 191.5 202.792 192.5C202.792 193.52 201.952 194.06 200.792 194.06C199.612 194.06 198.792 193.52 198.792 192.5ZM205.312 192.5C205.312 190.42 203.432 188.96 200.792 188.96C198.152 188.96 196.272 190.42 196.272 192.5C196.272 194.62 198.152 196.06 200.792 196.06C203.432 196.06 205.312 194.62 205.312 192.5ZM200.632 197.06H197.992V202.4H210.532V200.3H200.632V197.06ZM209.872 189.92V184.3H207.232V198.08H209.872V192.1H212.312V189.92H209.872ZM98.2191 226.8C96.9791 226.8 96.0591 225.96 96.0591 224.56C96.0591 223.16 96.9791 222.3 98.2191 222.3C99.4591 222.3 100.359 223.16 100.359 224.54C100.359 225.96 99.4591 226.8 98.2191 226.8ZM98.2191 220.16C95.5391 220.16 93.5391 221.98 93.5391 224.54C93.5391 227.14 95.5391 228.96 98.2191 228.96C100.879 228.96 102.859 227.14 102.859 224.54C102.859 221.98 100.879 220.16 98.2191 220.16ZM99.5191 214.62H96.8791V217.02H92.7991V219.12H103.519V217.02H99.5191V214.62ZM109.999 221.5H107.359V214.3H104.719V232.72H107.359V223.68H109.999V221.5ZM111.478 215.58V217.68H116.038C115.678 220.16 114.038 222.02 110.597 223.28L111.818 225.2C116.618 223.34 118.778 220.24 118.778 215.58H111.478ZM113.738 227.94H123.858V232.74H126.498V225.82H113.738V227.94ZM123.998 214.3V218.56H122.418V214.62H119.958V225H122.418V220.68H123.998V225.06H126.498V214.3H123.998ZM141.316 214.28V232.76H143.956V214.28H141.316ZM134.056 215.58C131.276 215.58 129.216 218.1 129.216 222.14C129.216 226.2 131.276 228.74 134.056 228.74C136.836 228.74 138.896 226.2 138.896 222.14C138.896 218.1 136.836 215.58 134.056 215.58ZM134.056 217.96C135.416 217.96 136.356 219.42 136.356 222.14C136.356 224.88 135.416 226.34 134.056 226.34C132.696 226.34 131.756 224.88 131.756 222.14C131.756 219.42 132.696 217.96 134.056 217.96ZM153.386 219.32C153.386 217.96 154.366 217.16 155.706 217.16C157.066 217.16 158.046 217.96 158.046 219.32C158.046 220.7 157.066 221.5 155.706 221.5C154.366 221.5 153.386 220.7 153.386 219.32ZM163.386 220.38V224.04H166.026V214.3H163.386V218.24H160.426C159.926 216.28 158.066 214.98 155.706 214.98C152.946 214.98 150.866 216.8 150.866 219.32C150.866 221.86 152.946 223.68 155.706 223.68C158.066 223.68 159.946 222.36 160.446 220.38H163.386ZM156.946 230.54H155.086V228.8H156.946V230.54ZM164.826 224.94H162.226V226.32C162.226 227.98 161.386 229.68 159.366 230.62V225.1H156.946V226.9H155.086V225.1H152.646V232.5H159.366V231.12L160.406 232.7C161.886 232.12 162.886 231.08 163.486 229.82C164.086 231.1 165.106 232.14 166.646 232.7L167.946 230.74C165.706 229.96 164.826 228.22 164.826 226.32V224.94ZM173.564 226.34C172.224 226.34 171.324 224.88 171.324 222.14C171.324 219.42 172.224 217.96 173.564 217.96C174.924 217.96 175.824 219.42 175.824 222.14C175.824 224.88 174.924 226.34 173.564 226.34ZM181.344 214.28V220.92H178.264C177.904 217.6 176.044 215.58 173.564 215.58C170.824 215.58 168.804 218.1 168.804 222.14C168.804 226.2 170.824 228.74 173.564 228.74C176.124 228.74 178.004 226.58 178.284 223.06H181.344V232.76H183.984V214.28H181.344ZM192.723 224.92C193.363 225.04 194.023 225.1 194.743 225.1C195.463 225.1 196.143 225.04 196.783 224.92V228.44H192.723V224.92ZM194.743 217.28C197.303 217.28 199.023 218.32 199.023 220.16C199.023 221.98 197.303 223.04 194.743 223.04C192.183 223.04 190.483 221.98 190.483 220.16C190.483 218.32 192.183 217.28 194.743 217.28ZM199.403 228.44V223.94C200.783 223.08 201.623 221.76 201.623 220.16C201.623 217.14 198.723 215.2 194.743 215.2C190.783 215.2 187.883 217.14 187.883 220.16C187.863 221.76 188.703 223.08 190.103 223.94V228.44H186.423V230.58H203.103V228.44H199.403Z" fill="#8B8B8B"/>
<defs>
<filter id="filter0_ii_3050_6921" x="85.0206" y="13" width="128.419" height="142.419" filterUnits="userSpaceOnUse" color-interpolation-filters="sRGB">
<feFlood flood-opacity="0" result="BackgroundImageFix"/>
<feBlend mode="normal" in="SourceGraphic" in2="BackgroundImageFix" result="shape"/>
<feColorMatrix in="SourceAlpha" type="matrix" values="0 0 0 0 0 0 0 0 0 0 0 0 0 0 0 0 0 0 127 0" result="hardAlpha"/>
<feOffset dy="4"/>
<feGaussianBlur stdDeviation="5"/>
<feComposite in2="hardAlpha" operator="arithmetic" k2="-1" k3="1"/>
<feColorMatrix type="matrix" values="0 0 0 0 1 0 0 0 0 1 0 0 0 0 1 0 0 0 0.25 0"/>
<feBlend mode="normal" in2="shape" result="effect1_innerShadow_3050_6921"/>
<feColorMatrix in="SourceAlpha" type="matrix" values="0 0 0 0 0 0 0 0 0 0 0 0 0 0 0 0 0 0 127 0" result="hardAlpha"/>
<feOffset dy="-10"/>
<feGaussianBlur stdDeviation="10"/>
<feComposite in2="hardAlpha" operator="arithmetic" k2="-1" k3="1"/>
<feColorMatrix type="matrix" values="0 0 0 0 0.4 0 0 0 0 0.4 0 0 0 0 0.4 0 0 0 0.3 0"/>
<feBlend mode="normal" in2="effect1_innerShadow_3050_6921" result="effect2_innerShadow_3050_6921"/>
</filter>
<radialGradient id="paint0_radial_3050_6921" cx="0" cy="0" r="1" gradientUnits="userSpaceOnUse" gradientTransform="translate(188.576 100.449) rotate(90) scale(6.44869 12.5764)">
<stop stop-color="#919191"/>
<stop offset="1" stop-color="#909090" stop-opacity="0"/>
</radialGradient>
<radialGradient id="paint1_radial_3050_6921" cx="0" cy="0" r="1" gradientUnits="userSpaceOnUse" gradientTransform="translate(103.319 99.3053) rotate(90) scale(6.44869 10.8325)">
<stop stop-color="#919191"/>
<stop offset="1" stop-color="#909090" stop-opacity="0"/>
</radialGradient>
</defs>
</svg>
