<svg width="296" height="237" viewBox="0 0 296 237" fill="none" xmlns="http://www.w3.org/2000/svg">
<g filter="url(#filter0_ii_3050_6921)">
<circle cx="149.23" cy="87.2093" r="64.2093" fill="#DFDFDF"/>
</g>
<ellipse cx="188.576" cy="100.449" rx="12.5764" ry="6.44869" fill="url(#paint0_radial_3050_6921)"/>
<ellipse cx="103.319" cy="99.3053" rx="10.8325" ry="6.44869" transform="rotate(4.6482 103.319 99.3053)" fill="url(#paint1_radial_3050_6921)"/>
<path d="M139.833 69.956C139.833 84.6904 128.895 96.4119 115.667 96.4119C102.438 96.4119 91.5 84.6904 91.5 69.956C91.5 55.2215 102.438 43.5 115.667 43.5C128.895 43.5 139.833 55.2215 139.833 69.956Z" stroke="#6F6F6F" stroke-width="3"/>
<path d="M204.899 69.956C204.899 84.5508 192.925 96.4119 178.117 96.4119C163.31 96.4119 151.335 84.5508 151.335 69.956C151.335 55.3611 163.31 43.5 178.117 43.5C192.925 43.5 204.899 55.3611 204.899 69.956Z" stroke="#6F6F6F" stroke-width="3"/>
<path d="M141 70C142.027 70 142.997 70.217 144.019 70.3038C145.731 70.4491 147.483 70.3417 149.201 70.3417C150.117 70.3417 150.99 70.5126 151.935 70.5126" stroke="#6F6F6F" stroke-width="3" stroke-linecap="round"/>
<path d="M92.1138 68.3769C89.6702 68.3769 87.25 67.75 85 67" stroke="#6F6F6F" stroke-width="3" stroke-linecap="round"/>
<path d="M213.114 67C210.67 67 208.25 67.6268 206 68.3768" stroke="#6F6F6F" stroke-width="3" stroke-linecap="round"/>
<path d="M125.472 67.6364C124.88 67.7103 125.013 68.7913 125.013 69.1917C125.013 70.0506 125.268 70.35 125.88 70.9001C127.119 72.0158 127.968 71.6518 129.258 71.0786C132.06 69.8332 129.059 65.5261 126.734 66.0428C125.433 66.3319 124.87 68.4198 125.599 69.3575C125.831 69.6558 126.812 70.4825 127.18 70.3774C127.768 70.2093 127.537 69.0507 127.537 68.6053C127.537 68.2698 127.087 67.3196 126.798 67.8659C126.356 68.7003 126.127 69.7981 126.734 70.6069C127.181 71.2029 127.898 70.7865 128.238 70.3901C128.873 69.6494 128.205 68.5943 127.996 69.0133" stroke="#6F6F6F" stroke-width="3" stroke-linecap="round"/>
<path d="M163.606 67.0876C163.343 67.9656 162 68.589 162 69.6628C162 70.0991 162.599 72.0986 162.918 72.1361C163.719 72.2304 165.591 72.6538 166.08 71.6771C166.447 70.9419 166.109 69.5359 165.672 68.9234C163.887 66.4249 161.684 69.9838 163.377 71.6771C163.958 72.2586 165.828 72.4464 166.309 71.6771C166.905 70.7229 166.497 69.5336 165.786 68.6812C165.205 67.9837 164.749 67.7541 163.721 68.133C162.13 68.7192 162.88 69.6331 163.606 70.6317C164.141 71.3668 165.483 71.6192 166.245 71.2182C167.505 70.5552 167.387 69.2757 166.59 68.0565C165.055 65.7101 163.147 67.6872 163.147 69.956C163.147 71.0879 165.319 71.2182 166.118 71.2182C167.102 71.2182 166.799 69.5522 166.59 68.9234" stroke="#6F6F6F" stroke-width="3" stroke-linecap="round"/>
<path d="M197.298 118.866C189.162 120.819 170.091 123.714 158.896 119.665C144.902 114.603 142.982 131.337 147.7 135.129C152.418 138.921 158.765 144.391 179.473 142.202L196.568 139.872" stroke="#6F6F6F" stroke-width="3" stroke-linecap="round"/>
<path d="M92.7973 118.866C100.933 120.819 120.004 123.714 131.199 119.665C145.193 114.603 147.113 131.337 142.395 135.129C137.677 138.921 131.33 144.391 110.623 142.202L93.5272 139.872" stroke="#6F6F6F" stroke-width="3" stroke-linecap="round"/>
<path d="M199.659 42.0651C199.503 43.1394 200.698 45.3188 201.342 46.4629C202.416 48.372 202.087 50.5606 202.482 52.4815C203.045 55.2177 205.96 64.6768 206.969 67.4174" stroke="#6F6F6F" stroke-width="3" stroke-linecap="round"/>
<path d="M209.377 38.4028C211.898 36.1372 215.145 30.5567 207.966 26.3593C202.951 23.4274 200.254 27.1206 198.975 31.3916C197.868 26.8287 191.363 26.6373 188.671 27.5475C181.443 30.5156 185.512 36.4233 188.989 40.2599C186.276 41.5503 185.054 42.8912 184.842 44.3585L184.838 46.1566C185.556 49.067 188.37 54.8243 193.879 54.5706C199.388 54.317 199.996 46.2495 199.612 42.2475C200.785 44.4346 203.98 49.5007 207.69 50.0387C210.784 50.4873 212.039 50.8895 215.845 44.601C218.889 39.5702 212.801 38.3727 209.377 38.4028Z" fill="#B0E519"/>
<path d="M189.862 40.0022C188.645 39.6853 187.278 37.8311 186.55 36.8549C185.848 35.9151 185.437 34.5648 185.218 33.4217C184.765 31.0582 185.299 29.8874 187.021 28.1288C188.423 26.6972 191.116 26.6947 192.944 26.9596C194.958 27.2517 195.806 28.0949 197.381 29.1899" stroke="#6F6F6F" stroke-width="2.5" stroke-linecap="round"/>
<path d="M197.706 33.799C197.305 33.6887 197.713 31.014 197.784 30.5261C197.955 29.3459 198.541 27.8937 199.47 27.1115C201.056 25.7745 203.203 25.2724 205.248 25.5688C206.082 25.6898 206.949 25.7533 207.749 26.0306C208.476 26.283 208.964 26.3394 209.702 26.9971C210.548 27.7509 211.159 28.5138 211.762 29.6474C211.766 29.9914 212.153 30.6154 212.038 31.4134C211.968 32.5004 211.587 33.7331 211.436 34.1293C210.916 35.501 209.993 36.5098 209.364 37.4139" stroke="#6F6F6F" stroke-width="2.5" stroke-linecap="round"/>
<path d="M199.771 43.2035C199.734 44.3033 201.385 46.2375 202.279 47.2922C203.396 48.3285 203.577 48.7611 204.67 49.3477C205.22 49.6433 206.196 50.1592 206.826 50.2505C207.723 50.3805 208.983 50.4476 209.887 50.3447C210.818 50.2387 211.375 49.886 212.164 49.548C212.828 49.2636 213.56 48.5969 214.097 48.1054C214.76 47.4987 214.882 47.0528 215.61 45.9324C216.073 45.0867 216.413 44.9196 216.641 42.5008C216.275 40.289 216.354 40.186 215.395 39.34C214.514 38.5626 213.768 38.3812 212.224 38.0429C210.68 37.7045 210.126 37.8012 209.008 37.6392" stroke="#6F6F6F" stroke-width="2.5" stroke-linecap="round"/>
<path d="M199.719 43.0293C199.183 44.6061 199.123 47.6516 198.473 49.0971C198.006 50.1365 197.415 51.3196 196.701 52.234C196.071 53.0395 194.347 54.04 192.97 54.1402C191.644 54.2367 190.637 53.861 189.529 53.2446C188.448 52.7558 187.612 51.9153 186.72 50.9872C186.017 50.2556 185.638 48.3762 185.603 47.4075C185.568 46.406 185.467 45.3593 185.788 44.2378C186.218 43.0422 186.468 42.7122 187.193 41.9953" stroke="#6F6F6F" stroke-width="2.5" stroke-linecap="round"/>
<path d="M135.237 103.992C135.513 101.928 137.725 101.013 139.346 100.295C142.001 99.1203 143.84 98.0834 146.694 98.5887C148.514 98.911 150.62 99.986 151.994 101.079C152.581 101.546 153.108 102.362 153.67 103.128C154.264 103.937 154.412 105.368 155.194 105.589" stroke="#6F6F6F" stroke-width="3" stroke-linecap="round"/>
<path d="M123.247 187.04H128.947V184.94H120.607V197.32H122.107C125.467 197.32 127.667 197.24 130.147 196.78L129.887 194.64C127.787 195 125.887 195.14 123.247 195.16V187.04ZM132.567 183.3V189.66H128.067V191.78H132.567V201.78H135.207V183.3H132.567ZM154.296 183.28V201.76H156.936V183.28H154.296ZM147.036 184.58C144.256 184.58 142.196 187.1 142.196 191.14C142.196 195.2 144.256 197.74 147.036 197.74C149.816 197.74 151.876 195.2 151.876 191.14C151.876 187.1 149.816 184.58 147.036 184.58ZM147.036 186.96C148.396 186.96 149.336 188.42 149.336 191.14C149.336 193.88 148.396 195.34 147.036 195.34C145.676 195.34 144.736 193.88 144.736 191.14C144.736 188.42 145.676 186.96 147.036 186.96ZM170.435 191.46C167.535 190.56 166.295 188.4 166.295 186.18V184.3H163.615V185.96C163.615 188.46 162.375 190.92 159.295 191.94L160.675 194.02C162.775 193.3 164.195 191.88 164.995 190.06C165.775 191.62 167.115 192.86 169.055 193.5L170.435 191.46ZM168.055 199.68C165.695 199.68 164.435 199.2 164.435 198.16C164.435 197.14 165.695 196.66 168.055 196.66C170.395 196.66 171.655 197.14 171.655 198.16C171.655 199.2 170.395 199.68 168.055 199.68ZM168.055 194.62C164.215 194.62 161.815 195.94 161.815 198.16C161.815 200.4 164.215 201.72 168.055 201.72C171.875 201.72 174.275 200.4 174.275 198.16C174.275 195.94 171.875 194.62 168.055 194.62ZM174.075 187.58V183.32H171.435V194.2H174.075V189.76H176.515V187.58H174.075ZM36.6925 219.82C40.2325 219.58 42.5325 218.46 43.4925 216.86C44.4525 218.46 46.7725 219.58 50.3125 219.82L51.1325 217.86C47.8125 217.66 46.0125 216.76 45.4725 215.76H50.3325V213.76H36.6925V215.76H41.5125C40.9725 216.76 39.1725 217.66 35.8725 217.86L36.6925 219.82ZM43.4525 230.04C41.5325 230.04 40.5725 229.84 40.5725 229.36C40.5725 228.86 41.5325 228.66 43.4525 228.66C45.3925 228.66 46.3725 228.86 46.3725 229.36C46.3725 229.84 45.3925 230.04 43.4525 230.04ZM43.4525 226.92C39.9125 226.92 37.8525 227.78 37.8525 229.36C37.8525 230.94 39.9125 231.78 43.4525 231.78C47.0325 231.78 49.0925 230.94 49.0925 229.36C49.0925 227.78 47.0325 226.92 43.4525 226.92ZM44.7925 223.12H42.1525V224.42H36.6725V226.38H50.2925V224.42H44.7925V223.12ZM44.7925 220.48V218.8H42.1525V220.48H35.1725V222.54H51.8725V220.48H44.7925ZM58.0109 225.34C56.6309 225.34 55.7109 223.88 55.7109 221.14C55.7109 218.42 56.6309 216.96 58.0109 216.96C59.3709 216.96 60.3109 218.42 60.3109 221.14C60.3109 223.88 59.3709 225.34 58.0109 225.34ZM58.0109 214.58C55.2109 214.58 53.1709 217.1 53.1709 221.14C53.1709 225.2 55.2109 227.74 58.0109 227.74C60.7909 227.74 62.8509 225.2 62.8509 221.14C62.8509 217.1 60.7909 214.58 58.0109 214.58ZM70.1709 220.24H67.4909V213.3H64.8509V231.72H67.4909V222.42H70.1709V220.24ZM77.2694 223.92C77.9094 224.04 78.5694 224.1 79.2894 224.1C80.0094 224.1 80.6894 224.04 81.3294 223.92V227.44H77.2694V223.92ZM79.2894 216.28C81.8494 216.28 83.5694 217.32 83.5694 219.16C83.5694 220.98 81.8494 222.04 79.2894 222.04C76.7294 222.04 75.0294 220.98 75.0294 219.16C75.0294 217.32 76.7294 216.28 79.2894 216.28ZM83.9494 227.44V222.94C85.3294 222.08 86.1694 220.76 86.1694 219.16C86.1694 216.14 83.2694 214.2 79.2894 214.2C75.3294 214.2 72.4294 216.14 72.4294 219.16C72.4094 220.76 73.2494 222.08 74.6494 222.94V227.44H70.9694V229.58H87.6494V227.44H83.9494ZM100.908 216.3H90.9478V220.7H103.828V218.92H93.5478V217.96H103.508V213.62H90.9078V215.4H100.908V216.3ZM93.3878 228.78H103.568V224.4H90.7478V226.18H100.948V227.12H90.7678V231.56H104.068V229.78H93.3878V228.78ZM88.8678 221.58V223.48H105.548V221.58H88.8678ZM115.178 219.38H123.058V221.96H115.178V219.38ZM120.438 227.44V224.06H125.658V214.44H123.058V217.3H115.178V214.44H112.558V224.06H117.798V227.44H110.798V229.58H127.478V227.44H120.438ZM140.336 219.08H141.896V222.64H144.396V213.32H141.896V216.98H140.336V213.64H137.876V222.58H140.336V219.08ZM136.776 219.44C135.096 219.74 133.656 219.86 132.056 219.88V214.3H129.436V222.04H130.656C132.916 222.04 134.816 221.96 136.996 221.54L136.776 219.44ZM134.556 229.46V228.3H144.396V223.3H131.876V225.34H141.756V226.4H131.916V231.52H144.976V229.46H134.556ZM161.486 221.46C158.586 220.56 157.346 218.4 157.346 216.18V214.3H154.666V215.96C154.666 218.46 153.426 220.92 150.346 221.94L151.726 224.02C153.826 223.3 155.246 221.88 156.046 220.06C156.826 221.62 158.166 222.86 160.106 223.5L161.486 221.46ZM159.106 229.68C156.746 229.68 155.486 229.2 155.486 228.16C155.486 227.14 156.746 226.66 159.106 226.66C161.446 226.66 162.706 227.14 162.706 228.16C162.706 229.2 161.446 229.68 159.106 229.68ZM159.106 224.62C155.266 224.62 152.866 225.94 152.866 228.16C152.866 230.4 155.266 231.72 159.106 231.72C162.926 231.72 165.326 230.4 165.326 228.16C165.326 225.94 162.926 224.62 159.106 224.62ZM165.126 217.58V213.32H162.486V224.2H165.126V219.76H167.566V217.58H165.126ZM171.644 217.56H175.864V215.42H169.044V227.58H170.324C172.684 227.58 174.644 227.5 176.884 227.08L176.684 224.94C174.924 225.26 173.364 225.36 171.644 225.4V217.56ZM181.824 213.28V220.38H180.164V213.64H177.704V230.86H180.164V222.5H181.824V231.72H184.324V213.28H181.824ZM187.263 215.18V217.32H193.283C192.803 221.4 190.523 224.32 186.243 226.52L187.723 228.54C193.843 225.44 195.943 220.7 195.943 215.18H187.263ZM203.423 220.32H200.843V213.28H198.203V231.68H200.843V222.5H203.423V220.32ZM211.112 218.32C211.112 216.96 212.092 216.16 213.432 216.16C214.792 216.16 215.772 216.96 215.772 218.32C215.772 219.7 214.792 220.5 213.432 220.5C212.092 220.5 211.112 219.7 211.112 218.32ZM221.112 219.38V223.04H223.752V213.3H221.112V217.24H218.152C217.652 215.28 215.792 213.98 213.432 213.98C210.672 213.98 208.592 215.8 208.592 218.32C208.592 220.86 210.672 222.68 213.432 222.68C215.792 222.68 217.672 221.36 218.172 219.38H221.112ZM214.672 229.54H212.812V227.8H214.672V229.54ZM222.552 223.94H219.952V225.32C219.952 226.98 219.112 228.68 217.092 229.62V224.1H214.672V225.9H212.812V224.1H210.372V231.5H217.092V230.12L218.132 231.7C219.612 231.12 220.612 230.08 221.212 228.82C221.812 230.1 222.832 231.14 224.372 231.7L225.672 229.74C223.412 228.96 222.552 227.22 222.552 225.32V223.94ZM231.291 225.34C229.951 225.34 229.051 223.88 229.051 221.14C229.051 218.42 229.951 216.96 231.291 216.96C232.651 216.96 233.551 218.42 233.551 221.14C233.551 223.88 232.651 225.34 231.291 225.34ZM239.071 213.28V219.92H235.991C235.631 216.6 233.771 214.58 231.291 214.58C228.551 214.58 226.531 217.1 226.531 221.14C226.531 225.2 228.551 227.74 231.291 227.74C233.851 227.74 235.731 225.58 236.011 222.06H239.071V231.76H241.711V213.28H239.071ZM250.449 223.92C251.089 224.04 251.749 224.1 252.469 224.1C253.189 224.1 253.869 224.04 254.509 223.92V227.44H250.449V223.92ZM252.469 216.28C255.029 216.28 256.749 217.32 256.749 219.16C256.749 220.98 255.029 222.04 252.469 222.04C249.909 222.04 248.209 220.98 248.209 219.16C248.209 217.32 249.909 216.28 252.469 216.28ZM257.129 227.44V222.94C258.509 222.08 259.349 220.76 259.349 219.16C259.349 216.14 256.449 214.2 252.469 214.2C248.509 214.2 245.609 216.14 245.609 219.16C245.589 220.76 246.429 222.08 247.829 222.94V227.44H244.149V229.58H260.829V227.44H257.129Z" fill="#8B8B8B"/>
<defs>
<filter id="filter0_ii_3050_6921" x="85.0208" y="13" width="128.419" height="142.419" filterUnits="userSpaceOnUse" color-interpolation-filters="sRGB">
<feFlood flood-opacity="0" result="BackgroundImageFix"/>
<feBlend mode="normal" in="SourceGraphic" in2="BackgroundImageFix" result="shape"/>
<feColorMatrix in="SourceAlpha" type="matrix" values="0 0 0 0 0 0 0 0 0 0 0 0 0 0 0 0 0 0 127 0" result="hardAlpha"/>
<feOffset dy="4"/>
<feGaussianBlur stdDeviation="5"/>
<feComposite in2="hardAlpha" operator="arithmetic" k2="-1" k3="1"/>
<feColorMatrix type="matrix" values="0 0 0 0 1 0 0 0 0 1 0 0 0 0 1 0 0 0 0.25 0"/>
<feBlend mode="normal" in2="shape" result="effect1_innerShadow_3050_6921"/>
<feColorMatrix in="SourceAlpha" type="matrix" values="0 0 0 0 0 0 0 0 0 0 0 0 0 0 0 0 0 0 127 0" result="hardAlpha"/>
<feOffset dy="-10"/>
<feGaussianBlur stdDeviation="10"/>
<feComposite in2="hardAlpha" operator="arithmetic" k2="-1" k3="1"/>
<feColorMatrix type="matrix" values="0 0 0 0 0.4 0 0 0 0 0.4 0 0 0 0 0.4 0 0 0 0.3 0"/>
<feBlend mode="normal" in2="effect1_innerShadow_3050_6921" result="effect2_innerShadow_3050_6921"/>
</filter>
<radialGradient id="paint0_radial_3050_6921" cx="0" cy="0" r="1" gradientUnits="userSpaceOnUse" gradientTransform="translate(188.576 100.449) rotate(90) scale(6.44869 12.5764)">
<stop stop-color="#919191"/>
<stop offset="1" stop-color="#909090" stop-opacity="0"/>
</radialGradient>
<radialGradient id="paint1_radial_3050_6921" cx="0" cy="0" r="1" gradientUnits="userSpaceOnUse" gradientTransform="translate(103.319 99.3053) rotate(90) scale(6.44869 10.8325)">
<stop stop-color="#919191"/>
<stop offset="1" stop-color="#909090" stop-opacity="0"/>
</radialGradient>
</defs>
</svg>
