<svg width="24" height="25" viewBox="0 0 24 25" fill="none" xmlns="http://www.w3.org/2000/svg">
<path d="M12 3.5C10.22 3.5 8.47991 4.02784 6.99987 5.01677C5.51983 6.00571 4.36628 7.41131 3.68509 9.05585C3.0039 10.7004 2.82567 12.51 3.17294 14.2558C3.5202 16.0016 4.37737 17.6053 5.63604 18.864C6.89472 20.1226 8.49836 20.9798 10.2442 21.3271C11.99 21.6743 13.7996 21.4961 15.4442 20.8149C17.0887 20.1337 18.4943 18.9802 19.4832 17.5001C20.4722 16.0201 21 14.28 21 12.5C21 10.1131 20.0518 7.82387 18.364 6.13604C16.6761 4.44821 14.3869 3.5 12 3.5ZM10.8825 8C10.8825 7.70163 11.001 7.41548 11.212 7.2045C11.423 6.99353 11.7091 6.875 12.0075 6.875C12.3059 6.875 12.592 6.99353 12.803 7.2045C13.014 7.41548 13.1325 7.70163 13.1325 8V13.1675C13.1325 13.3152 13.1034 13.4615 13.0469 13.598C12.9903 13.7345 12.9075 13.8585 12.803 13.963C12.6985 14.0675 12.5745 14.1503 12.438 14.2069C12.3015 14.2634 12.1552 14.2925 12.0075 14.2925C11.8598 14.2925 11.7135 14.2634 11.577 14.2069C11.4405 14.1503 11.3165 14.0675 11.212 13.963C11.1075 13.8585 11.0247 13.7345 10.9681 13.598C10.9116 13.4615 10.8825 13.3152 10.8825 13.1675V8ZM12 18.125C11.7449 18.125 11.4955 18.0493 11.2833 17.9076C11.0712 17.7658 10.9058 17.5644 10.8082 17.3287C10.7106 17.0929 10.685 16.8336 10.7348 16.5833C10.7846 16.3331 10.9074 16.1032 11.0878 15.9228C11.2682 15.7424 11.4981 15.6196 11.7483 15.5698C11.9986 15.52 12.2579 15.5456 12.4937 15.6432C12.7294 15.7408 12.9309 15.9062 13.0726 16.1183C13.2143 16.3305 13.29 16.5799 13.29 16.835C13.29 17.1771 13.1541 17.5052 12.9122 17.7472C12.6702 17.9891 12.3421 18.125 12 18.125Z" fill="black"/>
</svg>
