<svg width="292" height="242" viewBox="0 0 292 242" fill="none" xmlns="http://www.w3.org/2000/svg">
<mask id="mask0_2297_5955" style="mask-type:alpha" maskUnits="userSpaceOnUse" x="17" y="11" width="259" height="220">
<path fill-rule="evenodd" clip-rule="evenodd" d="M146.404 230.707C114.895 224.124 17.795 172.562 17.795 79.86C17.795 65.4691 22.5134 51.4429 31.2817 39.7684C40.0501 28.0938 52.4239 19.3628 66.6504 14.812C80.8768 10.2611 96.2348 10.1213 110.549 14.4122C124.863 18.7031 137.407 27.2072 146.404 38.72C155.402 27.2072 167.946 18.7031 182.26 14.4122C196.574 10.1213 211.932 10.2611 226.159 14.812C240.385 19.3628 252.759 28.0938 261.527 39.7684C270.296 51.4429 275.014 65.4691 275.014 79.86C275.014 172.562 177.914 224.124 146.404 230.707Z" fill="#FFA19C"/>
</mask>
<g mask="url(#mask0_2297_5955)">
<g filter="url(#filter0_i_2297_5955)">
<path fill-rule="evenodd" clip-rule="evenodd" d="M146.404 230.707C114.895 224.124 17.795 172.562 17.795 79.86C17.795 65.4691 22.5134 51.4429 31.2817 39.7684C40.0501 28.0938 52.4239 19.3628 66.6504 14.812C80.8768 10.2611 96.2348 10.1213 110.549 14.4122C124.863 18.7031 137.407 27.2072 146.404 38.72C155.402 27.2072 167.946 18.7031 182.26 14.4122C196.574 10.1213 211.932 10.2611 226.159 14.812C240.385 19.3628 252.759 28.0938 261.527 39.7684C270.296 51.4429 275.014 65.4691 275.014 79.86C275.014 172.562 177.914 224.124 146.404 230.707Z" fill="#E9534B"/>
</g>
<ellipse rx="51.2987" ry="51.3855" transform="matrix(-1 0 0 1 244.446 66.5032)" fill="#9FCD1A"/>
<ellipse rx="51.2987" ry="51.3855" transform="matrix(-1 0 0 1 244.446 66.5032)" fill="#FFA19C"/>
<path d="M234.682 54.3596C235.045 54.4051 234.964 55.0698 234.964 55.316C234.964 55.8442 234.807 56.0282 234.431 56.3665C233.67 57.0526 233.149 56.8288 232.358 56.4763C230.637 55.7105 232.48 53.062 233.907 53.3797C234.706 53.5575 235.051 54.8414 234.604 55.4179C234.461 55.6014 233.859 56.1097 233.633 56.0451C233.272 55.9417 233.414 55.2293 233.414 54.9554C233.414 54.7491 233.69 54.1649 233.868 54.5007C234.139 55.0139 234.279 55.6889 233.907 56.1862C233.633 56.5527 233.192 56.2966 232.984 56.0529C232.594 55.5974 233.004 54.9487 233.132 55.2063" stroke="#242424" stroke-opacity="0.7" stroke-width="3" stroke-linecap="round"/>
<path d="M216.403 45.085C216.766 45.1305 216.685 45.7952 216.685 46.0414C216.685 46.5696 216.528 46.7536 216.152 47.0919C215.391 47.778 214.87 47.5542 214.078 47.2017C212.358 46.4359 214.201 43.7874 215.628 44.1051C216.427 44.2829 216.772 45.5668 216.325 46.1433C216.182 46.3268 215.58 46.8351 215.354 46.7705C214.993 46.6671 215.135 45.9547 215.135 45.6808C215.135 45.4745 215.411 44.8903 215.589 45.2261C215.86 45.7393 216 46.4143 215.628 46.9116C215.354 47.2781 214.913 47.0221 214.705 46.7783C214.315 46.3228 214.725 45.6741 214.853 45.9317" stroke="#242424" stroke-opacity="0.7" stroke-width="3" stroke-linecap="round"/>
<path d="M229.295 46.1741C227.133 46.1741 225.186 46.06 223.022 46.1741C221.419 46.2585 218.962 46.7968 218.242 48.4183C216.91 51.4213 217.413 54.8701 217.413 58.0237" stroke="#242424" stroke-opacity="0.7" stroke-width="3" stroke-linecap="round"/>
<path d="M212.736 71.1437C213.297 73.2083 214.027 74.9642 216.338 75.4555C217.819 75.7704 220.159 74.8348 220.819 73.5033" stroke="#242424" stroke-opacity="0.7" stroke-width="3" stroke-linecap="round"/>
<ellipse rx="50.6324" ry="50.6783" transform="matrix(0.977519 0.210847 -0.209768 0.977751 111.566 204.38)" fill="#F76159"/>
<ellipse rx="50.6324" ry="50.6783" transform="matrix(0.977519 0.210847 -0.209768 0.977751 111.566 204.38)" fill="#FFA19C"/>
<path d="M127.958 168.565C125.848 166.527 123.008 165.802 120.54 166.325" stroke="#242424" stroke-opacity="0.7" stroke-width="3" stroke-linecap="round"/>
<path d="M113.17 177.331C112.88 177.568 113.098 178.22 113.253 178.476C113.462 178.82 113.813 179.059 114.14 178.667C114.43 178.32 114.812 177.859 114.526 177.36C114.28 176.931 114.09 176.863 113.619 176.895C112.77 176.951 112.902 178.177 113.277 178.626C113.728 179.164 114.391 178.819 114.52 178.215" stroke="#242424" stroke-opacity="0.7" stroke-width="3" stroke-linecap="round"/>
<path d="M128.455 180.175C128.355 180.166 128.23 180.564 128.188 180.651C128.093 180.852 128.143 181.039 128.108 181.239C128.066 181.486 128.458 181.996 128.728 181.94C129.022 181.878 129.767 181.589 129.558 181.17C129.498 181.05 129.563 180.786 129.526 180.643C129.492 180.512 129.36 180.293 129.24 180.229C128.865 180.028 128.689 180.138 128.479 180.476C128.309 180.751 128.196 181.501 128.379 181.785C128.419 181.847 128.75 182.181 128.809 182.115C128.939 181.97 129.186 181.799 129.266 181.624C129.4 181.333 129.487 180.823 129.256 180.585" stroke="#242424" stroke-opacity="0.7" stroke-width="3" stroke-linecap="round"/>
<ellipse rx="46.4823" ry="46.5086" transform="matrix(0.950952 0.30934 -0.308006 0.951385 42.4005 67.5221)" fill="#FFA19C"/>
<path d="M49.091 41.6472C48.6673 41.5657 48.5173 42.3404 48.428 42.6164C48.2363 43.2083 48.3456 43.4719 48.6437 43.9879C49.2485 45.0346 49.9142 44.9739 50.9303 44.8677C53.1376 44.637 52.032 40.9963 50.3157 40.8316C49.3553 40.7394 48.5018 42.0523 48.7948 42.8619C48.888 43.1195 49.379 43.909 49.6558 43.919C50.0984 43.9349 50.1976 43.0846 50.297 42.7776C50.3718 42.5464 50.2738 41.7907 49.9528 42.1024C49.4624 42.5785 49.0601 43.2839 49.2973 43.9772C49.4722 44.4881 50.0592 44.3618 50.3816 44.1648C50.9841 43.7965 50.7597 42.9197 50.522 43.1616" stroke="#242424" stroke-opacity="0.7" stroke-width="3" stroke-linecap="round"/>
<path d="M67.7245 49.9302C67.3007 49.8487 67.1508 50.6234 67.0614 50.8994C66.8698 51.4913 66.979 51.7549 67.2772 52.271C67.8819 53.3176 68.5476 53.2569 69.5637 53.1507C71.771 52.92 70.6654 49.2793 68.9491 49.1146C67.9887 49.0225 67.1353 50.3354 67.4282 51.145C67.5214 51.4025 68.0124 52.192 68.2892 52.202C68.7318 52.2179 68.831 51.3676 68.9304 51.0606C69.0053 50.8294 68.9073 50.0737 68.5862 50.3854C68.0959 50.8615 67.6935 51.5669 67.9308 52.2602C68.1056 52.7711 68.6926 52.6449 69.015 52.4478C69.6175 52.0795 69.3931 51.2028 69.1554 51.4446" stroke="#242424" stroke-opacity="0.7" stroke-width="3" stroke-linecap="round"/>
<path d="M25.745 40.9966C21.8713 39.7365 19.99 38.5479 18.6545 42.6731C18.3649 43.5674 17.591 44.955 17.7115 45.9067C17.9265 47.605 21.4309 48.8368 23.0375 49.3594" stroke="#242424" stroke-width="3" stroke-linecap="round"/>
<path d="M46.2211 55.782C46.6634 56.5752 47.1521 57.3387 47.8988 57.923C48.1936 58.1536 48.3585 58.492 48.6076 58.7602C49.0406 59.2264 49.5375 59.6711 50.032 60.0772C52.2046 61.8613 54.7964 63.2219 57.4995 64.101C59.4946 64.7498 61.684 65.0999 63.7716 65.1296C64.2133 65.1358 64.782 64.9774 65.2003 65.0886C65.793 65.2462 66.319 64.6858 66.8963 64.7077C67.8478 64.7438 68.9579 64.2085 69.6055 63.5889" stroke="#242424" stroke-opacity="0.7" stroke-width="3" stroke-linecap="round"/>
<g filter="url(#filter1_d_2297_5955)">
<ellipse rx="47.2635" ry="47.1456" transform="matrix(-0.993595 0.112957 0.111892 0.993725 187.932 195.43)" fill="#FFA19C"/>
<ellipse rx="47.2635" ry="47.1456" transform="matrix(-0.993595 0.112957 0.111892 0.993725 187.932 195.43)" fill="#FFA19C"/>
</g>
<path d="M190.687 165.889C182.884 163.089 175.686 161.511 168.968 167.788C164.663 171.811 162.407 181.352 165.158 186.416" stroke="#242424" stroke-opacity="0.7" stroke-width="3" stroke-linecap="round"/>
<path d="M176.726 189.599C175.474 188.98 175.68 187.212 177.036 186.847C177.525 186.716 178.218 186.82 178.341 187.415C178.552 188.433 178.083 189.31 177.055 189.436C176.453 189.51 175.504 189.291 175.957 188.479C176.154 188.127 176.831 187.412 177.219 187.315C177.511 187.242 177.885 187.641 177.865 187.917C177.849 188.129 177.632 188.153 177.471 188.22" stroke="#242424" stroke-opacity="0.7" stroke-width="3" stroke-linecap="round"/>
<path d="M192.047 180.257C191.567 180.384 189.957 180.285 190.533 179.516C190.915 179.007 191.708 177.761 192.493 178.112C193.581 178.598 193.091 180.175 192.227 180.595C191.532 180.933 191.41 181.09 190.998 180.247C190.819 179.88 190.635 179.045 190.834 178.885C191.3 178.512 192.547 178.028 192.495 179.138C192.463 179.83 191.704 179.782 191.192 179.706C190.535 179.609 191.133 178.975 191.329 178.72" stroke="#242424" stroke-opacity="0.7" stroke-width="3" stroke-linecap="round"/>
<path d="M206.115 144.555C205.259 145.628 204.349 146.67 203.703 147.871C203.536 148.18 203.241 148.458 203.021 148.734C202.732 149.095 202.516 149.517 202.219 149.889" stroke="#242424" stroke-width="3" stroke-linecap="round"/>
<path d="M210.525 144.205C209.487 144.323 208.439 144.383 207.409 144.5C207.128 144.532 206.337 144.692 206.293 144.304C206.206 143.527 205.713 142.833 205.57 142.076C205.537 141.897 205.394 141.543 205.303 141.387C205.199 141.211 205.183 140.99 205.076 140.825" stroke="#242424" stroke-width="3" stroke-linecap="round"/>
<g filter="url(#filter2_ii_2297_5955)">
<ellipse cx="73.7792" cy="126.865" rx="55.9841" ry="56.0788" fill="#6892FF"/>
</g>
<path d="M101.77 114.707C101.905 115.393 102.654 116.201 103.011 116.766C103.915 118.195 104.659 119.787 105.624 121.163C106.389 122.256 107.011 123.244 107.617 124.322C107.957 124.926 107.075 124.757 106.666 124.644C106.094 124.486 105.215 124.729 104.632 124.796C103.386 124.939 102.163 125.22 100.901 125.34" stroke="#242424" stroke-width="3" stroke-linecap="round"/>
<path d="M110.704 134.235C109.254 137.131 107.647 139.517 104.071 139.554C101.779 139.577 98.5863 137.487 98.0049 135.314" stroke="#242424" stroke-width="3" stroke-linecap="round"/>
<path d="M28.0117 83.4219C29.162 84.5741 30.3718 85.6841 31.2924 87.016C31.5296 87.3593 31.9148 87.6483 32.2103 87.9443C32.5985 88.3332 32.9084 88.8019 33.3082 89.2025" stroke="#242424" stroke-width="3" stroke-linecap="round"/>
<ellipse rx="10.264" ry="5.26909" transform="matrix(0.918684 -0.394993 0.393867 0.919167 81.1335 126.877)" fill="url(#paint0_radial_2297_5955)"/>
<ellipse rx="8.00057" ry="5.26898" transform="matrix(0.911855 -0.410512 0.409359 0.912373 116.777 108.31)" fill="url(#paint1_radial_2297_5955)"/>
<path d="M87.3455 105.748C86.5878 107.226 88.0259 108.772 89.5732 108.161C90.1321 107.941 90.7186 107.35 90.4181 106.694C89.9042 105.571 88.8413 105.064 87.7735 105.671C87.1486 106.027 86.3985 106.908 87.4003 107.364C87.8344 107.562 88.9814 107.766 89.4195 107.584C89.7489 107.447 89.8256 106.801 89.6116 106.551C89.4478 106.359 89.2246 106.49 89.0245 106.54" stroke="#242424" stroke-width="3" stroke-linecap="round"/>
<path d="M99.6913 100.502C99.1442 100.721 97.6808 101.956 98.7695 102.283C99.4901 102.499 101.121 103.13 101.623 102.239C102.318 101.003 100.744 99.8414 99.6254 100.051C98.7257 100.22 98.4993 100.157 98.6987 101.255C98.7853 101.732 99.1974 102.662 99.4992 102.673C100.205 102.7 101.733 102.281 100.904 101.255C100.388 100.616 99.6978 101.199 99.2633 101.634C98.7055 102.193 99.7209 102.376 100.086 102.481" stroke="#242424" stroke-width="3" stroke-linecap="round"/>
<path d="M22.774 83.602C24.0118 83.602 25.254 83.5325 26.482 83.5325C26.8173 83.5325 27.7694 83.6154 27.7694 83.1502C27.7694 82.2213 28.2569 81.3341 28.3244 80.4205C28.3404 80.2043 28.4611 79.7669 28.548 79.5711C28.6466 79.3488 28.6366 79.0848 28.7407 78.8761" stroke="#242424" stroke-width="3" stroke-linecap="round"/>
<g filter="url(#filter3_dii_2297_5955)">
<ellipse rx="50.1066" ry="50.0043" transform="matrix(0.9999 -0.0167123 0.0165054 0.999824 225.383 130.736)" fill="#FFCD4D"/>
</g>
<path d="M198.864 112.981C199.051 124.295 190.788 133.389 180.671 133.558C170.554 133.727 161.995 124.914 161.809 113.6C161.622 102.286 169.884 93.1916 180.002 93.0225C190.119 92.8534 198.677 101.667 198.864 112.981Z" stroke="#242424" stroke-width="3"/>
<path d="M249.698 116.467C249.883 127.641 240.843 136.888 229.465 137.078C218.086 137.268 208.746 128.329 208.562 117.154C208.377 105.98 217.417 96.7331 228.795 96.5429C240.174 96.3528 249.514 105.293 249.698 116.467Z" stroke="#242424" stroke-width="3"/>
<path d="M199.443 115.991C200.244 115.977 200.311 115.976 201.109 116.03C202.908 115.991 203.812 116.014 205.153 115.992C205.868 115.98 206.551 116.102 207.288 116.089" stroke="#242424" stroke-width="3" stroke-linecap="round"/>
<path d="M249.937 120.537C250.955 121.52 252.496 121.344 253.815 121.634C254.883 121.869 256.075 122.004 257.165 122.024C257.999 122.04 258.811 122.175 259.624 122.162C260.241 122.152 260.895 122.056 261.428 122.31" stroke="#242424" stroke-width="3" stroke-linecap="round"/>
<path d="M160.98 112.715C159.073 112.747 157.177 112.291 155.412 111.736" stroke="#242424" stroke-width="3" stroke-linecap="round"/>
<path d="M187.727 113.576C187.266 113.642 187.383 114.481 187.388 114.793C187.399 115.462 187.603 115.692 188.087 116.112C189.068 116.965 189.726 116.67 190.725 116.207C192.896 115.201 190.498 111.886 188.691 112.319C187.679 112.561 187.267 114.194 187.848 114.915C188.033 115.144 188.809 115.775 189.095 115.688C189.552 115.55 189.356 114.651 189.35 114.304C189.346 114.043 188.983 113.309 188.764 113.738C188.43 114.393 188.266 115.251 188.75 115.873C189.106 116.331 189.661 115.997 189.921 115.684C190.406 115.099 189.872 114.286 189.714 114.615" stroke="#242424" stroke-width="3" stroke-linecap="round"/>
<path d="M215.823 115.381C215.628 116.068 214.588 116.571 214.602 117.407C214.608 117.747 215.101 119.296 215.35 119.321C215.977 119.384 217.443 119.689 217.811 118.922C218.089 118.345 217.807 117.255 217.458 116.784C216.033 114.861 214.36 117.661 215.703 118.958C216.164 119.403 217.625 119.525 217.99 118.919C218.444 118.169 218.109 117.248 217.544 116.593C217.082 116.058 216.723 115.885 215.926 116.194C214.692 116.671 215.289 117.373 215.868 118.141C216.295 118.706 217.345 118.885 217.935 118.563C218.909 118.03 218.801 117.036 218.163 116.097C216.936 114.29 215.472 115.854 215.501 117.621C215.516 118.502 217.212 118.575 217.835 118.565C218.603 118.552 218.346 117.258 218.174 116.772" stroke="#242424" stroke-width="3" stroke-linecap="round"/>
<ellipse rx="9.81349" ry="5.02144" transform="matrix(0.9999 -0.0167113 0.0165062 0.999824 244.114 138.338)" fill="url(#paint2_radial_2297_5955)"/>
<ellipse rx="7.46491" ry="5.02357" transform="matrix(0.997952 0.0642338 -0.0647092 0.997887 179.917 138.049)" fill="url(#paint3_radial_2297_5955)"/>
<path d="M201.102 130.729C199.182 132.931 199.137 139.204 203.203 137.318C205.461 136.271 204.628 130.405 201.894 130.451" stroke="#242424" stroke-width="3" stroke-linecap="round"/>
<path d="M109.563 100.353C111.522 100.571 113.673 101.688 115.76 101.984C121.206 102.757 126.848 102.434 132.337 102.777C135.728 102.99 141.589 103.828 144.595 101.758C147.083 100.045 150.175 98.8158 151.697 96.0717C152.445 94.7218 154.03 90.1934 152.895 88.7318C151.196 86.5433 148.551 86.5395 146.427 87.8936C144.647 89.0284 144.797 89.6446 143.578 91.5635C143.065 92.3706 143.134 91.5365 142.854 90.9745C142.234 89.7333 140.881 89.5061 139.71 89.1396C138.122 88.6425 135.468 88.5406 134.825 90.7933C132.895 97.5613 139.316 99.0569 144.166 101.486C146.882 102.847 150.157 103.751 153.031 104.839C155.882 105.918 160.55 106.549 162.801 108.599C163.835 109.541 166.341 110.754 167.686 111.273C169.274 111.884 170.856 112.899 172.661 112.994C176.268 113.184 179.646 113.402 183.246 113.402" stroke="white" stroke-width="3" stroke-linecap="round"/>
</g>
<defs>
<filter id="filter0_i_2297_5955" x="17.795" y="11.2933" width="257.219" height="223.413" filterUnits="userSpaceOnUse" color-interpolation-filters="sRGB">
<feFlood flood-opacity="0" result="BackgroundImageFix"/>
<feBlend mode="normal" in="SourceGraphic" in2="BackgroundImageFix" result="shape"/>
<feColorMatrix in="SourceAlpha" type="matrix" values="0 0 0 0 0 0 0 0 0 0 0 0 0 0 0 0 0 0 127 0" result="hardAlpha"/>
<feOffset dy="4"/>
<feGaussianBlur stdDeviation="10"/>
<feComposite in2="hardAlpha" operator="arithmetic" k2="-1" k3="1"/>
<feColorMatrix type="matrix" values="0 0 0 0 0.804167 0 0 0 0 0.190226 0 0 0 0 0.157483 0 0 0 0.5 0"/>
<feBlend mode="normal" in2="shape" result="effect1_innerShadow_2297_5955"/>
</filter>
<filter id="filter1_d_2297_5955" x="120.672" y="132.273" width="134.521" height="134.315" filterUnits="userSpaceOnUse" color-interpolation-filters="sRGB">
<feFlood flood-opacity="0" result="BackgroundImageFix"/>
<feColorMatrix in="SourceAlpha" type="matrix" values="0 0 0 0 0 0 0 0 0 0 0 0 0 0 0 0 0 0 127 0" result="hardAlpha"/>
<feOffset dy="4"/>
<feGaussianBlur stdDeviation="10"/>
<feComposite in2="hardAlpha" operator="out"/>
<feColorMatrix type="matrix" values="0 0 0 0 0 0 0 0 0 0 0 0 0 0 0 0 0 0 0.25 0"/>
<feBlend mode="normal" in2="BackgroundImageFix" result="effect1_dropShadow_2297_5955"/>
<feBlend mode="normal" in="SourceGraphic" in2="effect1_dropShadow_2297_5955" result="shape"/>
</filter>
<filter id="filter2_ii_2297_5955" x="17.795" y="60.7862" width="111.968" height="132.158" filterUnits="userSpaceOnUse" color-interpolation-filters="sRGB">
<feFlood flood-opacity="0" result="BackgroundImageFix"/>
<feBlend mode="normal" in="SourceGraphic" in2="BackgroundImageFix" result="shape"/>
<feColorMatrix in="SourceAlpha" type="matrix" values="0 0 0 0 0 0 0 0 0 0 0 0 0 0 0 0 0 0 127 0" result="hardAlpha"/>
<feOffset dy="10"/>
<feGaussianBlur stdDeviation="5"/>
<feComposite in2="hardAlpha" operator="arithmetic" k2="-1" k3="1"/>
<feColorMatrix type="matrix" values="0 0 0 0 1 0 0 0 0 1 0 0 0 0 1 0 0 0 0.1 0"/>
<feBlend mode="normal" in2="shape" result="effect1_innerShadow_2297_5955"/>
<feColorMatrix in="SourceAlpha" type="matrix" values="0 0 0 0 0 0 0 0 0 0 0 0 0 0 0 0 0 0 127 0" result="hardAlpha"/>
<feOffset dy="-10"/>
<feGaussianBlur stdDeviation="10"/>
<feComposite in2="hardAlpha" operator="arithmetic" k2="-1" k3="1"/>
<feColorMatrix type="matrix" values="0 0 0 0 0 0 0 0 0 0.22 0 0 0 0 1 0 0 0 0.3 0"/>
<feBlend mode="normal" in2="effect1_innerShadow_2297_5955" result="effect2_innerShadow_2297_5955"/>
</filter>
<filter id="filter3_dii_2297_5955" x="155.274" y="64.7338" width="140.217" height="140.005" filterUnits="userSpaceOnUse" color-interpolation-filters="sRGB">
<feFlood flood-opacity="0" result="BackgroundImageFix"/>
<feColorMatrix in="SourceAlpha" type="matrix" values="0 0 0 0 0 0 0 0 0 0 0 0 0 0 0 0 0 0 127 0" result="hardAlpha"/>
<feOffset dy="4"/>
<feGaussianBlur stdDeviation="10"/>
<feComposite in2="hardAlpha" operator="out"/>
<feColorMatrix type="matrix" values="0 0 0 0 0 0 0 0 0 0 0 0 0 0 0 0 0 0 0.25 0"/>
<feBlend mode="normal" in2="BackgroundImageFix" result="effect1_dropShadow_2297_5955"/>
<feBlend mode="normal" in="SourceGraphic" in2="effect1_dropShadow_2297_5955" result="shape"/>
<feColorMatrix in="SourceAlpha" type="matrix" values="0 0 0 0 0 0 0 0 0 0 0 0 0 0 0 0 0 0 127 0" result="hardAlpha"/>
<feOffset dy="10"/>
<feGaussianBlur stdDeviation="5"/>
<feComposite in2="hardAlpha" operator="arithmetic" k2="-1" k3="1"/>
<feColorMatrix type="matrix" values="0 0 0 0 1 0 0 0 0 1 0 0 0 0 1 0 0 0 0.1 0"/>
<feBlend mode="normal" in2="shape" result="effect2_innerShadow_2297_5955"/>
<feColorMatrix in="SourceAlpha" type="matrix" values="0 0 0 0 0 0 0 0 0 0 0 0 0 0 0 0 0 0 127 0" result="hardAlpha"/>
<feOffset dy="-10"/>
<feGaussianBlur stdDeviation="5"/>
<feComposite in2="hardAlpha" operator="arithmetic" k2="-1" k3="1"/>
<feColorMatrix type="matrix" values="0 0 0 0 1 0 0 0 0 0.42 0 0 0 0 0 0 0 0 0.3 0"/>
<feBlend mode="normal" in2="effect2_innerShadow_2297_5955" result="effect3_innerShadow_2297_5955"/>
</filter>
<radialGradient id="paint0_radial_2297_5955" cx="0" cy="0" r="1" gradientUnits="userSpaceOnUse" gradientTransform="translate(10.264 5.26909) rotate(90) scale(5.26909 10.264)">
<stop stop-color="#F76159"/>
<stop offset="1" stop-color="#F76159" stop-opacity="0"/>
</radialGradient>
<radialGradient id="paint1_radial_2297_5955" cx="0" cy="0" r="1" gradientUnits="userSpaceOnUse" gradientTransform="translate(8.00057 5.26898) rotate(90) scale(5.26898 8.00057)">
<stop stop-color="#F76159"/>
<stop offset="1" stop-color="#F76159" stop-opacity="0"/>
</radialGradient>
<radialGradient id="paint2_radial_2297_5955" cx="0" cy="0" r="1" gradientUnits="userSpaceOnUse" gradientTransform="translate(9.81349 5.02144) rotate(90) scale(5.02144 9.81349)">
<stop stop-color="#F76159"/>
<stop offset="1" stop-color="#F76159" stop-opacity="0"/>
</radialGradient>
<radialGradient id="paint3_radial_2297_5955" cx="0" cy="0" r="1" gradientUnits="userSpaceOnUse" gradientTransform="translate(7.46491 5.02357) rotate(90) scale(5.02357 7.46491)">
<stop stop-color="#F76159"/>
<stop offset="1" stop-color="#F76159" stop-opacity="0"/>
</radialGradient>
</defs>
</svg>
