<svg width="327" height="56" viewBox="0 0 327 56" fill="none" xmlns="http://www.w3.org/2000/svg">
<rect width="327" height="56" rx="28" fill="black"/>
<g clip-path="url(#clip0_2272_6907)">
<path d="M92.721 27.6832C92.7096 25.7159 93.5937 24.2333 95.3791 23.1401C94.3805 21.6978 92.8698 20.9046 90.8784 20.7517C88.9928 20.6017 86.9299 21.8593 86.1745 21.8593C85.3763 21.8593 83.5508 20.8036 82.1144 20.8036C79.1502 20.8498 76 23.1862 76 27.9399C76 29.3446 76.2546 30.7955 76.7639 32.2897C77.4449 34.2569 79.8999 39.0769 82.4607 38.9991C83.7997 38.9673 84.7468 38.0414 86.4893 38.0414C88.1803 38.0414 89.0558 38.9991 90.5494 38.9991C93.133 38.9616 95.3534 34.58 96 32.607C92.535 30.96 92.721 27.7841 92.721 27.6832ZM89.7139 18.8854C91.1645 17.149 91.0329 15.5682 90.99 15C89.7082 15.075 88.226 15.8798 87.382 16.8692C86.4521 17.9307 85.9056 19.2431 86.0229 20.7229C87.4077 20.8296 88.6724 20.1113 89.7139 18.8854Z" fill="white"/>
</g>
<path d="M113.016 22.84C111.112 22.84 109.88 24.824 109.88 28.024C109.88 31.24 111.112 33.224 113.016 33.224C114.936 33.224 116.168 31.24 116.168 28.024C116.168 24.824 114.936 22.84 113.016 22.84ZM113.016 24.408C114.008 24.408 114.616 25.72 114.616 28.024C114.616 30.328 114.008 31.64 113.016 31.64C112.024 31.64 111.416 30.328 111.416 28.024C111.416 25.72 112.024 24.408 113.016 24.408ZM120.616 21.704V36.328H122.216V21.704H120.616ZM118.536 27.4V28.76H121.176V27.4H118.536ZM117.384 21.976V35.624H118.968V21.976H117.384ZM125.139 22.12V23.4H135.939V22.12H125.139ZM125.219 25.768V27.048H135.859V25.768H125.219ZM127.187 22.616V26.6H128.867V22.616H127.187ZM132.211 22.616V26.6H133.891V22.616H132.211ZM123.939 28.056V29.384H137.155V28.056H123.939ZM125.507 30.456V31.672H133.859V32.696H125.523V35.432H127.187V33.848H135.507V30.456H125.507ZM125.523 34.952V36.2H135.923V34.952H125.523ZM145.155 22.776C142.979 22.776 141.411 24.776 141.411 27.928C141.411 31.08 142.979 33.096 145.155 33.096C147.331 33.096 148.899 31.08 148.899 27.928C148.899 24.776 147.331 22.776 145.155 22.776ZM145.155 24.296C146.419 24.296 147.299 25.656 147.299 27.928C147.299 30.216 146.419 31.592 145.155 31.592C143.891 31.592 143.011 30.216 143.011 27.928C143.011 25.656 143.891 24.296 145.155 24.296ZM150.915 21.704V36.328H152.595V21.704H150.915ZM152.211 27.4V28.792H154.867V27.4H152.211ZM165.838 21.688V36.344H167.518V21.688H165.838ZM159.726 22.776C157.55 22.776 155.966 24.776 155.966 27.928C155.966 31.08 157.55 33.096 159.726 33.096C161.918 33.096 163.502 31.08 163.502 27.928C163.502 24.776 161.918 22.776 159.726 22.776ZM159.726 24.296C161.006 24.296 161.886 25.656 161.886 27.928C161.886 30.216 161.006 31.592 159.726 31.592C158.446 31.592 157.566 30.216 157.566 27.928C157.566 25.656 158.446 24.296 159.726 24.296ZM180.057 21.704V36.36H181.737V21.704H180.057ZM170.617 31.384V32.792H171.833C174.857 32.792 176.745 32.712 178.857 32.312L178.697 30.92C176.617 31.304 174.809 31.384 171.833 31.384H170.617ZM170.617 23.048V31.912H172.281V24.424H177.577V23.048H170.617ZM183.924 33.24V34.616H197.172V33.24H183.924ZM189.684 30.264V33.8H191.348V30.264H189.684ZM185.476 22.728V24.072H193.924V26.024H185.508V30.072H187.172V27.352H195.588V22.728H185.476ZM185.508 29.384V30.744H195.924V29.384H185.508ZM204.948 22.904V25.304C204.948 28.104 203.444 30.92 201.108 31.976L202.116 33.368C204.74 32.088 206.324 28.84 206.324 25.304V22.904H204.948ZM205.268 22.904V25.304C205.268 28.712 206.852 31.832 209.428 33.048L210.42 31.704C208.116 30.68 206.628 27.992 206.628 25.304V22.904H205.268ZM211.588 21.688V36.344H213.268V21.688H211.588ZM218.895 23.208V24.264C218.895 26.248 217.615 28.136 215.311 28.92L216.191 30.216C218.783 29.336 220.271 26.984 220.271 24.264V23.208H218.895ZM219.215 23.208V24.264C219.215 26.824 220.639 29.08 223.199 29.944L224.047 28.632C221.807 27.896 220.575 26.104 220.575 24.264V23.208H219.215ZM215.791 22.648V24.008H223.647V22.648H215.791ZM225.183 21.704V30.504H226.863V21.704H225.183ZM226.399 25.416V26.808H228.927V25.416H226.399ZM217.247 31.224V32.584H225.183V36.328H226.863V31.224H217.247ZM239.338 21.704V36.328H241.002V21.704H239.338ZM240.618 27.576V28.968H243.274V27.576H240.618ZM229.594 23.96V25.304H238.17V23.96H229.594ZM233.93 26.36C231.834 26.36 230.298 27.768 230.298 29.768C230.298 31.784 231.834 33.192 233.93 33.192C236.01 33.192 237.546 31.784 237.546 29.768C237.546 27.768 236.01 26.36 233.93 26.36ZM233.93 27.736C235.098 27.736 235.946 28.536 235.946 29.768C235.946 31 235.098 31.816 233.93 31.816C232.746 31.816 231.898 31 231.898 29.768C231.898 28.536 232.746 27.736 233.93 27.736ZM233.066 21.912V24.52H234.746V21.912H233.066ZM254.276 21.704V36.328H255.956V21.704H254.276ZM249.988 23.256V23.544C249.988 27.448 248.212 30.344 244.004 32.376L244.884 33.72C249.908 31.272 251.636 27.592 251.636 23.256H249.988ZM244.724 23.256V24.6H250.74V23.256H244.724Z" fill="white"/>
<defs>
<clipPath id="clip0_2272_6907">
<rect x="106" y="48" width="40" height="40" rx="20" transform="rotate(180 106 48)" fill="white"/>
</clipPath>
</defs>
</svg>
