<svg width="332" height="56" viewBox="0 0 332 56" fill="none" xmlns="http://www.w3.org/2000/svg">
<rect width="332" height="56" rx="28" fill="black"/>
<g clip-path="url(#clip0_3100_7260)">
<path d="M118.221 27.6832C118.21 25.7159 119.094 24.2333 120.879 23.1401C119.881 21.6978 118.37 20.9046 116.378 20.7517C114.493 20.6017 112.43 21.8593 111.675 21.8593C110.876 21.8593 109.051 20.8036 107.614 20.8036C104.65 20.8498 101.5 23.1862 101.5 27.9399C101.5 29.3446 101.755 30.7955 102.264 32.2897C102.945 34.2569 105.4 39.0769 107.961 38.9991C109.3 38.9673 110.247 38.0414 111.989 38.0414C113.68 38.0414 114.556 38.9991 116.049 38.9991C118.633 38.9616 120.853 34.58 121.5 32.607C118.035 30.96 118.221 27.7841 118.221 27.6832V27.6832ZM115.214 18.8854C116.665 17.149 116.533 15.5682 116.49 15C115.208 15.075 113.726 15.8798 112.882 16.8692C111.952 17.9307 111.406 19.2431 111.523 20.7229C112.908 20.8296 114.172 20.1113 115.214 18.8854V18.8854Z" fill="white"/>
</g>
<path d="M134.828 30.184L135.308 28.6C135.692 27.32 136.06 26.024 136.396 24.68H136.46C136.828 26.008 137.18 27.32 137.58 28.6L138.044 30.184H134.828ZM139.484 35H141.452L137.548 23.224H135.404L131.5 35H133.388L134.396 31.64H138.492L139.484 35ZM142.505 35H144.361V30.536H146.137C148.697 30.536 150.569 29.352 150.569 26.776C150.569 24.12 148.697 23.224 146.073 23.224H142.505V35ZM144.361 29.048V24.712H145.897C147.769 24.712 148.745 25.224 148.745 26.776C148.745 28.328 147.849 29.048 145.961 29.048H144.361ZM152.365 35H154.221V30.536H155.997C158.557 30.536 160.429 29.352 160.429 26.776C160.429 24.12 158.557 23.224 155.933 23.224H152.365V35ZM154.221 29.048V24.712H155.757C157.629 24.712 158.605 25.224 158.605 26.776C158.605 28.328 157.709 29.048 155.821 29.048H154.221ZM162.224 35H169.056V33.432H164.08V23.224H162.224V35ZM170.63 35H177.766V33.432H172.486V29.624H176.806V28.056H172.486V24.776H177.59V23.224H170.63V35ZM186.332 33.176V30.712H190.844V29.384H182.188V27.368H190.524V22.792H180.54V24.12H188.892V26.056H180.572V30.712H184.684V33.176H178.988V34.536H192.076V33.176H186.332ZM204.535 33.176V30.712H209.047V29.384H200.391V27.368H208.727V22.792H198.743V24.12H207.095V26.056H198.775V30.712H202.887V33.176H197.191V34.536H210.279V33.176H204.535ZM221.154 24.776C221.154 26.648 221.154 28.776 220.594 31.624L222.258 31.8C222.802 28.744 222.802 26.712 222.802 24.776V23.224H212.802V24.552H221.154V24.776ZM211.41 32.856V34.216H224.482V32.856H211.41ZM237.533 21.784H235.885V32.28H237.533V21.784ZM227.517 26.36C227.517 25.032 228.461 24.168 229.741 24.168C231.005 24.168 231.965 25.032 231.965 26.36C231.965 27.672 231.005 28.552 229.741 28.552C228.461 28.552 227.517 27.672 227.517 26.36ZM233.565 26.36C233.565 24.248 231.917 22.744 229.741 22.744C227.565 22.744 225.901 24.248 225.901 26.36C225.901 28.456 227.565 29.976 229.741 29.976C231.917 29.976 233.565 28.456 233.565 26.36ZM229.757 34.616V31.224H228.093V35.96H237.949V34.616H229.757Z" fill="white"/>
<defs>
<clipPath id="clip0_3100_7260">
<rect x="131.5" y="48" width="40" height="40" rx="20" transform="rotate(180 131.5 48)" fill="white"/>
</clipPath>
</defs>
</svg>
