<svg width="296" height="237" viewBox="0 0 296 237" fill="none" xmlns="http://www.w3.org/2000/svg">
<g filter="url(#filter0_ii_2609_6376)">
<circle r="64.2093" transform="matrix(-1 0 0 1 145.77 87.0565)" fill="#DFDFDF"/>
</g>
<ellipse rx="12.5764" ry="6.44869" transform="matrix(-1 0 0 1 111.207 96.6147)" fill="url(#paint0_radial_2609_6376)"/>
<ellipse rx="9.56815" ry="6.44869" transform="matrix(-0.996711 0.0810375 0.0810375 0.996711 205.592 89.5777)" fill="url(#paint1_radial_2609_6376)"/>
<path d="M168.929 56.0484C168.929 70.7828 179.867 82.5043 193.095 82.5043C206.324 82.5043 217.262 70.7828 217.262 56.0484C217.262 41.3139 206.324 29.5924 193.095 29.5924C179.867 29.5924 168.929 41.3139 168.929 56.0484Z" stroke="#6F6F6F" stroke-width="3"/>
<path d="M103.863 61.6095C103.863 76.2044 115.837 88.0655 130.645 88.0655C145.452 88.0655 157.427 76.2044 157.427 61.6095C157.427 47.0146 145.452 35.1536 130.645 35.1536C115.837 35.1536 103.863 47.0146 103.863 61.6095Z" stroke="#6F6F6F" stroke-width="3"/>
<path d="M169.557 59.7054C168.53 59.7054 167.56 59.9224 166.538 60.0092C164.826 60.1546 163.074 60.0472 161.355 60.0472C160.439 60.0472 159.566 60.218 158.621 60.218" stroke="#6F6F6F" stroke-width="3" stroke-linecap="round"/>
<path d="M104.063 66.833C102.779 68.117 100.8 67.9237 99.1164 68.3246C97.7524 68.6494 96.2287 68.8485 94.8328 68.8983C93.7643 68.9365 92.7262 69.1278 91.6838 69.1278C90.8932 69.1278 90.0538 69.0185 89.3763 69.3573" stroke="#6F6F6F" stroke-width="3" stroke-linecap="round"/>
<path d="M217.886 54.8997C220.33 54.8997 222.75 54.2728 225 53.5228" stroke="#6F6F6F" stroke-width="3" stroke-linecap="round"/>
<path d="M183.63 56.5732C184.221 56.6471 184.089 57.7281 184.089 58.1285C184.089 58.9874 183.833 59.2867 183.222 59.8368C181.982 60.9526 181.133 60.5886 179.844 60.0153C177.041 58.77 180.043 54.4629 182.368 54.9796C183.669 55.2687 184.232 57.3566 183.502 58.2942C183.27 58.5926 182.29 59.4193 181.922 59.3141C181.333 59.1461 181.565 57.9874 181.565 57.5421C181.565 57.2066 182.015 56.2564 182.304 56.8026C182.746 57.6371 182.974 58.7349 182.368 59.5436C181.921 60.1396 181.203 59.7233 180.863 59.3269C180.229 58.5861 180.896 57.5311 181.106 57.95" stroke="#6F6F6F" stroke-width="3" stroke-linecap="round"/>
<path d="M147.667 59.4904C147.931 60.3685 149.274 60.9919 149.274 62.0657C149.274 62.502 148.675 64.5014 148.356 64.5389C147.554 64.6332 145.682 65.0567 145.194 64.08C144.826 63.3447 145.165 61.9388 145.602 61.3262C147.387 58.8277 149.59 62.3867 147.897 64.08C147.315 64.6614 145.445 64.8492 144.965 64.08C144.368 63.1258 144.777 61.9364 145.487 61.084C146.069 60.3865 146.524 60.157 147.553 60.5358C149.144 61.122 148.394 62.0359 147.667 63.0346C147.133 63.7697 145.79 64.022 145.028 63.621C143.769 62.9581 143.887 61.6786 144.684 60.4593C146.218 58.1129 148.126 60.0901 148.126 62.3589C148.126 63.4907 145.955 63.621 145.156 63.621C144.172 63.621 144.475 61.9551 144.684 61.3262" stroke="#6F6F6F" stroke-width="3" stroke-linecap="round"/>
<path d="M171.265 84.8463C172.093 84.8463 172.765 84.1748 172.765 83.3463C172.765 82.5179 172.093 81.8463 171.265 81.8463L171.265 84.8463ZM165.38 82.2784L165.559 83.7677L165.38 82.2784ZM162.318 82.8139L162.019 81.3441L162.318 82.8139ZM153.978 85.6711C153.253 86.072 152.99 86.9847 153.391 87.7097C153.792 88.4346 154.705 88.6972 155.43 88.2962L153.978 85.6711ZM171.265 81.8463C170.68 81.8463 169.945 81.6163 168.804 81.2866C167.816 81.0013 166.489 80.6348 165.202 80.7891L165.559 83.7677C166.155 83.6963 166.915 83.8639 167.971 84.1688C168.874 84.4295 170.14 84.8463 171.265 84.8463L171.265 81.8463ZM165.202 80.7891C163.874 80.9482 163.364 81.07 162.019 81.3441L162.617 84.2837C163.988 84.0045 164.374 83.9097 165.559 83.7677L165.202 80.7891ZM162.019 81.3441C160.516 81.6501 158.868 82.5784 157.505 83.4267C155.996 84.3659 154.874 85.1754 153.978 85.6711L155.43 88.2962C156.381 87.7701 157.858 86.7408 159.09 85.9736C160.469 85.1154 161.704 84.4698 162.617 84.2837L162.019 81.3441Z" fill="#6F6F6F"/>
<path d="M212.114 100.176C203.872 102.328 195.982 105.935 184.512 102.156C170.175 97.4331 168.538 114.217 173.412 117.895C178.285 121.573 184.848 126.89 205.88 124.198L212.646 123.128" stroke="#6F6F6F" stroke-width="3" stroke-linecap="round"/>
<path d="M117.372 105.054C125.508 107.008 144.579 109.902 155.773 105.853C169.767 100.791 171.687 117.525 166.969 121.317C162.251 125.109 155.904 130.579 135.197 128.39L118.101 126.06" stroke="#6F6F6F" stroke-width="3" stroke-linecap="round"/>
<path d="M95.0308 40.8665C95.7252 41.7009 95.846 44.1832 95.8954 45.495C95.9779 47.6839 97.402 49.3779 98.0694 51.222C99.0201 53.8487 101.479 63.4368 102.051 66.3005" stroke="#6F6F6F" stroke-width="3" stroke-linecap="round"/>
<path d="M84.832 42.8243C81.4986 42.2107 75.8135 39.1506 79.7395 31.8195C82.4819 26.6988 86.712 28.4372 90.0349 31.4096C88.5935 26.941 94.0387 23.3776 96.8093 22.7465C104.523 21.4982 104.142 28.6615 103.183 33.75C106.17 33.4321 107.913 33.9363 108.861 35.076L109.804 36.6072C110.713 39.4636 111.325 45.8422 106.496 48.5057C101.667 51.1692 96.931 44.6098 95.1667 40.9971C95.3094 43.4752 95.2345 49.4638 92.3526 51.862C89.9493 53.8619 89.0898 54.8607 82.5582 51.4892C77.333 48.792 81.8969 44.5888 84.832 42.8243Z" fill="#B0E519"/>
<path d="M102.304 33.9867C103.177 33.0801 103.372 30.7851 103.483 29.5719C103.59 28.4039 103.235 27.038 102.824 25.9491C101.974 23.6974 100.907 22.9782 98.5196 22.3795C96.5759 21.8921 94.2788 23.2976 92.8597 24.4786C91.2947 25.7808 91.0126 26.9429 90.2426 28.6996" stroke="#6F6F6F" stroke-width="2.5" stroke-linecap="round"/>
<path d="M92.3744 32.7988C92.6588 32.495 90.9126 30.4284 90.5973 30.0494C89.8345 29.1327 88.5758 28.201 87.3757 28.0194C85.324 27.7091 83.2315 28.4032 81.6434 29.7247C80.995 30.2643 80.289 30.7716 79.7528 31.4256C79.2644 32.0212 78.8779 32.3244 78.5924 33.2709C78.2653 34.3557 78.1433 35.3255 78.2219 36.607C78.398 36.9025 78.3944 37.6368 78.9101 38.2565C79.5376 39.1469 80.5071 39.9984 80.8424 40.2576C82.0031 41.1549 83.3175 41.5323 84.326 41.9744" stroke="#6F6F6F" stroke-width="2.5" stroke-linecap="round"/>
<path d="M95.5306 41.8954C96.1368 42.8138 95.741 45.3253 95.5299 46.692C95.1196 48.1592 95.191 48.6229 94.5663 49.6941C94.2515 50.2337 93.6891 51.1838 93.2 51.5908C92.5033 52.1705 91.4639 52.8865 90.6396 53.2713C89.7903 53.6677 89.1315 53.6579 88.282 53.7824C87.5671 53.8871 86.5947 53.7014 85.8798 53.5631C84.9976 53.3925 84.6607 53.0759 83.4545 52.5013C82.6174 52.0226 82.2402 52.058 80.7813 50.1151C79.9376 48.0381 79.8167 47.9912 80.1917 46.769C80.5363 45.6458 81.0778 45.101 82.2172 44.0054C83.3566 42.9098 83.8794 42.7027 84.7473 41.9805" stroke="#6F6F6F" stroke-width="2.5" stroke-linecap="round"/>
<path d="M95.4836 41.7198C96.7652 42.7836 98.4086 45.3484 99.7178 46.2412C100.659 46.8831 101.782 47.5826 102.869 47.9887C103.826 48.3465 105.819 48.2982 107.045 47.6637C108.227 47.0526 108.888 46.2064 109.511 45.1016C110.177 44.1197 110.45 42.9664 110.725 41.7086C110.943 40.7173 110.283 38.9173 109.806 38.0734C109.313 37.2008 108.852 36.2559 107.991 35.4679C107 34.6731 106.614 34.5228 105.622 34.2902" stroke="#6F6F6F" stroke-width="2.5" stroke-linecap="round"/>
<path d="M77.925 195.34C76.545 195.34 75.625 193.88 75.625 191.14C75.625 188.42 76.545 186.96 77.925 186.96C79.285 186.96 80.225 188.42 80.225 191.14C80.225 193.88 79.285 195.34 77.925 195.34ZM77.925 184.58C75.125 184.58 73.085 187.1 73.085 191.14C73.085 195.2 75.125 197.74 77.925 197.74C80.705 197.74 82.765 195.2 82.765 191.14C82.765 187.1 80.705 184.58 77.925 184.58ZM90.085 190.24H87.405V183.3H84.765V201.72H87.405V192.42H90.085V190.24ZM102.363 191.76C99.4434 190.8 98.0834 188.64 98.0434 186.48H101.683V184.4H91.6634V186.48H95.3634C95.3234 188.76 93.9634 191.1 90.9634 192.06L92.3034 194.12C94.4434 193.42 95.9234 191.98 96.7434 190.18C97.5834 191.82 98.9834 193.14 101.023 193.78L102.363 191.76ZM93.6434 197.32H103.523V201.74H106.183V195.22H93.6434V197.32ZM103.523 183.3V194.4H106.183V183.3H103.523ZM115.793 187.26H118.153V195.06H115.793V187.26ZM113.333 197.12H120.593V185.18H113.333V197.12ZM126.113 183.28V190.32H124.573V183.58H122.113V200.88H124.573V192.44H126.113V201.7H128.613V183.28H126.113ZM146.012 183.3H143.352V194.4H146.012V183.3ZM142.212 191.78C139.332 191.04 137.972 189.16 137.852 187.3H141.552V185.22H137.852V183.32H135.212V185.22H131.492V187.3H135.212C135.112 189.34 133.772 191.36 130.872 192.18L132.112 194.24C134.292 193.62 135.772 192.3 136.592 190.6C137.452 192.12 138.912 193.28 141.012 193.84L142.212 191.78ZM139.792 199.7C137.392 199.7 136.112 199.24 136.112 198.22C136.112 197.22 137.392 196.74 139.792 196.74C142.172 196.74 143.452 197.22 143.452 198.22C143.452 199.24 142.172 199.7 139.792 199.7ZM139.792 194.72C135.892 194.72 133.492 196.02 133.492 198.22C133.492 200.46 135.892 201.74 139.792 201.74C143.672 201.74 146.072 200.46 146.072 198.22C146.072 196.02 143.672 194.72 139.792 194.72ZM163.95 183.28H161.29V197.16H163.95V183.28ZM160.19 192.56C158.85 192.68 157.43 192.78 156.01 192.84V191.04H159.23V188.94H152.85V186.5H159.11V184.4H150.21V191.04H153.37V192.94C151.75 192.98 150.15 192.98 148.69 192.98L149.03 195.08C152.41 195.08 156.53 195 160.37 194.44L160.19 192.56ZM154.13 199.3V196.16H151.47V201.4H164.43V199.3H154.13ZM181.4 191.46C178.5 190.56 177.26 188.4 177.26 186.18V184.3H174.58V185.96C174.58 188.46 173.34 190.92 170.26 191.94L171.64 194.02C173.74 193.3 175.16 191.88 175.96 190.06C176.74 191.62 178.08 192.86 180.02 193.5L181.4 191.46ZM179.02 199.68C176.66 199.68 175.4 199.2 175.4 198.16C175.4 197.14 176.66 196.66 179.02 196.66C181.36 196.66 182.62 197.14 182.62 198.16C182.62 199.2 181.36 199.68 179.02 199.68ZM179.02 194.62C175.18 194.62 172.78 195.94 172.78 198.16C172.78 200.4 175.18 201.72 179.02 201.72C182.84 201.72 185.24 200.4 185.24 198.16C185.24 195.94 182.84 194.62 179.02 194.62ZM185.04 187.58V183.32H182.4V194.2H185.04V189.76H187.48V187.58H185.04ZM191.558 187.56H195.778V185.42H188.958V197.58H190.238C192.598 197.58 194.558 197.5 196.798 197.08L196.598 194.94C194.838 195.26 193.278 195.36 191.558 195.4V187.56ZM201.738 183.28V190.38H200.078V183.64H197.618V200.86H200.078V192.5H201.738V201.72H204.238V183.28H201.738ZM207.177 185.18V187.32H213.197C212.717 191.4 210.437 194.32 206.157 196.52L207.637 198.54C213.757 195.44 215.857 190.7 215.857 185.18H207.177ZM223.337 190.32H220.757V183.28H218.117V201.68H220.757V192.5H223.337V190.32ZM124.522 218.32C124.522 216.96 125.502 216.16 126.842 216.16C128.202 216.16 129.182 216.96 129.182 218.32C129.182 219.7 128.202 220.5 126.842 220.5C125.502 220.5 124.522 219.7 124.522 218.32ZM134.522 219.38V223.04H137.162V213.3H134.522V217.24H131.562C131.062 215.28 129.202 213.98 126.842 213.98C124.082 213.98 122.002 215.8 122.002 218.32C122.002 220.86 124.082 222.68 126.842 222.68C129.202 222.68 131.082 221.36 131.582 219.38H134.522ZM128.082 229.54H126.222V227.8H128.082V229.54ZM135.962 223.94H133.362V225.32C133.362 226.98 132.522 228.68 130.502 229.62V224.1H128.082V225.9H126.222V224.1H123.782V231.5H130.502V230.12L131.542 231.7C133.022 231.12 134.022 230.08 134.622 228.82C135.222 230.1 136.242 231.14 137.782 231.7L139.082 229.74C136.822 228.96 135.962 227.22 135.962 225.32V223.94ZM144.701 225.34C143.361 225.34 142.461 223.88 142.461 221.14C142.461 218.42 143.361 216.96 144.701 216.96C146.061 216.96 146.961 218.42 146.961 221.14C146.961 223.88 146.061 225.34 144.701 225.34ZM152.481 213.28V219.92H149.401C149.041 216.6 147.181 214.58 144.701 214.58C141.961 214.58 139.941 217.1 139.941 221.14C139.941 225.2 141.961 227.74 144.701 227.74C147.261 227.74 149.141 225.58 149.421 222.06H152.481V231.76H155.121V213.28H152.481ZM163.859 223.92C164.499 224.04 165.159 224.1 165.879 224.1C166.599 224.1 167.279 224.04 167.919 223.92V227.44H163.859V223.92ZM165.879 216.28C168.439 216.28 170.159 217.32 170.159 219.16C170.159 220.98 168.439 222.04 165.879 222.04C163.319 222.04 161.619 220.98 161.619 219.16C161.619 217.32 163.319 216.28 165.879 216.28ZM170.539 227.44V222.94C171.919 222.08 172.759 220.76 172.759 219.16C172.759 216.14 169.859 214.2 165.879 214.2C161.919 214.2 159.019 216.14 159.019 219.16C158.999 220.76 159.839 222.08 161.239 222.94V227.44H157.559V229.58H174.239V227.44H170.539Z" fill="#8B8B8B"/>
<defs>
<filter id="filter0_ii_2609_6376" x="81.5605" y="12.8472" width="128.419" height="142.419" filterUnits="userSpaceOnUse" color-interpolation-filters="sRGB">
<feFlood flood-opacity="0" result="BackgroundImageFix"/>
<feBlend mode="normal" in="SourceGraphic" in2="BackgroundImageFix" result="shape"/>
<feColorMatrix in="SourceAlpha" type="matrix" values="0 0 0 0 0 0 0 0 0 0 0 0 0 0 0 0 0 0 127 0" result="hardAlpha"/>
<feOffset dy="4"/>
<feGaussianBlur stdDeviation="5"/>
<feComposite in2="hardAlpha" operator="arithmetic" k2="-1" k3="1"/>
<feColorMatrix type="matrix" values="0 0 0 0 1 0 0 0 0 1 0 0 0 0 1 0 0 0 0.25 0"/>
<feBlend mode="normal" in2="shape" result="effect1_innerShadow_2609_6376"/>
<feColorMatrix in="SourceAlpha" type="matrix" values="0 0 0 0 0 0 0 0 0 0 0 0 0 0 0 0 0 0 127 0" result="hardAlpha"/>
<feOffset dy="-10"/>
<feGaussianBlur stdDeviation="10"/>
<feComposite in2="hardAlpha" operator="arithmetic" k2="-1" k3="1"/>
<feColorMatrix type="matrix" values="0 0 0 0 0.4 0 0 0 0 0.4 0 0 0 0 0.4 0 0 0 0.3 0"/>
<feBlend mode="normal" in2="effect1_innerShadow_2609_6376" result="effect2_innerShadow_2609_6376"/>
</filter>
<radialGradient id="paint0_radial_2609_6376" cx="0" cy="0" r="1" gradientUnits="userSpaceOnUse" gradientTransform="translate(12.5764 6.44869) rotate(90) scale(6.44869 12.5764)">
<stop stop-color="#919191"/>
<stop offset="1" stop-color="#909090" stop-opacity="0"/>
</radialGradient>
<radialGradient id="paint1_radial_2609_6376" cx="0" cy="0" r="1" gradientUnits="userSpaceOnUse" gradientTransform="translate(9.56815 6.44869) rotate(90) scale(6.44869 9.56815)">
<stop stop-color="#919191"/>
<stop offset="1" stop-color="#909090" stop-opacity="0"/>
</radialGradient>
</defs>
</svg>
