<svg width="24" height="24" viewBox="0 0 24 24" fill="none" xmlns="http://www.w3.org/2000/svg">
<path d="M5.6 20C5.16 20 4.78347 19.8352 4.4704 19.5057C4.1568 19.1756 4 18.7789 4 18.3158V9.05263C4 8.58947 4.1568 8.19312 4.4704 7.86358C4.78347 7.53347 5.16 7.36842 5.6 7.36842H8.8V5.68421C8.8 5.22105 8.9568 4.82442 9.2704 4.49432C9.58347 4.16477 9.96 4 10.4 4H13.6C14.04 4 14.4168 4.16477 14.7304 4.49432C15.0435 4.82442 15.2 5.22105 15.2 5.68421V7.36842H18.4C18.84 7.36842 19.2168 7.53347 19.5304 7.86358C19.8435 8.19312 20 8.58947 20 9.05263V18.3158C20 18.7789 19.8435 19.1756 19.5304 19.5057C19.2168 19.8352 18.84 20 18.4 20H5.6ZM10.4 7.36842H13.6V5.68421H10.4V7.36842Z" fill="#555555"/>
</svg>
