<svg width="24" height="24" viewBox="0 0 24 24" fill="none" xmlns="http://www.w3.org/2000/svg">
<path d="M19.0042 19.9422H5.0042C4.73899 19.9422 4.48463 20.0476 4.2971 20.2351C4.10956 20.4227 4.0042 20.677 4.0042 20.9422C4.0042 21.2075 4.10956 21.4618 4.2971 21.6493C4.48463 21.8369 4.73899 21.9422 5.0042 21.9422H19.0042C19.2694 21.9422 19.5238 21.8369 19.7113 21.6493C19.8988 21.4618 20.0042 21.2075 20.0042 20.9422C20.0042 20.677 19.8988 20.4227 19.7113 20.2351C19.5238 20.0476 19.2694 19.9422 19.0042 19.9422ZM5.0042 17.9422H5.0942L9.2642 17.5622C9.721 17.5167 10.1482 17.3155 10.4742 16.9922L19.4742 7.99224C19.8235 7.62321 20.0123 7.13075 19.9992 6.62278C19.9861 6.1148 19.7721 5.63275 19.4042 5.28224L16.6642 2.54224C16.3066 2.20634 15.838 2.0136 15.3475 2.00069C14.8571 1.98779 14.379 2.15561 14.0042 2.47224L5.0042 11.4722C4.68097 11.7982 4.47971 12.2254 4.4342 12.6822L4.0042 16.8522C3.99073 16.9987 4.00974 17.1463 4.05986 17.2846C4.10999 17.4229 4.19001 17.5484 4.2942 17.6522C4.38764 17.7449 4.49846 17.8182 4.6203 17.868C4.74213 17.9178 4.8726 17.943 5.0042 17.9422ZM15.2742 3.94224L18.0042 6.67224L16.0042 8.62224L13.3242 5.94224L15.2742 3.94224Z" fill="#3D3D3D"/>
</svg>
