<svg width="185" height="23" viewBox="0 0 185 23" fill="none" xmlns="http://www.w3.org/2000/svg">
<path d="M0.751719 22V0.999999H4.77172L13.7117 15.82H11.5817L20.3717 0.999999H24.3617L24.4217 22H19.8617L19.8317 7.99H20.6717L13.6517 19.78H11.4617L4.29172 7.99H5.31172V22H0.751719ZM25.1441 22L34.5041 0.999999H39.3041L48.6941 22H43.5941L35.9141 3.46H37.8341L30.1241 22H25.1441ZM29.8241 17.5L31.1141 13.81H41.9141L43.2341 17.5H29.8241ZM49.3728 22V0.999999H58.4628C60.3428 0.999999 61.9628 1.31 63.3228 1.93C64.6828 2.53 65.7328 3.4 66.4728 4.54C67.2128 5.68 67.5828 7.04 67.5828 8.62C67.5828 10.18 67.2128 11.53 66.4728 12.67C65.7328 13.79 64.6828 14.65 63.3228 15.25C61.9628 15.85 60.3428 16.15 58.4628 16.15H52.0728L54.2328 14.02V22H49.3728ZM62.7228 22L57.4728 14.38H62.6628L67.9728 22H62.7228ZM54.2328 14.56L52.0728 12.28H58.1928C59.6928 12.28 60.8128 11.96 61.5528 11.32C62.2928 10.66 62.6628 9.76 62.6628 8.62C62.6628 7.46 62.2928 6.56 61.5528 5.92C60.8128 5.28 59.6928 4.96 58.1928 4.96H52.0728L54.2328 2.65V14.56ZM69.9334 22V0.999999H79.0234C80.9034 0.999999 82.5234 1.31 83.8834 1.93C85.2434 2.53 86.2934 3.4 87.0334 4.54C87.7734 5.68 88.1434 7.04 88.1434 8.62C88.1434 10.18 87.7734 11.53 87.0334 12.67C86.2934 13.79 85.2434 14.65 83.8834 15.25C82.5234 15.85 80.9034 16.15 79.0234 16.15H72.6334L74.7934 14.02V22H69.9334ZM83.2834 22L78.0334 14.38H83.2234L88.5334 22H83.2834ZM74.7934 14.56L72.6334 12.28H78.7534C80.2534 12.28 81.3734 11.96 82.1134 11.32C82.8534 10.66 83.2234 9.76 83.2234 8.62C83.2234 7.46 82.8534 6.56 82.1134 5.92C81.3734 5.28 80.2534 4.96 78.7534 4.96H72.6334L74.7934 2.65V14.56ZM95.4209 22V13.42L96.5309 16.36L87.2909 0.999999H92.4509L99.5309 12.79H96.5609L103.671 0.999999H108.441L99.2009 16.36L100.281 13.42V22H95.4209ZM107.048 15.43V11.68H115.538V15.43H107.048ZM121.317 22V4.96H114.597V0.999999H132.897V4.96H126.177V22H121.317ZM134.011 22V0.999999H138.871V22H134.011ZM142.355 22V0.999999H146.375L158.765 16.12H156.815V0.999999H161.615V22H157.625L145.205 6.88H147.155V22H142.355ZM175.224 22.36C173.564 22.36 172.034 22.1 170.634 21.58C169.254 21.04 168.044 20.28 167.004 19.3C165.984 18.32 165.184 17.17 164.604 15.85C164.044 14.53 163.764 13.08 163.764 11.5C163.764 9.92 164.044 8.47 164.604 7.15C165.184 5.83 165.994 4.68 167.034 3.7C168.074 2.72 169.294 1.97 170.694 1.45C172.094 0.909999 173.634 0.64 175.314 0.64C177.174 0.64 178.844 0.949999 180.324 1.57C181.824 2.19 183.084 3.09 184.104 4.27L180.984 7.15C180.224 6.35 179.394 5.76 178.494 5.38C177.594 4.98 176.614 4.78 175.554 4.78C174.534 4.78 173.604 4.94 172.764 5.26C171.924 5.58 171.194 6.04 170.574 6.64C169.974 7.24 169.504 7.95 169.164 8.77C168.844 9.59 168.684 10.5 168.684 11.5C168.684 12.48 168.844 13.38 169.164 14.2C169.504 15.02 169.974 15.74 170.574 16.36C171.194 16.96 171.914 17.42 172.734 17.74C173.574 18.06 174.494 18.22 175.494 18.22C176.454 18.22 177.384 18.07 178.284 17.77C179.204 17.45 180.094 16.92 180.954 16.18L183.714 19.69C182.574 20.55 181.244 21.21 179.724 21.67C178.224 22.13 176.724 22.36 175.224 22.36ZM179.274 19.06V11.17H183.714V19.69L179.274 19.06Z" fill="#F7F7F7"/>
</svg>
