<svg width="78" height="78" viewBox="0 0 78 78" fill="none" xmlns="http://www.w3.org/2000/svg">
<g clip-path="url(#clip0_2432_7782)">
<g filter="url(#filter0_ii_2432_7782)">
<ellipse rx="37.2025" ry="37.2654" transform="matrix(-0.965921 0.258837 0.258837 0.965921 53.0578 52.3546)" fill="#6892FF"/>
</g>
<path d="M31.9724 48.4241C32.0025 48.8689 31.6745 49.4904 31.5479 49.8971C31.2272 50.9267 31.0313 52.0303 30.6642 53.0376C30.373 53.8368 30.1535 54.5484 29.9577 55.3127C29.8481 55.7406 30.3634 55.4907 30.597 55.3534C30.9232 55.1618 31.5047 55.1665 31.8748 55.1116C32.6663 54.9941 33.4661 54.9653 34.263 54.8312" stroke="#242424" stroke-width="2" stroke-linecap="round"/>
<path d="M29.6927 61.929C31.0636 63.4735 32.4474 64.6787 34.6565 64.1105C36.0722 63.7464 37.6942 61.9318 37.6935 60.4967" stroke="#242424" stroke-width="2" stroke-linecap="round"/>
<path d="M72.2472 16.9756C71.7287 17.8753 71.1666 18.7588 70.8194 19.7313C70.7299 19.9819 70.5404 20.2235 70.4072 20.4546C70.2322 20.7583 70.1187 21.0982 69.9385 21.411" stroke="#242424" stroke-width="2" stroke-linecap="round"/>
<ellipse rx="6.54625" ry="3.36071" transform="matrix(-0.989617 -0.143726 -0.142502 0.989795 46.6948 52.5147)" fill="url(#paint0_radial_2432_7782)"/>
<ellipse rx="5.10269" ry="3.36059" transform="matrix(-0.987038 -0.160484 -0.159228 0.987242 21.6716 46.96)" fill="url(#paint1_radial_2432_7782)"/>
<path d="M39.3799 40.5238C40.0906 41.3092 39.4598 42.4986 38.4059 42.3779C38.0251 42.3343 37.5664 42.0674 37.6431 41.6134C37.7743 40.8366 38.3455 40.3491 39.1035 40.547C39.5471 40.6628 40.1547 41.0819 39.6128 41.5283C39.3781 41.7216 38.7052 42.0368 38.4052 41.997C38.1797 41.9671 38.0258 41.5816 38.1164 41.3922C38.1857 41.2472 38.3447 41.2907 38.4762 41.2885" stroke="#242424" stroke-width="2" stroke-linecap="round"/>
<path d="M30.9088 39.3299C31.282 39.3746 32.3873 39.8935 31.7706 40.2748C31.3624 40.5271 30.4616 41.1849 30.0057 40.7187C29.3736 40.0723 30.1514 39.0966 30.8749 39.0414C31.4571 38.997 31.5861 38.9203 31.6446 39.6299C31.67 39.9382 31.5695 40.5786 31.3855 40.6356C30.955 40.7689 29.9446 40.7629 30.2861 39.994C30.4987 39.5152 31.0198 39.7603 31.3593 39.9568C31.7952 40.2089 31.1999 40.4893 30.992 40.614" stroke="#242424" stroke-width="2" stroke-linecap="round"/>
<path d="M75.5034 16.2218C74.7409 16.4262 73.9641 16.5884 73.2077 16.7911C73.0011 16.8465 72.4283 17.0548 72.3515 16.7682C72.1981 16.1959 71.7514 15.7299 71.5589 15.1782C71.5134 15.0477 71.3668 14.7981 71.281 14.6918C71.1835 14.5712 71.1461 14.4069 71.0475 14.2955" stroke="#242424" stroke-width="2" stroke-linecap="round"/>
<path d="M9.95706 23.5127C10.4061 24.0082 10.8492 24.6761 11.1529 25.2858C11.0722 24.9844 11.1476 24.7186 11.1703 24.4136C11.2234 23.6991 11.2878 23.0568 11.4947 22.377C11.6085 22.0028 11.8638 21.629 12.1023 21.3329C12.2104 21.1987 12.2837 21.0367 12.3967 20.9047C12.5901 20.6787 12.8636 20.5065 13.1177 20.3645C13.5906 20.1002 14.1091 19.9322 14.629 19.7929C14.9345 19.711 15.2315 19.7702 15.5424 19.7445C15.903 19.7147 16.2727 19.8245 16.5824 20.1119C16.8921 20.3993 16.9642 20.8061 17.155 21.1502C17.2789 21.3738 17.2587 21.6462 17.2951 21.8912C17.3623 22.3438 17.3054 22.8494 17.2633 23.2992C17.2034 23.9386 17.1282 24.5806 17.0479 25.2176C16.8918 26.4554 16.4663 27.5599 15.7611 28.5577C15.3182 29.1843 14.8587 29.7863 14.4357 30.4288C14.1877 30.8053 13.925 31.172 13.665 31.5348C13.5787 31.6552 13.2474 31.6678 13.1195 31.6718C12.8868 31.6792 12.6807 31.6579 12.4537 31.6265C12.2442 31.5975 12.0213 31.4481 11.8137 31.387C11.4161 31.2699 11.0083 31.0756 10.6209 30.9258C10.0986 30.7239 9.55076 30.6021 9.03223 30.3926C8.46373 30.163 7.89497 29.9228 7.34 29.6589C7.13476 29.5613 6.91853 29.4938 6.7108 29.4029C6.49653 29.309 6.32298 29.1203 6.12497 28.9936C5.1845 28.3921 4.46286 27.6611 4.04094 26.5796C3.76709 25.8776 3.73508 24.7681 4.22914 24.1639C4.44132 23.9045 4.72423 23.6719 5.00671 23.5036C5.45135 23.2385 5.98247 22.9727 6.48424 22.8383C6.9612 22.7105 7.39983 22.7065 7.89461 22.8028C8.41841 22.9047 9.56137 23.076 9.95706 23.5127Z" stroke="#242424" stroke-width="2" stroke-linecap="round" stroke-linejoin="round"/>
</g>
<defs>
<filter id="filter0_ii_2432_7782" x="15.8418" y="5.08423" width="74.4319" height="94.5408" filterUnits="userSpaceOnUse" color-interpolation-filters="sRGB">
<feFlood flood-opacity="0" result="BackgroundImageFix"/>
<feBlend mode="normal" in="SourceGraphic" in2="BackgroundImageFix" result="shape"/>
<feColorMatrix in="SourceAlpha" type="matrix" values="0 0 0 0 0 0 0 0 0 0 0 0 0 0 0 0 0 0 127 0" result="hardAlpha"/>
<feOffset dy="10"/>
<feGaussianBlur stdDeviation="5"/>
<feComposite in2="hardAlpha" operator="arithmetic" k2="-1" k3="1"/>
<feColorMatrix type="matrix" values="0 0 0 0 1 0 0 0 0 1 0 0 0 0 1 0 0 0 0.1 0"/>
<feBlend mode="normal" in2="shape" result="effect1_innerShadow_2432_7782"/>
<feColorMatrix in="SourceAlpha" type="matrix" values="0 0 0 0 0 0 0 0 0 0 0 0 0 0 0 0 0 0 127 0" result="hardAlpha"/>
<feOffset dy="-10"/>
<feGaussianBlur stdDeviation="10"/>
<feComposite in2="hardAlpha" operator="arithmetic" k2="-1" k3="1"/>
<feColorMatrix type="matrix" values="0 0 0 0 0 0 0 0 0 0.22 0 0 0 0 1 0 0 0 0.3 0"/>
<feBlend mode="normal" in2="effect1_innerShadow_2432_7782" result="effect2_innerShadow_2432_7782"/>
</filter>
<radialGradient id="paint0_radial_2432_7782" cx="0" cy="0" r="1" gradientUnits="userSpaceOnUse" gradientTransform="translate(6.54625 3.36071) rotate(90) scale(3.36071 6.54625)">
<stop stop-color="#F76159"/>
<stop offset="1" stop-color="#F76159" stop-opacity="0"/>
</radialGradient>
<radialGradient id="paint1_radial_2432_7782" cx="0" cy="0" r="1" gradientUnits="userSpaceOnUse" gradientTransform="translate(5.10269 3.36059) rotate(90) scale(3.36059 5.10269)">
<stop stop-color="#F76159"/>
<stop offset="1" stop-color="#F76159" stop-opacity="0"/>
</radialGradient>
<clipPath id="clip0_2432_7782">
<rect width="78" height="78" fill="white"/>
</clipPath>
</defs>
</svg>
